<?xml version="1.0" encoding="UTF-8" standalone="no"?>
<!-- Created with Inkscape (http://www.inkscape.org/) -->

<svg
   width="1200"
   height="630"
   viewBox="0 0 317.5 166.6875"
   version="1.1"
   id="svg1"
   inkscape:version="1.4.3 (0d15f75042, 2025-12-25)"
   sodipodi:docname="newnonword.svg"
   inkscape:export-filename="nonnewword.png"
   inkscape:export-xdpi="96"
   inkscape:export-ydpi="96"
   xmlns:inkscape="http://www.inkscape.org/namespaces/inkscape"
   xmlns:sodipodi="http://sodipodi.sourceforge.net/DTD/sodipodi-0.dtd"
   xmlns="http://www.w3.org/2000/svg"
   xmlns:svg="http://www.w3.org/2000/svg">
  <sodipodi:namedview
     id="namedview1"
     pagecolor="#ffffff"
     bordercolor="#eeeeee"
     borderopacity="1"
     inkscape:showpageshadow="0"
     inkscape:pageopacity="0"
     inkscape:pagecheckerboard="0"
     inkscape:deskcolor="#505050"
     inkscape:document-units="mm"
     showgrid="true"
     inkscape:zoom="0.70710678"
     inkscape:cx="622.25397"
     inkscape:cy="356.38182"
     inkscape:window-width="1025"
     inkscape:window-height="1028"
     inkscape:window-x="0"
     inkscape:window-y="0"
     inkscape:window-maximized="0"
     inkscape:current-layer="layer1"
     inkscape:export-bgcolor="#ffffffff">
    <inkscape:grid
       id="grid1"
       units="px"
       originx="0"
       originy="0"
       spacingx="7.9375"
       spacingy="7.9375"
       empcolor="#000000"
       empopacity="0.30196078"
       color="#000000"
       opacity="0.14901961"
       empspacing="4"
       dotted="false"
       gridanglex="30"
       gridanglez="30"
       visible="true" />
    <inkscape:grid
       id="grid3"
       units="px"
       originx="0"
       originy="0"
       spacingx="3.96875"
       spacingy="3.96875"
       empcolor="#000000"
       empopacity="0.30196078"
       color="#000000"
       opacity="0.10196078"
       empspacing="8"
       dotted="false"
       gridanglex="30"
       gridanglez="30"
       visible="true" />
  </sodipodi:namedview>
  <defs
     id="defs1">
    <inkscape:path-effect
       effect="simplify"
       id="path-effect14"
       is_visible="true"
       lpeversion="1.3"
       threshold="10,869565"
       steps="1"
       smooth_angles="360"
       helper_size="0"
       simplify_individual_paths="false"
       simplify_just_coalesce="false" />
    <inkscape:path-effect
       effect="simplify"
       id="path-effect13"
       is_visible="true"
       lpeversion="1.3"
       threshold="10,869565"
       steps="1"
       smooth_angles="360"
       helper_size="0"
       simplify_individual_paths="false"
       simplify_just_coalesce="false" />
    <inkscape:path-effect
       effect="simplify"
       id="path-effect12"
       is_visible="true"
       lpeversion="1.3"
       threshold="10,869565"
       steps="1"
       smooth_angles="360"
       helper_size="0"
       simplify_individual_paths="false"
       simplify_just_coalesce="false" />
    <inkscape:path-effect
       effect="simplify"
       id="path-effect11"
       is_visible="true"
       lpeversion="1.3"
       threshold="10,869565"
       steps="1"
       smooth_angles="360"
       helper_size="0"
       simplify_individual_paths="false"
       simplify_just_coalesce="false" />
    <inkscape:path-effect
       effect="simplify"
       id="path-effect10"
       is_visible="true"
       lpeversion="1.3"
       threshold="10,869565"
       steps="1"
       smooth_angles="360"
       helper_size="0"
       simplify_individual_paths="false"
       simplify_just_coalesce="false" />
    <inkscape:path-effect
       effect="simplify"
       id="path-effect9"
       is_visible="true"
       lpeversion="1.3"
       threshold="10,869565"
       steps="1"
       smooth_angles="360"
       helper_size="0"
       simplify_individual_paths="false"
       simplify_just_coalesce="false" />
    <inkscape:path-effect
       effect="simplify"
       id="path-effect8"
       is_visible="true"
       lpeversion="1.3"
       threshold="10,869565"
       steps="1"
       smooth_angles="360"
       helper_size="0"
       simplify_individual_paths="false"
       simplify_just_coalesce="false" />
    <inkscape:path-effect
       effect="simplify"
       id="path-effect7"
       is_visible="true"
       lpeversion="1.3"
       threshold="10,869565"
       steps="1"
       smooth_angles="360"
       helper_size="0"
       simplify_individual_paths="false"
       simplify_just_coalesce="false" />
    <inkscape:path-effect
       effect="simplify"
       id="path-effect6"
       is_visible="true"
       lpeversion="1.3"
       threshold="10,869565"
       steps="1"
       smooth_angles="360"
       helper_size="0"
       simplify_individual_paths="false"
       simplify_just_coalesce="false" />
    <inkscape:path-effect
       effect="simplify"
       id="path-effect5"
       is_visible="true"
       lpeversion="1.3"
       threshold="10,869565"
       steps="1"
       smooth_angles="360"
       helper_size="0"
       simplify_individual_paths="false"
       simplify_just_coalesce="false" />
    <inkscape:path-effect
       effect="simplify"
       id="path-effect4"
       is_visible="true"
       lpeversion="1.3"
       threshold="10,869565"
       steps="1"
       smooth_angles="360"
       helper_size="0"
       simplify_individual_paths="false"
       simplify_just_coalesce="false" />
    <inkscape:path-effect
       effect="simplify"
       id="path-effect3"
       is_visible="true"
       lpeversion="1.3"
       threshold="10,869565"
       steps="1"
       smooth_angles="360"
       helper_size="0"
       simplify_individual_paths="false"
       simplify_just_coalesce="false" />
    <inkscape:path-effect
       effect="simplify"
       id="path-effect2"
       is_visible="true"
       lpeversion="1.3"
       threshold="10,869565"
       steps="1"
       smooth_angles="360"
       helper_size="0"
       simplify_individual_paths="false"
       simplify_just_coalesce="false" />
    <inkscape:path-effect
       effect="simplify"
       id="path-effect1"
       is_visible="true"
       lpeversion="1.3"
       threshold="10,869565"
       steps="1"
       smooth_angles="360"
       helper_size="0"
       simplify_individual_paths="false"
       simplify_just_coalesce="false" />
    <inkscape:path-effect
       effect="simplify"
       id="path-effect4-5"
       is_visible="true"
       lpeversion="1.3"
       threshold="10"
       steps="1"
       smooth_angles="360"
       helper_size="0"
       simplify_individual_paths="false"
       simplify_just_coalesce="false" />
    <inkscape:path-effect
       effect="simplify"
       id="path-effect6-0"
       is_visible="true"
       lpeversion="1.3"
       threshold="10"
       steps="1"
       smooth_angles="360"
       helper_size="0"
       simplify_individual_paths="false"
       simplify_just_coalesce="false" />
    <inkscape:path-effect
       effect="simplify"
       id="path-effect6-4"
       is_visible="true"
       lpeversion="1.3"
       threshold="10"
       steps="1"
       smooth_angles="360"
       helper_size="0"
       simplify_individual_paths="false"
       simplify_just_coalesce="false" />
    <inkscape:path-effect
       effect="simplify"
       id="path-effect6-0-3"
       is_visible="true"
       lpeversion="1.3"
       threshold="10"
       steps="1"
       smooth_angles="360"
       helper_size="0"
       simplify_individual_paths="false"
       simplify_just_coalesce="false" />
    <inkscape:path-effect
       effect="simplify"
       id="path-effect6-0-3-8"
       is_visible="true"
       lpeversion="1.3"
       threshold="10"
       steps="1"
       smooth_angles="360"
       helper_size="0"
       simplify_individual_paths="false"
       simplify_just_coalesce="false" />
    <inkscape:path-effect
       effect="simplify"
       id="path-effect6-4-9"
       is_visible="true"
       lpeversion="1.3"
       threshold="10"
       steps="1"
       smooth_angles="360"
       helper_size="0"
       simplify_individual_paths="false"
       simplify_just_coalesce="false" />
    <inkscape:path-effect
       effect="simplify"
       id="path-effect6-0-3-8-0"
       is_visible="true"
       lpeversion="1.3"
       threshold="10"
       steps="1"
       smooth_angles="360"
       helper_size="0"
       simplify_individual_paths="false"
       simplify_just_coalesce="false" />
    <inkscape:path-effect
       effect="simplify"
       id="path-effect6-4-9-4"
       is_visible="true"
       lpeversion="1.3"
       threshold="10"
       steps="1"
       smooth_angles="360"
       helper_size="0"
       simplify_individual_paths="false"
       simplify_just_coalesce="false" />
    <inkscape:path-effect
       effect="simplify"
       id="path-effect6-4-9-4-2"
       is_visible="true"
       lpeversion="1.3"
       threshold="10"
       steps="1"
       smooth_angles="360"
       helper_size="0"
       simplify_individual_paths="false"
       simplify_just_coalesce="false" />
    <inkscape:path-effect
       effect="simplify"
       id="path-effect6-0-3-8-0-2"
       is_visible="true"
       lpeversion="1.3"
       threshold="10"
       steps="1"
       smooth_angles="360"
       helper_size="0"
       simplify_individual_paths="false"
       simplify_just_coalesce="false" />
    <inkscape:path-effect
       effect="simplify"
       id="path-effect6-0-3-8-0-2-9"
       is_visible="true"
       lpeversion="1.3"
       threshold="10"
       steps="1"
       smooth_angles="360"
       helper_size="0"
       simplify_individual_paths="false"
       simplify_just_coalesce="false" />
    <inkscape:path-effect
       effect="simplify"
       id="path-effect6-4-9-4-2-4"
       is_visible="true"
       lpeversion="1.3"
       threshold="10"
       steps="1"
       smooth_angles="360"
       helper_size="0"
       simplify_individual_paths="false"
       simplify_just_coalesce="false" />
    <inkscape:path-effect
       effect="simplify"
       id="path-effect7-1"
       is_visible="true"
       lpeversion="1.3"
       threshold="10"
       steps="1"
       smooth_angles="360"
       helper_size="0"
       simplify_individual_paths="false"
       simplify_just_coalesce="false" />
    <inkscape:path-effect
       effect="simplify"
       id="path-effect7-1-6"
       is_visible="true"
       lpeversion="1.3"
       threshold="10"
       steps="1"
       smooth_angles="360"
       helper_size="0"
       simplify_individual_paths="false"
       simplify_just_coalesce="false" />
    <inkscape:path-effect
       effect="simplify"
       id="path-effect7-1-3"
       is_visible="true"
       lpeversion="1.3"
       threshold="10"
       steps="1"
       smooth_angles="360"
       helper_size="0"
       simplify_individual_paths="false"
       simplify_just_coalesce="false" />
  </defs>
  <g
     inkscape:label="Layer 1"
     inkscape:groupmode="layer"
     id="layer1">
    <rect
       style="fill:#ffe3d2;fill-opacity:1;stroke-width:3.96875;stroke-linecap:square;stroke-miterlimit:10"
       id="rect20"
       width="79.375"
       height="166.6875"
       x="0"
       y="0" />
    <rect
       style="fill:#ffccab;fill-opacity:1;stroke-width:3.96875;stroke-linecap:square;stroke-miterlimit:10"
       id="rect20-1"
       width="79.375"
       height="166.6875"
       x="79.375"
       y="0" />
    <rect
       style="fill:#ffe3d2;fill-opacity:1;stroke-width:3.96875;stroke-linecap:square;stroke-miterlimit:10"
       id="rect20-6"
       width="79.375"
       height="166.6875"
       x="158.75"
       y="0" />
    <rect
       style="fill:#ffccab;fill-opacity:1;stroke-width:3.96875;stroke-linecap:square;stroke-miterlimit:10"
       id="rect20-1-1"
       width="79.375"
       height="166.6875"
       x="238.125"
       y="0" />
    <text
       xml:space="preserve"
       style="font-style:normal;font-variant:normal;font-weight:normal;font-stretch:normal;font-size:68.0358px;line-height:325.118px;font-family:nasin-nanpa;-inkscape-font-specification:nasin-nanpa;font-variant-ligatures:discretionary-ligatures;font-variant-numeric:lining-nums proportional-nums;letter-spacing:0px;word-spacing:0px;writing-mode:lr-tb;direction:ltr;fill:#000000;fill-opacity:1;stroke-width:3.96876;stroke-linecap:square;stroke-miterlimit:10"
       x="53.294346"
       y="149.67859"
       id="text1-7-5-1-7-5-6-6-4"><tspan
         sodipodi:role="line"
         id="tspan1-9-9-5-7-9-3-2-1"
         style="font-style:normal;font-variant:normal;font-weight:normal;font-stretch:normal;font-family:nasin-nanpa;-inkscape-font-specification:nasin-nanpa;fill:#000000;fill-opacity:1;stroke-width:3.96876"
         x="53.294346"
         y="149.67859" /></text>
    <rect
       style="fill:#511d00;fill-opacity:1;stroke:none;stroke-width:3.96875;stroke-linecap:square;stroke-miterlimit:10"
       id="rect14"
       width="55.5625"
       height="71.4375"
       x="11.90625"
       y="39.6875"
       ry="3.96875" />
    <rect
       style="fill:#511d00;fill-opacity:1;stroke:none;stroke-width:3.96875;stroke-linecap:square;stroke-miterlimit:10"
       id="rect14-5"
       width="55.5625"
       height="71.4375"
       x="91.28125"
       y="39.6875"
       ry="3.96875" />
    <rect
       style="fill:#ff7800;fill-opacity:1;stroke:none;stroke-width:3.96875;stroke-linecap:square;stroke-miterlimit:10"
       id="rect14-6"
       width="55.5625"
       height="71.4375"
       x="170.65625"
       y="39.6875"
       ry="3.96875" />
    <rect
       style="fill:#ff7800;fill-opacity:1;stroke:none;stroke-width:3.96875;stroke-linecap:square;stroke-miterlimit:10"
       id="rect14-5-9"
       width="55.5625"
       height="71.4375"
       x="250.03125"
       y="39.6875"
       ry="3.96875" />
    <path
       d="m 24.804675,68.857787 h 29.76565 v 29.76565 h -29.76565 z m -5.95313,-2.976565 V 101.6 c 0,1.66688 1.309689,2.97657 2.976565,2.97657 h 35.71878 c 1.666876,0 2.976565,-1.30969 2.976565,-2.97657 V 65.881222 c 0,-1.666876 -1.309689,-2.976565 -2.976565,-2.976565 H 21.82811 c -1.666876,0 -2.976565,1.309689 -2.976565,2.976565 z M 54.570325,50.22449 c -1.012032,0 -2.024064,0.535782 -2.559846,1.488283 l -2.976565,5.179223 c -0.297656,0.47625 -0.416719,1.012032 -0.416719,1.488282 0,1.488283 1.250157,2.976565 2.976565,2.976565 1.012032,0 2.024064,-0.535781 2.559846,-1.488282 l 2.976565,-5.179223 c 0.297656,-0.47625 0.416719,-1.012032 0.416719,-1.488283 0,-1.488282 -1.250157,-2.976565 -2.976565,-2.976565 z M 21.82811,53.201055 c 0,0.476251 0.119063,1.012033 0.416719,1.488283 l 2.976565,5.179223 c 0.535782,0.952501 1.547814,1.488282 2.559846,1.488282 1.726408,0 2.976565,-1.488282 2.976565,-2.976565 0,-0.47625 -0.119063,-1.012032 -0.416719,-1.488282 l -2.976565,-5.179223 c -0.535782,-0.952501 -1.547814,-1.488283 -2.559846,-1.488283 -1.726408,0 -2.976565,1.488283 -2.976565,2.976565 z M 39.6875,46.235893 c -1.666876,0 -2.976565,1.309689 -2.976565,2.976565 v 5.95313 c 0,1.666877 1.309689,2.976565 2.976565,2.976565 1.666876,0 2.976565,-1.309688 2.976565,-2.976565 v -5.95313 c 0,-1.666876 -1.309689,-2.976565 -2.976565,-2.976565 z M 25.995301,79.871042 c 0,0.238125 0.05953,0.535781 0.119063,0.773906 1.607345,5.834068 7.143756,9.941727 13.573136,9.941727 6.42938,0 11.965791,-4.107659 13.573136,-9.941727 0.05953,-0.238125 0.119063,-0.535781 0.119063,-0.773906 0,-1.488283 -1.190626,-2.976565 -2.976565,-2.976565 -1.309689,0 -2.500315,0.892969 -2.857502,2.202658 -0.833439,3.095627 -3.929066,5.53641 -7.858132,5.53641 -3.929066,0 -7.024693,-2.440783 -7.858132,-5.53641 -0.357187,-1.309689 -1.547813,-2.202658 -2.857502,-2.202658 -1.785939,0 -2.976565,1.488282 -2.976565,2.976565 z"
       id="text17"
       style="font-size:59.5313px;line-height:213.359px;font-family:nasin-nanpa;-inkscape-font-specification:nasin-nanpa;font-variant-ligatures:discretionary-ligatures;font-variant-numeric:lining-nums proportional-nums;letter-spacing:0px;word-spacing:0px;fill:#ffffff;stroke-width:3.96875;stroke-linecap:square;stroke-miterlimit:10"
       aria-label="sona&amp;pona" />
    <path
       d="m 268.04936,92.323067 v 11.310943 c 0,1.66688 1.30969,2.97657 2.97657,2.97657 h 13.57313 c 1.66688,0 2.97657,-1.30969 2.97657,-2.97657 V 92.323067 c 0,-1.666876 -1.30969,-2.976565 -2.97657,-2.976565 h -13.57313 c -1.66688,0 -2.97657,1.309689 -2.97657,2.976565 z m 5.95313,2.976565 h 7.62001 v 5.357818 h -7.62001 z m 3.86954,-17.264077 c -1.66688,0 -2.97657,1.309689 -2.97657,2.976565 v 2.976565 c 0,1.666876 1.30969,2.976565 2.97657,2.976565 1.66687,0 2.97656,-1.309689 2.97656,-2.976565 V 81.01212 c 0,-1.666876 -1.30969,-2.976565 -2.97656,-2.976565 z m -10.71564,5.000629 c 0,0.476251 0.11906,1.012032 0.35719,1.488283 l 1.42875,2.559846 c 0.53578,0.9525 1.48828,1.488282 2.50032,1.488282 1.78593,0 3.03609,-1.547814 3.03609,-3.036096 0,-0.476251 -0.17859,-1.012032 -0.41672,-1.488283 l -1.42875,-2.559846 c -0.53578,-0.9525 -1.48828,-1.488282 -2.50031,-1.488282 -1.78594,0 -2.97657,1.547814 -2.97657,3.036096 z m 18.4547,-3.036096 c -1.01203,0 -1.96453,0.535782 -2.50031,1.488282 l -1.48828,2.559846 c -0.23813,0.476251 -0.35719,1.012032 -0.35719,1.488283 0,1.488282 1.19063,3.036096 2.97656,3.036096 1.01204,0 1.96454,-0.535782 2.50032,-1.488282 l 1.42875,-2.559846 c 0.23813,-0.476251 0.41672,-1.012032 0.41672,-1.488283 0,-1.488282 -1.19063,-3.036096 -2.97657,-3.036096 z M 253.99997,55.116005 c 0,0.238125 0.0595,0.535781 0.11907,0.773907 2.79797,9.941727 12.44204,17.085483 23.69345,17.085483 11.25142,0 20.89549,-7.143756 23.69346,-17.085483 0.0595,-0.238126 0.11906,-0.535782 0.11906,-0.773907 0,-1.488283 -1.19062,-2.976565 -2.97656,-2.976565 -1.30969,0 -2.50032,0.892969 -2.8575,2.202658 -2.02407,7.143756 -9.16782,12.680167 -17.97846,12.680167 -8.81063,0 -15.95438,-5.536411 -17.97845,-12.680167 -0.35719,-1.309689 -1.54781,-2.202658 -2.8575,-2.202658 -1.78594,0 -2.97657,1.488282 -2.97657,2.976565 z"
       id="text17-0"
       style="font-size:59.5313px;line-height:213.359px;font-family:nasin-nanpa;-inkscape-font-specification:nasin-nanpa;font-variant-ligatures:discretionary-ligatures;font-variant-numeric:lining-nums proportional-nums;letter-spacing:0px;word-spacing:0px;fill:#ffffff;stroke-width:3.96875;stroke-linecap:square;stroke-miterlimit:10"
       aria-label="sona-pona" />
    <path
       d="m 104.17967,99.21876 c 1.66688,0 2.97657,-1.309688 2.97657,-2.976565 V 57.546851 h 26.78908 c 1.66688,0 2.97657,-1.309689 2.97657,-2.976565 0,-1.666877 -1.30969,-2.976565 -2.97657,-2.976565 h -29.76565 c -1.66687,0 -2.97656,1.309688 -2.97656,2.976565 v 41.671909 c 0,1.666877 1.30969,2.976565 2.97656,2.976565 z"
       id="text17-6"
       style="font-size:59.5313px;line-height:213.359px;font-family:nasin-nanpa;-inkscape-font-specification:nasin-nanpa;font-variant-ligatures:discretionary-ligatures;font-variant-numeric:lining-nums proportional-nums;letter-spacing:0px;word-spacing:0px;fill:#ffffff;stroke-width:3.96875;stroke-linecap:square;stroke-miterlimit:10"
       aria-label="te" />
    <path
       d="m 198.43749,86.320345 c -3.27422,0 -5.95313,2.678908 -5.95313,5.95313 0,3.274221 2.67891,5.95313 5.95313,5.95313 3.27423,0 5.95313,-2.678909 5.95313,-5.95313 0,-3.274222 -2.6789,-5.95313 -5.95313,-5.95313 z m 0,-26.789085 c -3.27422,0 -5.95313,2.678908 -5.95313,5.95313 0,3.274221 2.67891,5.95313 5.95313,5.95313 3.27423,0 5.95313,-2.678909 5.95313,-5.95313 0,-3.274222 -2.6789,-5.95313 -5.95313,-5.95313 z"
       id="text17-8"
       style="font-size:59.5313px;line-height:213.359px;font-family:nasin-nanpa;-inkscape-font-specification:nasin-nanpa;font-variant-ligatures:discretionary-ligatures;font-variant-numeric:lining-nums proportional-nums;letter-spacing:0px;word-spacing:0px;fill:#ffffff;stroke-width:3.96875;stroke-linecap:square;stroke-miterlimit:10"
       aria-label=":" />
    <text
       xml:space="preserve"
       style="font-style:normal;font-variant:normal;font-weight:normal;font-stretch:normal;font-size:13.2883px;line-height:15.875px;font-family:'Aardvark Fixed';-inkscape-font-specification:'Aardvark Fixed';font-variant-ligatures:discretionary-ligatures;font-variant-numeric:lining-nums proportional-nums;letter-spacing:0px;word-spacing:0px;writing-mode:lr-tb;direction:ltr;fill:#000000;fill-opacity:1;stroke-width:3.96875;stroke-linecap:square;stroke-miterlimit:10"
       x="91.28125"
       y="23.8125"
       id="text20"><tspan
         sodipodi:role="line"
         id="tspan20"
         style="stroke-width:3.96875" /></text>
  </g>
</svg>
