<?xml version="1.0" encoding="UTF-8" standalone="no"?>
<!-- Created with Inkscape (http://www.inkscape.org/) -->

<svg
   width="1200"
   height="630"
   viewBox="0 0 317.5 166.6875"
   version="1.1"
   id="svg1"
   inkscape:version="1.4.3 (0d15f75042, 2025-12-25)"
   sodipodi:docname="versions.svg"
   inkscape:export-filename="bitmap.png"
   inkscape:export-xdpi="96"
   inkscape:export-ydpi="96"
   xmlns:inkscape="http://www.inkscape.org/namespaces/inkscape"
   xmlns:sodipodi="http://sodipodi.sourceforge.net/DTD/sodipodi-0.dtd"
   xmlns="http://www.w3.org/2000/svg"
   xmlns:svg="http://www.w3.org/2000/svg">
  <sodipodi:namedview
     id="namedview1"
     pagecolor="#ffffff"
     bordercolor="#eeeeee"
     borderopacity="1"
     inkscape:showpageshadow="0"
     inkscape:pageopacity="0"
     inkscape:pagecheckerboard="0"
     inkscape:deskcolor="#505050"
     inkscape:document-units="mm"
     showgrid="true"
     inkscape:zoom="0.5"
     inkscape:cx="461"
     inkscape:cy="786"
     inkscape:window-width="1920"
     inkscape:window-height="1080"
     inkscape:window-x="0"
     inkscape:window-y="0"
     inkscape:window-maximized="0"
     inkscape:current-layer="layer1"
     inkscape:export-bgcolor="#ffffffff">
    <inkscape:grid
       id="grid1"
       units="px"
       originx="0"
       originy="0"
       spacingx="7.9375"
       spacingy="7.9375"
       empcolor="#000000"
       empopacity="0.30196078"
       color="#000000"
       opacity="0.14901961"
       empspacing="4"
       dotted="false"
       gridanglex="30"
       gridanglez="30"
       visible="true" />
    <inkscape:grid
       id="grid3"
       units="px"
       originx="0"
       originy="0"
       spacingx="3.96875"
       spacingy="3.96875"
       empcolor="#000000"
       empopacity="0.30196078"
       color="#000000"
       opacity="0.10196078"
       empspacing="8"
       dotted="false"
       gridanglex="30"
       gridanglez="30"
       visible="true" />
  </sodipodi:namedview>
  <defs
     id="defs1">
    <inkscape:path-effect
       effect="simplify"
       id="path-effect7"
       is_visible="true"
       lpeversion="1.3"
       threshold="10,869565"
       steps="1"
       smooth_angles="360"
       helper_size="0"
       simplify_individual_paths="false"
       simplify_just_coalesce="false" />
    <inkscape:path-effect
       effect="simplify"
       id="path-effect6"
       is_visible="true"
       lpeversion="1.3"
       threshold="10,869565"
       steps="1"
       smooth_angles="360"
       helper_size="0"
       simplify_individual_paths="false"
       simplify_just_coalesce="false" />
    <inkscape:path-effect
       effect="simplify"
       id="path-effect5"
       is_visible="true"
       lpeversion="1.3"
       threshold="10,869565"
       steps="1"
       smooth_angles="360"
       helper_size="0"
       simplify_individual_paths="false"
       simplify_just_coalesce="false" />
    <inkscape:path-effect
       effect="simplify"
       id="path-effect4"
       is_visible="true"
       lpeversion="1.3"
       threshold="10,869565"
       steps="1"
       smooth_angles="360"
       helper_size="0"
       simplify_individual_paths="false"
       simplify_just_coalesce="false" />
    <inkscape:path-effect
       effect="simplify"
       id="path-effect3"
       is_visible="true"
       lpeversion="1.3"
       threshold="10,869565"
       steps="1"
       smooth_angles="360"
       helper_size="0"
       simplify_individual_paths="false"
       simplify_just_coalesce="false" />
    <inkscape:path-effect
       effect="simplify"
       id="path-effect2"
       is_visible="true"
       lpeversion="1.3"
       threshold="10,869565"
       steps="1"
       smooth_angles="360"
       helper_size="0"
       simplify_individual_paths="false"
       simplify_just_coalesce="false" />
    <inkscape:path-effect
       effect="simplify"
       id="path-effect1"
       is_visible="true"
       lpeversion="1.3"
       threshold="10,869565"
       steps="1"
       smooth_angles="360"
       helper_size="0"
       simplify_individual_paths="false"
       simplify_just_coalesce="false" />
    <inkscape:path-effect
       effect="simplify"
       id="path-effect4-5"
       is_visible="true"
       lpeversion="1.3"
       threshold="10"
       steps="1"
       smooth_angles="360"
       helper_size="0"
       simplify_individual_paths="false"
       simplify_just_coalesce="false" />
    <inkscape:path-effect
       effect="simplify"
       id="path-effect6-0"
       is_visible="true"
       lpeversion="1.3"
       threshold="10"
       steps="1"
       smooth_angles="360"
       helper_size="0"
       simplify_individual_paths="false"
       simplify_just_coalesce="false" />
    <inkscape:path-effect
       effect="simplify"
       id="path-effect6-4"
       is_visible="true"
       lpeversion="1.3"
       threshold="10"
       steps="1"
       smooth_angles="360"
       helper_size="0"
       simplify_individual_paths="false"
       simplify_just_coalesce="false" />
    <inkscape:path-effect
       effect="simplify"
       id="path-effect6-0-3"
       is_visible="true"
       lpeversion="1.3"
       threshold="10"
       steps="1"
       smooth_angles="360"
       helper_size="0"
       simplify_individual_paths="false"
       simplify_just_coalesce="false" />
    <inkscape:path-effect
       effect="simplify"
       id="path-effect6-0-3-8"
       is_visible="true"
       lpeversion="1.3"
       threshold="10"
       steps="1"
       smooth_angles="360"
       helper_size="0"
       simplify_individual_paths="false"
       simplify_just_coalesce="false" />
    <inkscape:path-effect
       effect="simplify"
       id="path-effect6-4-9"
       is_visible="true"
       lpeversion="1.3"
       threshold="10"
       steps="1"
       smooth_angles="360"
       helper_size="0"
       simplify_individual_paths="false"
       simplify_just_coalesce="false" />
    <inkscape:path-effect
       effect="simplify"
       id="path-effect6-0-3-8-0"
       is_visible="true"
       lpeversion="1.3"
       threshold="10"
       steps="1"
       smooth_angles="360"
       helper_size="0"
       simplify_individual_paths="false"
       simplify_just_coalesce="false" />
    <inkscape:path-effect
       effect="simplify"
       id="path-effect6-4-9-4"
       is_visible="true"
       lpeversion="1.3"
       threshold="10"
       steps="1"
       smooth_angles="360"
       helper_size="0"
       simplify_individual_paths="false"
       simplify_just_coalesce="false" />
    <inkscape:path-effect
       effect="simplify"
       id="path-effect6-4-9-4-2"
       is_visible="true"
       lpeversion="1.3"
       threshold="10"
       steps="1"
       smooth_angles="360"
       helper_size="0"
       simplify_individual_paths="false"
       simplify_just_coalesce="false" />
    <inkscape:path-effect
       effect="simplify"
       id="path-effect6-0-3-8-0-2"
       is_visible="true"
       lpeversion="1.3"
       threshold="10"
       steps="1"
       smooth_angles="360"
       helper_size="0"
       simplify_individual_paths="false"
       simplify_just_coalesce="false" />
    <inkscape:path-effect
       effect="simplify"
       id="path-effect6-0-3-8-0-2-9"
       is_visible="true"
       lpeversion="1.3"
       threshold="10"
       steps="1"
       smooth_angles="360"
       helper_size="0"
       simplify_individual_paths="false"
       simplify_just_coalesce="false" />
    <inkscape:path-effect
       effect="simplify"
       id="path-effect6-4-9-4-2-4"
       is_visible="true"
       lpeversion="1.3"
       threshold="10"
       steps="1"
       smooth_angles="360"
       helper_size="0"
       simplify_individual_paths="false"
       simplify_just_coalesce="false" />
    <inkscape:path-effect
       effect="simplify"
       id="path-effect7-1"
       is_visible="true"
       lpeversion="1.3"
       threshold="10"
       steps="1"
       smooth_angles="360"
       helper_size="0"
       simplify_individual_paths="false"
       simplify_just_coalesce="false" />
    <inkscape:path-effect
       effect="simplify"
       id="path-effect7-1-6"
       is_visible="true"
       lpeversion="1.3"
       threshold="10"
       steps="1"
       smooth_angles="360"
       helper_size="0"
       simplify_individual_paths="false"
       simplify_just_coalesce="false" />
    <inkscape:path-effect
       effect="simplify"
       id="path-effect7-1-3"
       is_visible="true"
       lpeversion="1.3"
       threshold="10"
       steps="1"
       smooth_angles="360"
       helper_size="0"
       simplify_individual_paths="false"
       simplify_just_coalesce="false" />
  </defs>
  <g
     inkscape:label="Layer 1"
     inkscape:groupmode="layer"
     id="layer1">
    <path
       id="path1-7-9"
       style="fill:#ffccab;fill-opacity:1;stroke-width:3.96875;stroke-linecap:square;stroke-miterlimit:10"
       d="m 222.25,115.09375 a 31.75,31.75 0 0 0 -31.75,31.75 31.75,31.75 0 0 0 6.96495,19.84375 h 49.5701 A 31.75,31.75 0 0 0 254,146.84375 a 31.75,31.75 0 0 0 -31.75,-31.75 z" />
    <path
       id="path1-8-7-1-1-6-6-8-1"
       style="fill:#ffccab;fill-opacity:1;stroke-width:3.96875;stroke-linecap:square;stroke-miterlimit:10"
       d="M 31.75,150.8125 A 31.75,31.75 0 0 0 4.25349,166.6875 H 59.24651 A 31.75,31.75 0 0 0 31.75,150.8125 Z" />
    <circle
       style="fill:#ffccab;fill-opacity:1;stroke-width:3.96875;stroke-linecap:square;stroke-miterlimit:10"
       id="path1"
       cx="31.75"
       cy="39.6875"
       r="31.75" />
    <path
       d="m 12.935127,18.520807 h 37.629681 v 42.333391 h -3.42088 V 44.391213 q -3.378119,3.207075 -7.26937,3.207075 -3.335358,0 -6.41415,-2.223572 v 15.479482 h -3.42088 V 42.338685 q -1.710441,-1.624918 -3.164315,-2.437377 -1.411113,-0.85522 -3.249836,-0.85522 -1.71044,0 -3.42088,1.154547 -1.71044,1.111786 -2.480138,2.095289 -0.769698,0.983503 -1.368352,1.924245 v 16.634029 h -3.42088 z m 26.939431,25.656601 q 1.71044,0 3.42088,-1.111786 1.71044,-1.154547 2.480138,-2.13805 0.769698,-0.983503 1.368352,-1.924245 V 21.941687 H 16.356007 v 16.890596 q 3.378119,-3.207075 7.26937,-3.207075 1.539396,0 2.864987,0.384849 1.368352,0.384849 2.608421,1.240069 1.24007,0.812459 1.924246,1.411113 0.726937,0.555893 1.924245,1.71044 1.368352,1.325591 2.13805,1.967006 0.769698,0.641415 2.095289,1.240069 1.325591,0.598654 2.693943,0.598654 z M 21.359044,30.62217 q -0.726937,-0.769698 -0.726937,-1.838723 0,-1.069025 0.726937,-1.795962 0.769698,-0.769698 1.838723,-0.769698 1.069025,0 1.795962,0.769698 0.769698,0.726937 0.769698,1.795962 0,1.069025 -0.769698,1.838723 -0.726937,0.726937 -1.795962,0.726937 -1.069025,0 -1.838723,-0.726937 z m 8.552201,0 q -0.726938,-0.769698 -0.726938,-1.838723 0,-1.069025 0.726938,-1.795962 0.769698,-0.769698 1.838723,-0.769698 1.069025,0 1.795962,0.769698 0.769698,0.726937 0.769698,1.795962 0,1.069025 -0.769698,1.838723 -0.726937,0.726937 -1.795962,0.726937 -1.069025,0 -1.838723,-0.726937 z m 8.5522,0 q -0.726937,-0.769698 -0.726937,-1.838723 0,-1.069025 0.726937,-1.795962 0.769698,-0.769698 1.838723,-0.769698 1.069025,0 1.795962,0.769698 0.769698,0.726937 0.769698,1.795962 0,1.069025 -0.769698,1.838723 -0.726937,0.726937 -1.795962,0.726937 -1.069025,0 -1.838723,-0.726937 z"
       id="text1"
       style="font-weight:500;font-size:51.3132px;line-height:245.207px;font-family:'Fairfax Pona HD';-inkscape-font-specification:'Fairfax Pona HD Medium';font-variant-ligatures:discretionary-ligatures;font-variant-numeric:lining-nums proportional-nums;letter-spacing:0px;word-spacing:0px;fill:#511d00;stroke-width:3.96876;stroke-linecap:square;stroke-miterlimit:10"
       aria-label="linluwi" />
    <path
       id="path1-7"
       style="fill:#ffccab;fill-opacity:1;stroke-width:3.96875;stroke-linecap:square;stroke-miterlimit:10"
       d="M 95.25 115.09375 A 31.75 31.75 0 0 0 63.5 146.84375 A 31.75 31.75 0 0 0 70.46495 166.6875 L 120.03505 166.6875 A 31.75 31.75 0 0 0 127 146.84375 A 31.75 31.75 0 0 0 95.25 115.09375 z " />
    <path
       id="text1-3"
       style="font-weight:500;font-size:51.3132px;line-height:245.207px;font-family:'Fairfax Pona HD';-inkscape-font-specification:'Fairfax Pona HD Medium';font-variant-ligatures:discretionary-ligatures;font-variant-numeric:lining-nums proportional-nums;letter-spacing:0px;word-spacing:0px;fill:#511d00;stroke-width:3.96876;stroke-linecap:square;stroke-miterlimit:10"
       d="M 100.50963 122.85503 L 90.161422 138.33419 L 73.99755 135.6403 L 84.388647 148.63951 L 73.142306 159.88585 L 89.263285 157.19196 L 89.263285 166.6875 L 92.595898 166.6875 L 99.526225 159.75769 L 106.45603 166.6875 L 109.94419 166.6875 L 107.95 154.75438 L 120.77816 154.75438 L 112.35438 146.37349 L 120.3079 133.11746 L 103.03247 138.03499 L 100.50963 122.85503 z M 98.542306 131.92011 L 100.29569 142.39648 L 112.9528 138.76207 L 108.07816 146.88664 L 112.48254 151.33392 L 103.93061 151.33392 L 105.51242 160.86925 L 99.526225 154.88305 L 92.684265 161.7245 L 92.684265 153.17256 L 83.148413 154.75438 L 89.00697 148.89634 L 82.293168 140.51494 L 91.786129 142.09727 L 98.542306 131.92011 z " />
    <path
       id="path1-7-1"
       style="fill:#ffccab;fill-opacity:1;stroke-width:3.96875;stroke-linecap:square;stroke-miterlimit:10"
       d="M 63.74908 0 A 31.75 31.75 0 0 0 63.5 3.96875 A 31.75 31.75 0 0 0 95.25 35.71875 A 31.75 31.75 0 0 0 127 3.96875 A 31.75 31.75 0 0 0 126.75092 0 L 63.74908 0 z " />
    <path
       id="text1-3-9"
       style="font-weight:500;font-size:51.3132px;line-height:245.207px;font-family:'Fairfax Pona HD';-inkscape-font-specification:'Fairfax Pona HD Medium';font-variant-ligatures:discretionary-ligatures;font-variant-numeric:lining-nums proportional-nums;letter-spacing:0px;word-spacing:0px;fill:#511d00;stroke-width:3.96876;stroke-linecap:square;stroke-miterlimit:10"
       d="M 83.48276 0 C 83.491641 0.20940732 83.496195 0.42070783 83.496195 0.63355306 C 83.496195 0.94713371 83.467426 1.4459265 83.410413 2.1301025 C 82.982803 6.3206807 80.944479 9.627304 77.29554 12.050427 C 76.696886 12.364008 76.340901 12.577702 76.226872 12.691732 L 77.937362 15.642456 L 78.065519 15.599565 C 78.151041 15.54255 78.279465 15.471663 78.450509 15.386141 C 78.65006 15.272112 78.834986 15.158072 79.00603 15.044043 C 81.001544 14.046286 83.054251 13.546977 85.163794 13.546977 C 87.073785 13.546977 88.912282 13.946114 90.679736 14.74432 C 91.905552 15.285959 93.003309 15.970195 93.972559 16.796908 C 94.970315 17.62362 95.739822 18.478914 96.281462 19.362642 C 96.851608 20.274877 97.279514 21.058768 97.564587 21.714437 C 97.849661 22.370106 98.077739 23.011706 98.248783 23.638867 L 98.334049 24.23728 C 98.391065 24.436832 98.4337 24.579639 98.462207 24.665161 L 98.505098 24.83621 L 101.84081 24.152014 C 101.58425 22.213515 101.45582 21.115758 101.45582 20.859192 C 101.45582 17.381297 102.61008 14.345388 104.91918 11.751221 C 107.62738 8.7579508 111.00592 7.2615723 115.05396 7.2615723 C 115.1965 7.2615723 115.42458 7.2754396 115.73816 7.3039469 C 116.05174 7.3324543 116.33632 7.3612225 116.59288 7.3897298 L 116.93498 7.4326213 C 116.99199 7.0620259 117.0634 6.4918294 117.14892 5.7221313 C 117.23442 4.9524333 117.29144 4.3822368 117.31997 4.0116414 L 117.10603 4.0116414 C 117.02051 3.9831341 116.87822 3.9543659 116.67867 3.9258586 C 116.47911 3.8973512 116.27928 3.8829671 116.07974 3.8829671 C 115.42406 3.7689378 114.75421 3.5983956 114.07004 3.3703369 C 113.41437 3.1422782 112.6161 2.8001603 111.67535 2.344043 C 110.73461 1.8879256 109.79404 1.2175571 108.8533 0.33382975 C 108.74061 0.22465454 108.62972 0.113526 108.52051 0 L 104.17504 0 C 105.58103 2.0345665 107.2545 3.6569729 109.1954 4.8668864 C 106.51572 5.8361357 104.24931 7.3612823 102.39633 9.4423177 C 100.51485 11.494846 99.217782 13.903539 98.505098 16.66875 C 97.022717 14.758759 95.127201 13.190976 92.818107 11.965161 C 90.509013 10.739346 87.957513 10.126514 85.163794 10.126514 C 84.650661 10.126514 84.265908 10.140382 84.009342 10.168888 C 85.947842 7.2896477 86.917175 4.0970637 86.917175 0.59066162 C 86.917175 0.39318067 86.913376 0.19626493 86.906323 0 L 83.48276 0 z " />
    <circle
       style="fill:#511d00;fill-opacity:1;stroke-width:3.96875;stroke-linecap:square;stroke-miterlimit:10"
       id="path1-8"
       cx="31.75"
       cy="111.125"
       r="31.75" />
    <circle
       style="fill:#ffccab;fill-opacity:1;stroke-width:3.96875;stroke-linecap:square;stroke-miterlimit:10"
       id="path1-6"
       cx="285.75"
       cy="39.6875"
       r="31.75" />
    <path
       d="m 300.28871,33.059551 q 0,5.55893 -3.67745,9.706748 -3.67745,4.105056 -9.15085,4.746471 v 4.789232 h 8.97981 v 3.42088 h -8.97981 v 5.13132 h -3.42088 v -5.13132 h -8.97981 v -3.42088 h 8.97981 V 47.51277 q -5.47341,-0.641415 -9.15086,-4.746471 -3.67744,-4.147818 -3.67744,-9.706748 0,-6.029301 4.23333,-10.26264 4.2761,-4.2761 10.30541,-4.2761 6.0293,0 10.26264,4.2761 4.2761,4.233339 4.2761,10.26264 z m -22.40677,-7.825263 q -3.24983,3.249836 -3.24983,7.825263 0,4.575427 3.24983,7.868025 3.2926,3.249836 7.86803,3.249836 4.57542,0 7.82526,-3.249836 3.2926,-3.292598 3.2926,-7.868025 0,-4.575427 -3.2926,-7.825263 -3.24984,-3.292597 -7.82526,-3.292597 -4.57543,0 -7.86803,3.292597 z"
       id="text1-8"
       style="font-weight:500;font-size:51.3132px;line-height:245.207px;font-family:'Fairfax Pona HD';-inkscape-font-specification:'Fairfax Pona HD Medium';font-variant-ligatures:discretionary-ligatures;font-variant-numeric:lining-nums proportional-nums;letter-spacing:0px;word-spacing:0px;fill:#511d00;stroke-width:3.96876;stroke-linecap:square;stroke-miterlimit:10"
       aria-label="meli2" />
    <circle
       style="fill:#511d00;fill-opacity:1;stroke-width:3.96875;stroke-linecap:square;stroke-miterlimit:10"
       id="path1-8-4"
       cx="285.75"
       cy="111.125"
       r="31.75" />
    <circle
       style="fill:#511d00;stroke-width:3.96875;stroke-linecap:square;stroke-miterlimit:10"
       id="path1-8-7"
       cx="95.25"
       cy="75.40625"
       r="31.75" />
    <path
       d="m 43.72308,111.80655 q 3.37812,0 5.729975,2.39462 2.394616,2.35185 2.394616,5.72997 0,3.37812 -2.394616,5.72998 -2.351855,2.39461 -5.729975,2.39461 -2.907748,0 -5.13132,-1.83872 -2.223572,-1.79596 -2.822226,-4.57543 h -8.039068 q -0.598654,2.77947 -2.822226,4.57543 -2.223572,1.83872 -5.13132,1.83872 -3.37812,0 -5.772736,-2.39461 -2.351855,-2.35186 -2.351855,-5.72998 0,-3.37812 2.351855,-5.72997 2.394616,-2.39462 5.772736,-2.39462 1.28283,0 2.522899,0.38485 l 3.976773,-6.799 q -2.651182,-2.43737 -2.651182,-5.986538 0,-3.378119 2.351855,-5.729974 2.394616,-2.394616 5.772735,-2.394616 3.378119,0 5.729974,2.394616 2.394616,2.351855 2.394616,5.729974 0,3.549168 -2.651182,5.986538 l 3.976773,6.799 q 1.240069,-0.38485 2.522899,-0.38485 z M 35.085358,96.070504 Q 33.717006,94.702152 31.75,94.702152 q -1.967006,0 -3.335358,1.368352 -1.368352,1.368352 -1.368352,3.335358 0,1.967008 1.368352,3.335358 1.368352,1.36835 3.335358,1.36835 1.967006,0 3.335358,-1.36835 1.368352,-1.36835 1.368352,-3.335358 0,-1.967006 -1.368352,-3.335358 z M 16.441561,123.2665 q 1.368352,1.36835 3.335359,1.36835 1.967006,0 3.335358,-1.36835 1.368352,-1.36835 1.368352,-3.33536 0,-1.967 -1.368352,-3.33535 -1.368352,-1.36836 -3.335358,-1.36836 -1.967007,0 -3.335359,1.36836 -1.368352,1.36835 -1.368352,3.33535 0,1.96701 1.368352,3.33536 z m 19.327973,-5.0458 q 0.513132,-2.5229 2.480138,-4.2761 l -3.976773,-6.799 q -1.240069,0.38485 -2.522899,0.38485 -1.28283,0 -2.522899,-0.38485 l -3.976773,6.799 q 1.967006,1.7532 2.480138,4.2761 z m 4.618188,5.0458 q 1.368352,1.36835 3.335358,1.36835 1.967007,0 3.335359,-1.36835 1.368352,-1.36835 1.368352,-3.33536 0,-1.967 -1.368352,-3.33535 -1.368352,-1.36836 -3.335359,-1.36836 -1.967006,0 -3.335358,1.36836 -1.368352,1.36835 -1.368352,3.33535 0,1.96701 1.368352,3.33536 z"
       id="text1-7-5"
       style="font-weight:500;font-size:51.3132px;line-height:245.207px;font-family:'Fairfax Pona HD';-inkscape-font-specification:'Fairfax Pona HD Medium';font-variant-ligatures:discretionary-ligatures;font-variant-numeric:lining-nums proportional-nums;letter-spacing:0px;word-spacing:0px;fill:#ffffff;stroke-width:3.96876;stroke-linecap:square;stroke-miterlimit:10"
       aria-label="linluwi4" />
    <path
       d="m 220.53953,161.28896 v -12.8283 h 3.42088 v 12.8283 z m 8.12459,-17.53201 v -3.42088 h 12.8283 v 3.42088 z m -25.65661,0 v -3.42088 h 12.82831 v 3.42088 z"
       id="text1-3-4"
       style="font-weight:500;font-size:51.3132px;line-height:245.207px;font-family:'Fairfax Pona HD';-inkscape-font-specification:'Fairfax Pona HD Medium';font-variant-ligatures:discretionary-ligatures;font-variant-numeric:lining-nums proportional-nums;letter-spacing:0px;word-spacing:0px;fill:#511d00;stroke-width:3.96876;stroke-linecap:square;stroke-miterlimit:10"
       aria-label="majuna" />
    <path
       id="path1-7-1-2"
       style="fill:#ffccab;fill-opacity:1;stroke-width:3.96875;stroke-linecap:square;stroke-miterlimit:10"
       d="M 190.74908 0 A 31.75 31.75 0 0 0 190.5 3.96875 A 31.75 31.75 0 0 0 222.25 35.71875 A 31.75 31.75 0 0 0 254 3.96875 A 31.75 31.75 0 0 0 253.75092 0 L 190.74908 0 z " />
    <path
       id="text1-3-9-5"
       style="font-weight:500;font-size:51.3132px;line-height:245.207px;font-family:'Fairfax Pona HD';-inkscape-font-specification:'Fairfax Pona HD Medium';font-variant-ligatures:discretionary-ligatures;font-variant-numeric:lining-nums proportional-nums;letter-spacing:0px;word-spacing:0px;fill:#511d00;stroke-width:3.96876;stroke-linecap:square;stroke-miterlimit:10"
       d="M 210.53134 0 C 210.18169 1.4684167 209.96853 3.0050296 209.8921 4.6100545 L 201.72464 4.6100545 L 201.72464 8.0310343 L 209.8921 8.0310343 C 209.97762 9.8269967 210.23395 11.537586 210.66156 13.162504 L 204.29037 13.162504 L 204.29037 16.583484 L 211.81653 16.583484 C 212.81428 18.9781 214.18224 21.002039 215.92119 22.655465 C 217.68864 24.30889 219.79837 25.135417 222.25 25.135417 C 224.01745 25.135417 225.72804 24.593988 227.38147 23.51071 C 229.57654 22.028328 231.34363 19.719291 232.68347 16.583484 L 240.20963 16.583484 L 240.20963 13.162504 L 233.83844 13.162504 C 234.26605 11.537586 234.52238 9.8269967 234.6079 8.0310343 L 242.77536 8.0310343 L 242.77536 4.6100545 L 234.6079 4.6100545 C 234.53147 3.0050296 234.31831 1.4684167 233.96866 0 L 230.43348 0 C 230.80893 1.4237422 231.06002 2.9603551 231.18692 4.6100545 L 213.31308 4.6100545 C 213.43998 2.9603551 213.69107 1.4237422 214.06652 0 L 210.53134 0 z M 213.31308 8.0310343 L 231.18692 8.0310343 C 231.04438 9.8840113 230.74542 11.594601 230.2893 13.162504 L 214.2107 13.162504 C 213.75458 11.594601 213.45562 9.8840113 213.31308 8.0310343 z M 215.62198 16.583484 L 228.87802 16.583484 C 228.821 16.697513 228.73521 16.854188 228.62119 17.053739 C 228.50714 17.281798 228.42187 17.438473 228.36487 17.523995 C 226.59742 20.317714 224.55909 21.714437 222.25 21.714437 C 219.94091 21.714437 217.90258 20.317714 216.13513 17.523995 C 216.07811 17.409966 215.99284 17.238907 215.87881 17.010848 C 215.76477 16.811297 215.67898 16.669006 215.62198 16.583484 z " />
    <circle
       style="fill:#511d00;stroke-width:3.96875;stroke-linecap:square;stroke-miterlimit:10"
       id="path1-8-7-7"
       cx="222.25"
       cy="75.40625"
       r="31.75" />
    <path
       d="m 222.25,58.943258 q 5.38789,0 9.02257,5.815496 1.88149,2.907748 2.73671,7.012804 h 7.91078 v 3.420881 h -7.39765 q 0.12828,1.28283 0.12828,2.56566 0,1.28283 -0.12828,2.56566 h 7.39765 v 3.42088 h -7.91078 q -1.75321,7.868024 -6.62796,11.203382 -2.48014,1.624918 -5.13132,1.624918 -5.38789,0 -9.02257,-5.815496 -1.88149,-2.907748 -2.73671,-7.012804 h -7.91078 v -3.42088 h 7.39765 q -0.12828,-1.28283 -0.12828,-2.56566 0,-1.28283 0.12828,-2.56566 h -7.39765 v -3.420881 h 7.91078 q 1.75321,-7.868024 6.62796,-11.203382 2.48014,-1.624918 5.13132,-1.624918 z m -6.11482,7.611458 q -1.41112,2.266333 -2.13805,5.216842 h 16.50574 q -0.72693,-2.950509 -2.13805,-5.216842 -2.65118,-4.190578 -6.11482,-4.190578 -3.46364,0 -6.11482,4.190578 z m 12.22964,22.406765 q 1.41112,-2.266333 2.13805,-5.216842 h -16.50574 q 0.72693,2.950509 2.13805,5.216842 2.65118,4.190578 6.11482,4.190578 3.46364,0 6.11482,-4.190578 z m 2.73671,-8.637722 q 0.12828,-1.28283 0.12828,-2.56566 0,-1.28283 -0.12828,-2.56566 h -17.70306 q -0.12828,1.28283 -0.12828,2.56566 0,1.28283 0.12828,2.56566 z m -28.99196,-18.77208 q -1.24007,-1.28283 -1.24007,-3.036031 0,-1.753201 1.24007,-2.99327 1.28283,-1.28283 3.03603,-1.28283 1.7532,0 2.99327,1.28283 1.28283,1.240069 1.28283,2.99327 0,1.753201 -1.28283,3.036031 -1.24007,1.240069 -2.99327,1.240069 -1.7532,0 -3.03603,-1.240069 z m 34.2088,0 q -1.24007,-1.28283 -1.24007,-3.036031 0,-1.753201 1.24007,-2.99327 1.28283,-1.28283 3.03603,-1.28283 1.7532,0 2.99327,1.28283 1.28283,1.240069 1.28283,2.99327 0,1.753201 -1.28283,3.036031 -1.24007,1.240069 -2.99327,1.240069 -1.7532,0 -3.03603,-1.240069 z"
       id="text1-7-5-4"
       style="font-weight:500;font-size:51.3132px;line-height:245.207px;font-family:'Fairfax Pona HD';-inkscape-font-specification:'Fairfax Pona HD Medium';font-variant-ligatures:discretionary-ligatures;font-variant-numeric:lining-nums proportional-nums;letter-spacing:0px;word-spacing:0px;fill:#ffffff;stroke-width:3.96876;stroke-linecap:square;stroke-miterlimit:10"
       aria-label="akesi2" />
    <circle
       style="fill:#511d00;fill-opacity:1;stroke-width:3.96875;stroke-linecap:square;stroke-miterlimit:10"
       id="path1-7-0"
       cx="158.75"
       cy="111.12499"
       r="31.75" />
    <path
       d="M 118.16986,93.373911 H 72.330069 L 95.249966,49.501124 Z M 77.974521,89.953031 H 112.52541 L 95.249966,56.856016 Z m 26.811149,-5.13132 H 85.714262 l 9.535704,-18.216187 z m -13.426955,-3.42088 h 7.782502 l -3.891251,-7.440414 z"
       id="text1-3-3"
       style="font-weight:500;font-size:51.3132px;line-height:245.207px;font-family:'Fairfax Pona HD';-inkscape-font-specification:'Fairfax Pona HD Medium';font-variant-ligatures:discretionary-ligatures;font-variant-numeric:lining-nums proportional-nums;letter-spacing:0px;word-spacing:0px;fill:#ffffff;stroke-width:3.96876;stroke-linecap:square;stroke-miterlimit:10"
       aria-label="kiki4" />
    <path
       d="M 306.70288,130.96878 H 303.282 v -21.3805 q 0,-7.26937 -5.13132,-12.400691 -5.13132,-5.13132 -12.4007,-5.13132 -4.74647,0 -8.80876,2.351855 -4.01954,2.351855 -6.37139,6.414146 -2.35186,4.01954 -2.35186,8.76601 v 21.3805 h -3.42088 v -21.3805 q 0,-8.63772 6.15759,-14.795307 6.15758,-6.157584 14.7953,-6.157584 8.63773,0 14.79531,6.157584 6.15759,6.157587 6.15759,14.795307 z m -12.18689,-12.61449 q -3.63469,3.63468 -8.76601,3.63468 -5.13132,0 -8.766,-3.63468 -3.63469,-3.63469 -3.63469,-8.76601 0,-5.13132 3.63469,-8.76601 3.63468,-3.634681 8.766,-3.634681 5.13132,0 8.76601,3.634681 3.63469,3.63469 3.63469,8.76601 0,5.13132 -3.63469,8.76601 z m -2.43738,-15.09464 q -2.60842,-2.65118 -6.32863,-2.65118 -3.7202,0 -6.37138,2.65118 -2.60843,2.60842 -2.60843,6.32863 0,3.72021 2.60843,6.37139 2.65118,2.60842 6.37138,2.60842 3.72021,0 6.32863,-2.60842 2.65119,-2.65118 2.65119,-6.37139 0,-3.72021 -2.65119,-6.32863 z"
       id="text1-3-3-6"
       style="font-weight:500;font-size:51.3132px;line-height:245.207px;font-family:'Fairfax Pona HD';-inkscape-font-specification:'Fairfax Pona HD Medium';font-variant-ligatures:discretionary-ligatures;font-variant-numeric:lining-nums proportional-nums;letter-spacing:0px;word-spacing:0px;fill:#ffffff;stroke-width:3.96876;stroke-linecap:square;stroke-miterlimit:10"
       aria-label="meli" />
    <circle
       style="fill:#ffccab;fill-opacity:1;stroke-width:3.96875;stroke-linecap:square;stroke-miterlimit:10"
       id="path1-8-7-1"
       cx="158.75"
       cy="39.687492"
       r="31.75" />
    <path
       id="path1-8-7-1-1-6-6"
       style="fill:#ffccab;fill-opacity:1;stroke-width:3.96875;stroke-linecap:square;stroke-miterlimit:10"
       d="M 285.75 150.8125 A 31.75 31.75 0 0 0 258.25349 166.6875 L 313.24651 166.6875 A 31.75 31.75 0 0 0 285.75 150.8125 z " />
    <path
       id="path1-8-7-1-1-6-6-8"
       style="fill:#ffccab;fill-opacity:1;stroke-width:3.96875;stroke-linecap:square;stroke-miterlimit:10"
       d="m 158.75,150.8125 a 31.75,31.75 0 0 0 -27.49651,15.875 h 54.99302 A 31.75,31.75 0 0 0 158.75,150.8125 Z" />
    <path
       d="m 180.2588,55.795038 -2.73671,-1.539396 q -9.19361,-4.70371 -18.77208,-4.70371 -9.57846,0 -18.77208,4.70371 l -2.7367,1.539396 -1.71044,-2.950509 2.7367,-1.582157 q 8.59496,-5.516169 13.42696,-13.897326 4.87475,-8.466678 5.34512,-18.601035 v -3.121553 h 3.42088 v 3.121553 q 0.47037,10.134357 5.34513,18.601035 4.83199,8.381157 13.42695,13.897326 l 2.73671,1.582157 z m -21.50879,-26.46906 q -1.45387,5.216842 -4.06229,9.749508 -2.5229,4.404384 -6.41415,8.423918 5.4734,-1.368352 10.47644,-1.368352 5.00304,0 10.47645,1.368352 -3.89125,-4.019534 -6.41415,-8.423918 -2.60842,-4.532666 -4.0623,-9.749508 z"
       id="text1-7-5-0"
       style="font-weight:500;font-size:51.3132px;line-height:245.207px;font-family:'Fairfax Pona HD';-inkscape-font-specification:'Fairfax Pona HD Medium';font-variant-ligatures:discretionary-ligatures;font-variant-numeric:lining-nums proportional-nums;letter-spacing:0px;word-spacing:0px;fill:#511d00;stroke-width:3.96876;stroke-linecap:square;stroke-miterlimit:10"
       aria-label="kiki3" />
    <path
       id="text1-7-5-0-2"
       style="font-weight:500;font-size:51.3132px;line-height:245.207px;font-family:'Fairfax Pona HD';-inkscape-font-specification:'Fairfax Pona HD Medium';font-variant-ligatures:discretionary-ligatures;font-variant-numeric:lining-nums proportional-nums;letter-spacing:0px;word-spacing:0px;fill:#511d00;stroke-width:3.96876;stroke-linecap:square;stroke-miterlimit:10"
       d="M 158.75 161.60977 C 157.92329 161.60977 157.38186 162.00892 157.12529 162.80712 L 155.86025 166.6875 L 161.63975 166.6875 L 160.37471 162.80712 C 160.11814 162.00892 159.57671 161.60977 158.75 161.60977 z " />
    <path
       id="text1-7-3"
       style="font-weight:500;font-size:51.3132px;line-height:245.207px;font-family:'Fairfax Pona HD';-inkscape-font-specification:'Fairfax Pona HD Medium';font-variant-ligatures:discretionary-ligatures;font-variant-numeric:lining-nums proportional-nums;letter-spacing:0px;word-spacing:0px;fill:#511d00;stroke-width:3.96876;stroke-linecap:square;stroke-miterlimit:10"
       d="M 283.61215 161.60977 C 279.62112 161.60977 276.19994 163.03475 273.34921 165.88548 C 273.08677 166.14792 272.83662 166.4154 272.59835 166.6875 L 277.76599 166.6875 C 279.49948 165.58282 281.44826 165.03024 283.61215 165.03024 C 285.77604 165.03024 287.71745 165.58282 289.4366 166.6875 L 294.62543 166.6875 C 294.38715 166.4154 294.137 166.14792 293.87457 165.88548 C 291.02383 163.03475 287.60317 161.60977 283.61215 161.60977 z " />
    <path
       id="text1-7"
       style="font-weight:500;font-size:51.3132px;line-height:245.207px;font-family:'Fairfax Pona HD';-inkscape-font-specification:'Fairfax Pona HD Medium';font-variant-ligatures:discretionary-ligatures;font-variant-numeric:lining-nums proportional-nums;letter-spacing:0px;word-spacing:0px;fill:#511d00;stroke-width:3.96876;stroke-linecap:square;stroke-miterlimit:10"
       d="M 30.03951 158.75 L 30.03951 166.6875 L 33.46049 166.6875 L 33.46049 158.75 L 30.03951 158.75 z M 17.980815 161.82888 L 15.586129 164.22357 L 18.050061 166.6875 L 22.839433 166.6875 L 17.980815 161.82888 z M 45.519185 161.82888 L 40.660567 166.6875 L 45.449939 166.6875 L 47.913871 164.22357 L 45.519185 161.82888 z " />
    <path
       d="m 155.41461,110.19229 -2.39462,2.39462 -9.06533,-9.06533 2.39462,-2.39462 z m 15.73605,-9.06533 2.39461,2.39462 -9.06533,9.06533 -2.39462,-2.39462 z m -10.69025,-4.447143 v 12.828303 h -3.42088 V 96.679817 Z m -8.12459,17.532013 v 3.42088 h -12.82831 v -3.42088 z m 25.6566,0 v 3.42088 h -12.8283 v -3.42088 z"
       id="text1-3-4-8"
       style="font-weight:500;font-size:51.3132px;line-height:245.207px;font-family:'Fairfax Pona HD';-inkscape-font-specification:'Fairfax Pona HD Medium';font-variant-ligatures:discretionary-ligatures;font-variant-numeric:lining-nums proportional-nums;letter-spacing:0px;word-spacing:0px;fill:#ffffff;stroke-width:3.96876;stroke-linecap:square;stroke-miterlimit:10"
       aria-label="majuna2" />
  </g>
</svg>
