<?xml version="1.0" encoding="UTF-8" standalone="no"?>
<!-- Created with Inkscape (http://www.inkscape.org/) -->

<svg
   width="1200"
   height="630"
   viewBox="0 0 317.5 166.6875"
   version="1.1"
   id="svg1"
   inkscape:version="1.4.3 (0d15f75042, 2025-12-25)"
   sodipodi:docname="methodology.svg"
   inkscape:export-filename="bitmap.png"
   inkscape:export-xdpi="96"
   inkscape:export-ydpi="96"
   xmlns:inkscape="http://www.inkscape.org/namespaces/inkscape"
   xmlns:sodipodi="http://sodipodi.sourceforge.net/DTD/sodipodi-0.dtd"
   xmlns="http://www.w3.org/2000/svg"
   xmlns:svg="http://www.w3.org/2000/svg">
  <sodipodi:namedview
     id="namedview1"
     pagecolor="#ffffff"
     bordercolor="#eeeeee"
     borderopacity="1"
     inkscape:showpageshadow="0"
     inkscape:pageopacity="0"
     inkscape:pagecheckerboard="0"
     inkscape:deskcolor="#505050"
     inkscape:document-units="mm"
     showgrid="true"
     inkscape:zoom="1"
     inkscape:cx="607.5"
     inkscape:cy="341"
     inkscape:window-width="1920"
     inkscape:window-height="1080"
     inkscape:window-x="0"
     inkscape:window-y="0"
     inkscape:window-maximized="0"
     inkscape:current-layer="layer1"
     inkscape:export-bgcolor="#ffffffff">
    <inkscape:grid
       id="grid1"
       units="px"
       originx="0"
       originy="0"
       spacingx="7.9375"
       spacingy="7.9375"
       empcolor="#000000"
       empopacity="0.30196078"
       color="#000000"
       opacity="0.14901961"
       empspacing="4"
       dotted="false"
       gridanglex="30"
       gridanglez="30"
       visible="true" />
    <inkscape:grid
       id="grid3"
       units="px"
       originx="0"
       originy="0"
       spacingx="3.96875"
       spacingy="3.96875"
       empcolor="#000000"
       empopacity="0.30196078"
       color="#000000"
       opacity="0.10196078"
       empspacing="8"
       dotted="false"
       gridanglex="30"
       gridanglez="30"
       visible="true" />
  </sodipodi:namedview>
  <defs
     id="defs1" />
  <g
     inkscape:label="Layer 1"
     inkscape:groupmode="layer"
     id="layer1">
    <path
       id="path21"
       style="fill:#000000;fill-opacity:1;stroke:none;stroke-width:7.9375;stroke-linecap:butt;stroke-miterlimit:10;stroke-dasharray:none"
       d="M 95.250001,39.6875 A 23.8125,23.8125 0 0 0 71.437501,63.5 23.8125,23.8125 0 0 0 95.250001,87.3125 23.8125,23.8125 0 0 0 119.0625,63.5 23.8125,23.8125 0 0 0 95.250001,39.6875 Z m 0,7.9375 A 15.875,15.875 0 0 1 111.125,63.5 15.875,15.875 0 0 1 95.250001,79.375 15.875,15.875 0 0 1 79.375001,63.5 a 15.875,15.875 0 0 1 15.875,-15.875 z" />
    <path
       style="fill:#000000;fill-opacity:1;stroke:#000000;stroke-width:7.9375;stroke-linecap:butt;stroke-miterlimit:10;stroke-dasharray:none"
       d="M 95.25,31.75 V 7.9375"
       id="path22" />
    <path
       style="fill:#000000;fill-opacity:1;stroke:#000000;stroke-width:7.9375;stroke-linecap:butt;stroke-miterlimit:10;stroke-dasharray:none"
       d="M 111.125,35.71875 123.03125,15.875"
       id="path22-7"
       inkscape:transform-center-y="-37.807422"
       inkscape:transform-center-x="-21.828125"
       sodipodi:nodetypes="cc" />
    <path
       style="fill:#000000;fill-opacity:1;stroke:#000000;stroke-width:7.9375;stroke-linecap:butt;stroke-miterlimit:10;stroke-dasharray:none"
       d="M 79.375001,35.71875 67.468751,15.875"
       id="path22-7-5"
       inkscape:transform-center-y="-37.807422"
       inkscape:transform-center-x="21.828125"
       sodipodi:nodetypes="cc" />
    <path
       id="path21-7"
       style="fill:#000000;fill-opacity:1;stroke:none;stroke-width:7.9375;stroke-linecap:butt;stroke-miterlimit:10;stroke-dasharray:none"
       d="m 46.846521,127 a 23.8125,23.8125 0 0 0 32.52848,8.71598 23.8125,23.8125 0 0 0 8.71598,-32.52848 A 23.8125,23.8125 0 0 0 55.562501,94.47152 23.8125,23.8125 0 0 0 46.846521,127 Z m 6.87408,-3.96875 a 15.875,15.875 0 0 1 5.81065,-21.68565 15.875,15.875 0 0 1 21.68566,5.81065 15.875,15.875 0 0 1 -5.81066,21.68565 15.875,15.875 0 0 1 -21.68565,-5.81065 z" />
    <path
       style="fill:#000000;fill-opacity:1;stroke:#000000;stroke-width:7.9375;stroke-linecap:butt;stroke-miterlimit:10;stroke-dasharray:none"
       d="M 39.972451,130.96875 19.350221,142.875"
       id="path22-8" />
    <path
       style="fill:#000000;fill-opacity:1;stroke:#000000;stroke-width:7.9375;stroke-linecap:butt;stroke-miterlimit:10;stroke-dasharray:none"
       d="m 35.471991,115.23622 -23.13832,-0.38924"
       id="path22-7-57"
       inkscape:transform-center-y="-1.5e-06"
       inkscape:transform-center-x="43.656247"
       sodipodi:nodetypes="cc" />
    <path
       style="fill:#000000;fill-opacity:1;stroke:#000000;stroke-width:7.9375;stroke-linecap:butt;stroke-miterlimit:10;stroke-dasharray:none"
       d="m 51.346991,142.73253 -11.23207,20.23299"
       id="path22-7-5-4"
       inkscape:transform-center-y="37.807424"
       inkscape:transform-center-x="21.828122"
       sodipodi:nodetypes="cc" />
    <path
       id="path21-7-7"
       style="fill:#000000;fill-opacity:1;stroke:none;stroke-width:7.9375;stroke-linecap:butt;stroke-miterlimit:10;stroke-dasharray:none"
       d="M 143.65348,127 A 23.8125,23.8125 0 0 1 111.125,135.71598 23.8125,23.8125 0 0 1 102.40902,103.1875 23.8125,23.8125 0 0 1 134.9375,94.47152 23.8125,23.8125 0 0 1 143.65348,127 Z m -6.87408,-3.96875 a 15.875,15.875 0 0 0 -5.81065,-21.68565 15.875,15.875 0 0 0 -21.68566,5.81065 15.875,15.875 0 0 0 5.81066,21.68565 15.875,15.875 0 0 0 21.68565,-5.81065 z" />
    <path
       style="fill:#000000;fill-opacity:1;stroke:#000000;stroke-width:7.9375;stroke-linecap:butt;stroke-miterlimit:10;stroke-dasharray:none"
       d="M 150.52755,130.96875 171.14978,142.875"
       id="path22-8-5" />
    <path
       style="fill:#000000;fill-opacity:1;stroke:#000000;stroke-width:7.9375;stroke-linecap:butt;stroke-miterlimit:10;stroke-dasharray:none"
       d="m 155.02801,115.23622 23.13832,-0.38924"
       id="path22-7-57-3"
       inkscape:transform-center-y="-1.5e-06"
       inkscape:transform-center-x="-43.656251"
       sodipodi:nodetypes="cc" />
    <path
       style="fill:#000000;fill-opacity:1;stroke:#000000;stroke-width:7.9375;stroke-linecap:butt;stroke-miterlimit:10;stroke-dasharray:none"
       d="m 139.15301,142.73253 11.23207,20.23299"
       id="path22-7-5-4-8"
       inkscape:transform-center-y="37.807424"
       inkscape:transform-center-x="-21.828126"
       sodipodi:nodetypes="cc" />
    <path
       id="text22"
       style="font-style:normal;font-variant:normal;font-weight:normal;font-stretch:normal;font-size:131.235px;line-height:627.125px;font-family:'linja laso';-inkscape-font-specification:'linja laso';font-variant-ligatures:discretionary-ligatures;font-variant-numeric:lining-nums proportional-nums;letter-spacing:0px;word-spacing:0px;writing-mode:lr-tb;direction:ltr;fill:#ff7800;fill-opacity:1;stroke:none;stroke-width:7.93754;stroke-linecap:butt;stroke-miterlimit:10;stroke-dasharray:none"
       d="M -201.63395 89.516227 L -196.25328 99.096499 L -207.14547 105.00178 C -196.64667 115.23811 -190.61004 129.41138 -190.61004 144.1097 C -190.61004 158.80802 -196.64669 172.98133 -207.14549 183.21766 L -196.25313 189.25443 L -201.63393 198.83462 L -279.22132 155.69605 L -286.99341 136.86221 L -201.63395 89.516227 z M -217.2508 110.64497 L -277.48765 144.1096 L -217.25098 177.70591 C -214.62628 175.47491 -212.26365 172.85028 -210.16389 170.09435 C -221.31887 166.41977 -228.93076 155.92106 -228.93076 144.10991 C -228.93076 132.29876 -221.319 121.79986 -210.16402 118.12528 C -212.26378 115.36935 -214.6261 112.87597 -217.2508 110.64497 z M -207.45045 128.87885 C -213.71769 131.23467 -218.0379 137.22017 -218.0379 144.11001 C -218.0379 151.98411 -212.39503 158.80803 -204.65216 160.25161 C -202.68364 155.13345 -201.6336 149.62174 -201.6336 144.10987 C -201.6336 138.598 -202.68368 133.21739 -204.6522 128.09922 C -205.62006 128.27967 -206.55513 128.54231 -207.45045 128.87885 z "
       transform="matrix(-0.92438445,0.38146216,0.38146216,0.92438445,0,0)" />
  </g>
</svg>
