<?xml version="1.0" encoding="UTF-8" standalone="no"?>
<!-- Created with Inkscape (http://www.inkscape.org/) -->

<svg
   width="1200"
   height="630"
   viewBox="0 0 317.5 166.6875"
   version="1.1"
   id="svg1"
   inkscape:version="1.4.3 (0d15f75042, 2025-12-25)"
   sodipodi:docname="nonword.svg"
   inkscape:export-filename="nonword.png"
   inkscape:export-xdpi="96"
   inkscape:export-ydpi="96"
   xmlns:inkscape="http://www.inkscape.org/namespaces/inkscape"
   xmlns:sodipodi="http://sodipodi.sourceforge.net/DTD/sodipodi-0.dtd"
   xmlns="http://www.w3.org/2000/svg"
   xmlns:svg="http://www.w3.org/2000/svg">
  <sodipodi:namedview
     id="namedview1"
     pagecolor="#ffffff"
     bordercolor="#eeeeee"
     borderopacity="1"
     inkscape:showpageshadow="0"
     inkscape:pageopacity="0"
     inkscape:pagecheckerboard="0"
     inkscape:deskcolor="#505050"
     inkscape:document-units="mm"
     showgrid="true"
     inkscape:zoom="0.70710678"
     inkscape:cx="548.00776"
     inkscape:cy="422.84986"
     inkscape:window-width="1920"
     inkscape:window-height="1080"
     inkscape:window-x="0"
     inkscape:window-y="0"
     inkscape:window-maximized="0"
     inkscape:current-layer="layer1"
     inkscape:export-bgcolor="#ffffffff">
    <inkscape:grid
       id="grid1"
       units="px"
       originx="0"
       originy="0"
       spacingx="7.9375"
       spacingy="7.9375"
       empcolor="#000000"
       empopacity="0.30196078"
       color="#000000"
       opacity="0.14901961"
       empspacing="4"
       dotted="false"
       gridanglex="30"
       gridanglez="30"
       visible="true" />
    <inkscape:grid
       id="grid3"
       units="px"
       originx="0"
       originy="0"
       spacingx="3.96875"
       spacingy="3.96875"
       empcolor="#000000"
       empopacity="0.30196078"
       color="#000000"
       opacity="0.10196078"
       empspacing="8"
       dotted="false"
       gridanglex="30"
       gridanglez="30"
       visible="true" />
  </sodipodi:namedview>
  <defs
     id="defs1">
    <inkscape:path-effect
       effect="simplify"
       id="path-effect7"
       is_visible="true"
       lpeversion="1.3"
       threshold="10,869565"
       steps="1"
       smooth_angles="360"
       helper_size="0"
       simplify_individual_paths="false"
       simplify_just_coalesce="false" />
    <inkscape:path-effect
       effect="simplify"
       id="path-effect6"
       is_visible="true"
       lpeversion="1.3"
       threshold="10,869565"
       steps="1"
       smooth_angles="360"
       helper_size="0"
       simplify_individual_paths="false"
       simplify_just_coalesce="false" />
    <inkscape:path-effect
       effect="simplify"
       id="path-effect5"
       is_visible="true"
       lpeversion="1.3"
       threshold="10,869565"
       steps="1"
       smooth_angles="360"
       helper_size="0"
       simplify_individual_paths="false"
       simplify_just_coalesce="false" />
    <inkscape:path-effect
       effect="simplify"
       id="path-effect4"
       is_visible="true"
       lpeversion="1.3"
       threshold="10,869565"
       steps="1"
       smooth_angles="360"
       helper_size="0"
       simplify_individual_paths="false"
       simplify_just_coalesce="false" />
    <inkscape:path-effect
       effect="simplify"
       id="path-effect3"
       is_visible="true"
       lpeversion="1.3"
       threshold="10,869565"
       steps="1"
       smooth_angles="360"
       helper_size="0"
       simplify_individual_paths="false"
       simplify_just_coalesce="false" />
    <inkscape:path-effect
       effect="simplify"
       id="path-effect2"
       is_visible="true"
       lpeversion="1.3"
       threshold="10,869565"
       steps="1"
       smooth_angles="360"
       helper_size="0"
       simplify_individual_paths="false"
       simplify_just_coalesce="false" />
    <inkscape:path-effect
       effect="simplify"
       id="path-effect1"
       is_visible="true"
       lpeversion="1.3"
       threshold="10,869565"
       steps="1"
       smooth_angles="360"
       helper_size="0"
       simplify_individual_paths="false"
       simplify_just_coalesce="false" />
    <inkscape:path-effect
       effect="simplify"
       id="path-effect4-5"
       is_visible="true"
       lpeversion="1.3"
       threshold="10"
       steps="1"
       smooth_angles="360"
       helper_size="0"
       simplify_individual_paths="false"
       simplify_just_coalesce="false" />
    <inkscape:path-effect
       effect="simplify"
       id="path-effect6-0"
       is_visible="true"
       lpeversion="1.3"
       threshold="10"
       steps="1"
       smooth_angles="360"
       helper_size="0"
       simplify_individual_paths="false"
       simplify_just_coalesce="false" />
    <inkscape:path-effect
       effect="simplify"
       id="path-effect6-4"
       is_visible="true"
       lpeversion="1.3"
       threshold="10"
       steps="1"
       smooth_angles="360"
       helper_size="0"
       simplify_individual_paths="false"
       simplify_just_coalesce="false" />
    <inkscape:path-effect
       effect="simplify"
       id="path-effect6-0-3"
       is_visible="true"
       lpeversion="1.3"
       threshold="10"
       steps="1"
       smooth_angles="360"
       helper_size="0"
       simplify_individual_paths="false"
       simplify_just_coalesce="false" />
    <inkscape:path-effect
       effect="simplify"
       id="path-effect6-0-3-8"
       is_visible="true"
       lpeversion="1.3"
       threshold="10"
       steps="1"
       smooth_angles="360"
       helper_size="0"
       simplify_individual_paths="false"
       simplify_just_coalesce="false" />
    <inkscape:path-effect
       effect="simplify"
       id="path-effect6-4-9"
       is_visible="true"
       lpeversion="1.3"
       threshold="10"
       steps="1"
       smooth_angles="360"
       helper_size="0"
       simplify_individual_paths="false"
       simplify_just_coalesce="false" />
    <inkscape:path-effect
       effect="simplify"
       id="path-effect6-0-3-8-0"
       is_visible="true"
       lpeversion="1.3"
       threshold="10"
       steps="1"
       smooth_angles="360"
       helper_size="0"
       simplify_individual_paths="false"
       simplify_just_coalesce="false" />
    <inkscape:path-effect
       effect="simplify"
       id="path-effect6-4-9-4"
       is_visible="true"
       lpeversion="1.3"
       threshold="10"
       steps="1"
       smooth_angles="360"
       helper_size="0"
       simplify_individual_paths="false"
       simplify_just_coalesce="false" />
    <inkscape:path-effect
       effect="simplify"
       id="path-effect6-4-9-4-2"
       is_visible="true"
       lpeversion="1.3"
       threshold="10"
       steps="1"
       smooth_angles="360"
       helper_size="0"
       simplify_individual_paths="false"
       simplify_just_coalesce="false" />
    <inkscape:path-effect
       effect="simplify"
       id="path-effect6-0-3-8-0-2"
       is_visible="true"
       lpeversion="1.3"
       threshold="10"
       steps="1"
       smooth_angles="360"
       helper_size="0"
       simplify_individual_paths="false"
       simplify_just_coalesce="false" />
    <inkscape:path-effect
       effect="simplify"
       id="path-effect6-0-3-8-0-2-9"
       is_visible="true"
       lpeversion="1.3"
       threshold="10"
       steps="1"
       smooth_angles="360"
       helper_size="0"
       simplify_individual_paths="false"
       simplify_just_coalesce="false" />
    <inkscape:path-effect
       effect="simplify"
       id="path-effect6-4-9-4-2-4"
       is_visible="true"
       lpeversion="1.3"
       threshold="10"
       steps="1"
       smooth_angles="360"
       helper_size="0"
       simplify_individual_paths="false"
       simplify_just_coalesce="false" />
    <inkscape:path-effect
       effect="simplify"
       id="path-effect7-1"
       is_visible="true"
       lpeversion="1.3"
       threshold="10"
       steps="1"
       smooth_angles="360"
       helper_size="0"
       simplify_individual_paths="false"
       simplify_just_coalesce="false" />
    <inkscape:path-effect
       effect="simplify"
       id="path-effect7-1-6"
       is_visible="true"
       lpeversion="1.3"
       threshold="10"
       steps="1"
       smooth_angles="360"
       helper_size="0"
       simplify_individual_paths="false"
       simplify_just_coalesce="false" />
    <inkscape:path-effect
       effect="simplify"
       id="path-effect7-1-3"
       is_visible="true"
       lpeversion="1.3"
       threshold="10"
       steps="1"
       smooth_angles="360"
       helper_size="0"
       simplify_individual_paths="false"
       simplify_just_coalesce="false" />
  </defs>
  <g
     inkscape:label="Layer 1"
     inkscape:groupmode="layer"
     id="layer1">
    <path
       d="m 38.26265,56.578021 c 1.424607,0 2.54394,-1.119333 2.54394,-2.54394 V 20.962862 h 22.89546 c 1.424607,0 2.54394,-1.119334 2.54394,-2.54394 0,-1.424607 -1.119333,-2.54394 -2.54394,-2.54394 h -25.4394 c -1.424606,0 -2.543939,1.119333 -2.543939,2.54394 v 35.615159 c 0,1.424607 1.119333,2.54394 2.543939,2.54394 z M 91.68539,23.506802 c 0,-1.424607 -1.119334,-2.54394 -2.54394,-2.54394 -1.424606,0 -2.54394,1.119333 -2.54394,2.54394 v 40.703039 c 0,2.086031 0.559667,4.121183 2.035152,5.596668 1.475485,1.475485 3.510637,2.035152 5.596668,2.035152 h 20.35152 c 1.42461,0 2.54394,-1.119334 2.54394,-2.54394 0,-1.424606 -1.11933,-2.54394 -2.54394,-2.54394 H 94.22933 c -1.221091,0 -1.729879,-0.305273 -1.984273,-0.559667 C 91.990663,65.93972 91.68539,65.430932 91.68539,64.209841 Z m 25.4394,20.351519 c 0,0.45791 0.10176,0.86494 0.35615,1.27197 l 10.17576,17.80758 c 0.45791,0.814061 1.27197,1.27197 2.13691,1.27197 1.52636,0 2.59482,-1.170212 2.59482,-2.54394 V 46.911049 c 0,-7.987971 1.62812,-13.228488 3.96855,-16.433852 2.23866,-3.103607 5.29139,-4.426455 8.75115,-4.426455 3.45976,0 6.51249,1.322848 8.75115,4.426455 2.34043,3.205364 3.96855,8.445881 3.96855,16.433852 v 14.754852 c 0,1.424607 1.11933,2.54394 2.54394,2.54394 1.42461,0 2.54394,-1.119333 2.54394,-2.54394 V 46.911049 c 0,-8.598517 -1.72988,-15.060124 -4.93524,-19.435701 -3.25625,-4.477334 -7.88622,-6.512486 -12.87234,-6.512486 -4.98612,0 -9.61609,2.035152 -12.87234,6.512486 -3.20536,4.375577 -4.93524,10.837184 -4.93524,19.435701 v 5.189638 l -5.44403,-9.514336 c -0.45791,-0.81406 -1.32285,-1.27197 -2.18779,-1.27197 -1.47549,0 -2.54394,1.27197 -2.54394,2.54394 z m -5.08788,25.4394 c 0,1.424606 1.11933,2.54394 2.54394,2.54394 h 50.8788 c 1.42461,0 2.54394,-1.119334 2.54394,-2.54394 0,-1.424606 -1.11933,-2.54394 -2.54394,-2.54394 h -50.8788 c -1.42461,0 -2.54394,1.119334 -2.54394,2.54394 z m 50.8788,0 c 0,1.424606 1.11933,2.54394 2.54394,2.54394 h 50.8788 c 1.4246,0 2.54394,-1.119334 2.54394,-2.54394 0,-1.424606 -1.11934,-2.54394 -2.54394,-2.54394 h -50.8788 c -1.42461,0 -2.54394,1.119334 -2.54394,2.54394 z m 55.96668,-25.4394 c 0,0.45791 0.10176,0.86494 0.35615,1.27197 l 10.17576,17.80758 c 0.45791,0.814061 1.27197,1.27197 2.13691,1.27197 1.52636,0 2.59482,-1.170212 2.59482,-2.54394 V 46.911049 c 0,-7.987971 1.62812,-13.228488 3.96854,-16.433852 2.23867,-3.103607 5.2914,-4.426455 8.75116,-4.426455 3.45976,0 6.51248,1.322848 8.75115,4.426455 2.34043,3.205364 3.96855,8.445881 3.96855,16.433852 v 14.754852 c 0,1.424607 1.11933,2.54394 2.54394,2.54394 1.4246,0 2.54394,-1.119333 2.54394,-2.54394 V 46.911049 c 0,-8.598517 -1.72988,-15.060124 -4.93525,-19.435701 -3.25624,-4.477334 -7.88621,-6.512486 -12.87233,-6.512486 -4.98612,0 -9.61609,2.035152 -12.87234,6.512486 -3.20536,4.375577 -4.93524,10.837184 -4.93524,19.435701 v 5.189638 l -5.44403,-9.514336 c -0.45791,-0.81406 -1.32285,-1.27197 -2.18779,-1.27197 -1.47549,0 -2.54394,1.27197 -2.54394,2.54394 z m -5.08788,25.4394 c 0,1.424606 1.11933,2.54394 2.54394,2.54394 h 50.8788 c 1.4246,0 2.54394,-1.119334 2.54394,-2.54394 0,-1.424606 -1.11934,-2.54394 -2.54394,-2.54394 h -50.8788 c -1.42461,0 -2.54394,1.119334 -2.54394,2.54394 z"
       id="text1-7-5-1-7-5-6-6"
       style="font-size:50.8788px;line-height:243.131px;font-family:nasin-nanpa;-inkscape-font-specification:nasin-nanpa;font-variant-ligatures:discretionary-ligatures;font-variant-numeric:lining-nums proportional-nums;letter-spacing:0px;word-spacing:0px;fill:#511d00;stroke-width:3.96876;stroke-linecap:square;stroke-miterlimit:10"
       aria-label="tepi(luka  luka" />
    <path
       d="m 44.687101,98.814615 c -1.119333,0 -2.136909,0.763182 -2.442182,1.882515 l -12.210912,43.9084 h -5.698425 c -1.424607,0 -2.54394,1.11934 -2.54394,2.54394 0,1.42461 1.119333,2.54394 2.54394,2.54394 h 7.63182 c 1.119333,0 2.136909,-0.76318 2.442182,-1.88251 l 10.277517,-36.93801 10.277518,36.93801 c 0.305273,1.11933 1.322849,1.88251 2.442182,1.88251 h 12.7197 c 1.424606,0 2.54394,-1.11933 2.54394,-2.54394 0,-1.4246 -1.119334,-2.54394 -2.54394,-2.54394 H 59.340196 l -12.210912,-43.9084 c -0.305273,-1.119333 -1.322849,-1.882515 -2.442183,-1.882515 z m 55.966679,20.351515 c 0,-2.79833 -2.289545,-5.08788 -5.087879,-5.08788 -2.798334,0 -5.08788,2.28955 -5.08788,5.08788 0,2.79834 2.289546,5.08788 5.08788,5.08788 2.798334,0 5.087879,-2.28954 5.087879,-5.08788 z m -33.071219,27.98334 c 0,1.42461 1.119334,2.54394 2.54394,2.54394 H 121.0053 c 1.42461,0 2.54394,-1.11933 2.54394,-2.54394 0,-1.4246 -1.11933,-2.54394 -2.54394,-2.54394 H 70.126501 c -1.424606,0 -2.54394,1.11934 -2.54394,2.54394 z M 146.4447,125.52598 c -2.79833,0 -5.08788,2.28955 -5.08788,5.08788 0,2.79834 2.28955,5.08788 5.08788,5.08788 2.79833,0 5.08788,-2.28954 5.08788,-5.08788 0,-2.79833 -2.28955,-5.08788 -5.08788,-5.08788 z m 0,-22.89546 c -2.79833,0 -5.08788,2.28955 -5.08788,5.08788 0,2.79834 2.28955,5.08788 5.08788,5.08788 2.79833,0 5.08788,-2.28954 5.08788,-5.08788 0,-2.79833 -2.28955,-5.08788 -5.08788,-5.08788 z m -27.98334,44.51895 c 0,1.42461 1.11933,2.54394 2.54394,2.54394 h 50.8788 c 1.42461,0 2.54394,-1.11933 2.54394,-2.54394 0,-1.4246 -1.11933,-2.54394 -2.54394,-2.54394 h -50.8788 c -1.42461,0 -2.54394,1.11934 -2.54394,2.54394 z m 53.42274,2.54394 c 1.42461,0 2.54394,-1.11933 2.54394,-2.54394 0,-1.4246 -1.11933,-2.54394 -2.54394,-2.54394 -1.42461,0 -2.54394,1.11934 -2.54394,2.54394 0,1.42461 1.11933,2.54394 2.54394,2.54394 z m 30.52728,-5.08788 c -1.42461,0 -2.54394,1.11934 -2.54394,2.54394 v 5.08788 c 0,1.42461 1.11933,2.54394 2.54394,2.54394 1.42461,0 2.54394,-1.11933 2.54394,-2.54394 v -5.08788 c 0,-1.4246 -1.11933,-2.54394 -2.54394,-2.54394 z m 10.17576,0 c -1.42461,0 -2.54394,1.11934 -2.54394,2.54394 v 5.08788 c 0,1.42461 1.11933,2.54394 2.54394,2.54394 1.42461,0 2.54394,-1.11933 2.54394,-2.54394 v -5.08788 c 0,-1.4246 -1.11933,-2.54394 -2.54394,-2.54394 z m -20.35152,0 c -1.42461,0 -2.54394,1.11934 -2.54394,2.54394 v 5.08788 c 0,1.42461 1.11933,2.54394 2.54394,2.54394 1.42461,0 2.54394,-1.11933 2.54394,-2.54394 v -5.08788 c 0,-1.4246 -1.11933,-2.54394 -2.54394,-2.54394 z m -10.17576,0 c -1.42461,0 -2.54394,1.11934 -2.54394,2.54394 v 5.08788 c 0,1.42461 1.11933,2.54394 2.54394,2.54394 1.42461,0 2.54394,-1.11933 2.54394,-2.54394 v -5.08788 c 0,-1.4246 -1.11933,-2.54394 -2.54394,-2.54394 z m 46.29971,-17.80758 v -15.26364 c 0,-9.76872 10.02312,-17.807575 19.84273,-17.807575 1.42461,0 2.54394,-1.119334 2.54394,-2.54394 0,-1.424606 -1.11933,-2.54394 -2.54394,-2.54394 -12.66882,0 -24.93061,10.17576 -24.93061,22.895455 v 15.26364 c 0,12.7197 12.26179,22.89546 24.93061,22.89546 1.42461,0 2.54394,-1.11933 2.54394,-2.54394 0,-1.4246 -1.11933,-2.54394 -2.54394,-2.54394 -9.81961,0 -19.84273,-8.03885 -19.84273,-17.80758 z m 19.84272,17.80758 c -1.4246,0 -2.54394,1.11934 -2.54394,2.54394 0,1.42461 1.11934,2.54394 2.54394,2.54394 12.66882,0 24.93061,-10.17576 24.93061,-22.89546 v -15.26364 c 0,-12.719695 -12.26179,-22.895455 -24.93061,-22.895455 -1.4246,0 -2.54394,1.119334 -2.54394,2.54394 0,1.424606 1.11934,2.54394 2.54394,2.54394 9.81961,0 19.84273,8.038855 19.84273,17.807575 v 15.26364 c 0,9.76873 -10.02312,17.80758 -19.84273,17.80758 z m 50.87881,-40.70304 c -1.42461,0 -2.54394,1.11934 -2.54394,2.54394 v 33.07122 H 273.6417 c -1.42461,0 -2.54394,1.11934 -2.54394,2.54394 0,1.42461 1.11933,2.54394 2.54394,2.54394 h 25.4394 c 1.4246,0 2.54394,-1.11933 2.54394,-2.54394 v -35.61516 c 0,-1.4246 -1.11934,-2.54394 -2.54394,-2.54394 z"
       id="text1-7-5-1-7-5-6-6-7"
       style="font-size:50.8788px;line-height:243.131px;font-family:nasin-nanpa;-inkscape-font-specification:nasin-nanpa;font-variant-ligatures:discretionary-ligatures;font-variant-numeric:lining-nums proportional-nums;letter-spacing:0px;word-spacing:0px;fill:#511d00;stroke-width:3.96876;stroke-linecap:square;stroke-miterlimit:10"
       aria-label="awen(.:)  ,,,,[ ]to" />
    <text
       xml:space="preserve"
       style="font-style:normal;font-variant:normal;font-weight:normal;font-stretch:normal;font-size:68.0358px;line-height:325.118px;font-family:nasin-nanpa;-inkscape-font-specification:nasin-nanpa;font-variant-ligatures:discretionary-ligatures;font-variant-numeric:lining-nums proportional-nums;letter-spacing:0px;word-spacing:0px;writing-mode:lr-tb;direction:ltr;fill:#000000;fill-opacity:1;stroke-width:3.96876;stroke-linecap:square;stroke-miterlimit:10"
       x="53.294346"
       y="149.67859"
       id="text1-7-5-1-7-5-6-6-4"><tspan
         sodipodi:role="line"
         id="tspan1-9-9-5-7-9-3-2-1"
         style="font-style:normal;font-variant:normal;font-weight:normal;font-stretch:normal;font-family:nasin-nanpa;-inkscape-font-specification:nasin-nanpa;fill:#000000;fill-opacity:1;stroke-width:3.96876"
         x="53.294346"
         y="149.67859" /></text>
    <rect
       style="mix-blend-mode:darken;fill:#ffccab;fill-opacity:1;stroke-width:3.96875;stroke-linecap:square;stroke-miterlimit:10"
       id="rect15"
       width="15.874999"
       height="15.874999"
       x="87.312492"
       y="111.12499"
       ry="3.9687576" />
    <rect
       style="mix-blend-mode:darken;fill:#ffccab;fill-opacity:1;stroke-width:3.96875;stroke-linecap:square;stroke-miterlimit:10"
       id="rect15-4-6"
       width="15.874985"
       height="39.687485"
       x="138.90625"
       y="99.21875"
       ry="3.9687576" />
    <rect
       style="mix-blend-mode:darken;fill:#ffccab;fill-opacity:1;stroke-width:3.96876;stroke-linecap:square;stroke-miterlimit:10"
       id="rect15-4-6-7"
       width="39.6875"
       height="59.53125"
       x="31.75"
       y="11.906251"
       ry="3.968749" />
    <rect
       style="mix-blend-mode:darken;fill:#ffccab;fill-opacity:1;stroke-width:3.96877;stroke-linecap:square;stroke-miterlimit:10"
       id="rect15-4-6-7-1"
       width="87.312492"
       height="71.437492"
       x="218.28123"
       y="83.343742"
       ry="3.9687576" />
    <rect
       style="mix-blend-mode:darken;fill:#ffccab;fill-opacity:1;stroke-width:3.96875;stroke-linecap:square;stroke-miterlimit:10"
       id="rect14"
       width="162.71875"
       height="15.875"
       x="63.5"
       y="138.90625"
       ry="3.96875" />
    <rect
       style="mix-blend-mode:darken;fill:#ffccab;fill-opacity:1;stroke-width:3.96875;stroke-linecap:square;stroke-miterlimit:10"
       id="rect14-0"
       width="170.65625"
       height="11.90625"
       x="103.1875"
       y="63.5"
       ry="3.96875" />
    <rect
       style="fill:#ff7800;fill-opacity:1;stroke-width:3.96875;stroke-linecap:square;stroke-miterlimit:10"
       id="rect16"
       width="35.718758"
       height="35.71875"
       x="174.625"
       y="23.8125" />
  </g>
</svg>
