<svg width="100" height="100" viewBox="0 0 100 100" fill="none" xmlns="http://www.w3.org/2000/svg">
<path d="M39.8667 66.0333C39.8667 62.9756 40.8267 60.3444 42.7467 58.14C44.6667 55.9356 47.0844 54.8333 50 54.8333H60.1333V76.1667H55.8667V71.8467C53.0578 74.7267 50.4267 76.1667 47.9733 76.1667C45.4844 76.1667 43.5111 75.1889 42.0533 73.2333C40.5956 71.2778 39.8667 68.8778 39.8667 66.0333ZM44.1333 66.0333C44.1333 67.6689 44.4533 69.0556 45.0933 70.1933C45.7333 71.3311 46.6933 71.9 47.9733 71.9C49.36 71.9 51.12 70.7444 53.2533 68.4333C54.1422 67.4733 55.0133 66.3711 55.8667 65.1267V59.1H50C48.2933 59.1 46.8889 59.7578 45.7867 61.0733C44.6844 62.3889 44.1333 64.0422 44.1333 66.0333ZM47.8667 49.5V22.8333H52.1333V49.5H47.8667Z" fill="var(--pimeja)"/>
</svg>
