<svg width="100" height="100" viewBox="0 0 100 100" fill="none" xmlns="http://www.w3.org/2000/svg">
<path d="M50 28.7C54.48 28.7 58.2311 31.1178 61.2533 35.9533C62.8178 38.3711 63.9555 41.2867 64.6666 44.7H74.5333V48.9667H65.3066C65.4133 50.0333 65.4666 51.1 65.4666 52.1667C65.4666 53.2333 65.4133 54.3 65.3066 55.3667H74.5333V59.6333H64.6666C63.2089 66.1756 60.4533 70.8333 56.4 73.6067C54.3378 74.9578 52.2044 75.6333 50 75.6333C45.52 75.6333 41.7689 73.2156 38.7466 68.38C37.1822 65.9622 36.0444 63.0467 35.3333 59.6333H25.4666V55.3667H34.6933C34.5866 54.3 34.5333 53.2333 34.5333 52.1667C34.5333 51.1 34.5866 50.0333 34.6933 48.9667H25.4666V44.7H35.3333C36.7911 38.1578 39.5466 33.5 43.6 30.7267C45.6622 29.3756 47.7955 28.7 50 28.7ZM42.3733 38.1933C41.2 40.0778 40.3111 42.2467 39.7066 44.7H60.2933C59.6889 42.2467 58.8 40.0778 57.6266 38.1933C55.4222 34.7089 52.88 32.9667 50 32.9667C47.12 32.9667 44.5778 34.7089 42.3733 38.1933ZM57.6266 66.14C58.8 64.2556 59.6889 62.0867 60.2933 59.6333H39.7066C40.3111 62.0867 41.2 64.2556 42.3733 66.14C44.5778 69.6244 47.12 71.3667 50 71.3667C52.88 71.3667 55.4222 69.6244 57.6266 66.14ZM61.04 55.3667C61.1466 54.3 61.2 53.2333 61.2 52.1667C61.2 51.1 61.1466 50.0333 61.04 48.9667H38.96C38.8533 50.0333 38.8 51.1 38.8 52.1667C38.8 53.2333 38.8533 54.3 38.96 55.3667H61.04ZM24.88 31.9533C23.8489 30.8867 23.3333 29.6244 23.3333 28.1667C23.3333 26.7089 23.8489 25.4644 24.88 24.4333C25.9466 23.3667 27.2089 22.8333 28.6666 22.8333C30.1244 22.8333 31.3689 23.3667 32.4 24.4333C33.4666 25.4644 34 26.7089 34 28.1667C34 29.6244 33.4666 30.8867 32.4 31.9533C31.3689 32.9844 30.1244 33.5 28.6666 33.5C27.2089 33.5 25.9466 32.9844 24.88 31.9533ZM67.5466 31.9533C66.5155 30.8867 66 29.6244 66 28.1667C66 26.7089 66.5155 25.4644 67.5466 24.4333C68.6133 23.3667 69.8755 22.8333 71.3333 22.8333C72.7911 22.8333 74.0355 23.3667 75.0667 24.4333C76.1333 25.4644 76.6666 26.7089 76.6666 28.1667C76.6666 29.6244 76.1333 30.8867 75.0667 31.9533C74.0355 32.9844 72.7911 33.5 71.3333 33.5C69.8755 33.5 68.6133 32.9844 67.5466 31.9533Z" fill="var(--pimeja)"/>
</svg>
