<svg width="100" height="100" viewBox="0 0 100 100" fill="none" xmlns="http://www.w3.org/2000/svg">
<path d="M75.6 54.3H65.4133C65.3067 56.54 64.9867 58.6733 64.4533 60.7H72.4V64.9667H63.0133C61.3422 68.8778 59.1378 71.7578 56.4 73.6067C54.3378 74.9578 52.2045 75.6333 50 75.6333C46.9422 75.6333 44.3111 74.6022 42.1067 72.54C39.9378 70.4778 38.2311 67.9533 36.9867 64.9667H27.6V60.7H35.5467C35.0133 58.6733 34.6933 56.54 34.5867 54.3H24.4V50.0333H34.5867C34.6933 47.7933 35.0133 45.66 35.5467 43.6333H27.6V39.3667H36.9867C38.6578 35.4556 40.8622 32.5756 43.6 30.7267C45.6622 29.3756 47.7956 28.7 50 28.7C53.0578 28.7 55.6711 29.7311 57.84 31.7933C60.0445 33.8556 61.7689 36.38 63.0133 39.3667H72.4V43.6333H64.4533C64.9867 45.66 65.3067 47.7933 65.4133 50.0333H75.6V54.3ZM42.3733 38.1933C42.3022 38.3 42.1956 38.4956 42.0533 38.78C41.9111 39.0289 41.8045 39.2244 41.7333 39.3667H58.2667C58.1956 39.2244 58.0889 39.0289 57.9467 38.78C57.8045 38.5311 57.6978 38.3356 57.6267 38.1933C55.4222 34.7089 52.88 32.9667 50 32.9667C47.12 32.9667 44.5778 34.7089 42.3733 38.1933ZM39.9733 43.6333C39.4045 45.5889 39.0311 47.7222 38.8533 50.0333H61.1467C60.9689 47.7222 60.5956 45.5889 60.0267 43.6333H39.9733ZM57.6267 66.14C57.6978 66.0333 57.8045 65.8378 57.9467 65.5533C58.0889 65.3044 58.1956 65.1089 58.2667 64.9667H41.7333C41.8045 65.0733 41.9111 65.2511 42.0533 65.5C42.1956 65.7844 42.3022 65.9978 42.3733 66.14C44.5778 69.6244 47.12 71.3667 50 71.3667C52.88 71.3667 55.4222 69.6244 57.6267 66.14ZM60.0267 60.7C60.5956 58.7444 60.9689 56.6111 61.1467 54.3H38.8533C39.0311 56.6111 39.4045 58.7444 39.9733 60.7H60.0267ZM24.88 31.9533C23.8489 30.8867 23.3333 29.6244 23.3333 28.1667C23.3333 26.7089 23.8489 25.4644 24.88 24.4333C25.9467 23.3667 27.2089 22.8333 28.6667 22.8333C30.1245 22.8333 31.3689 23.3667 32.4 24.4333C33.4667 25.4644 34 26.7089 34 28.1667C34 29.6244 33.4667 30.8867 32.4 31.9533C31.3689 32.9844 30.1245 33.5 28.6667 33.5C27.2089 33.5 25.9467 32.9844 24.88 31.9533ZM67.5467 31.9533C66.5156 30.8867 66 29.6244 66 28.1667C66 26.7089 66.5156 25.4644 67.5467 24.4333C68.6133 23.3667 69.8756 22.8333 71.3333 22.8333C72.7911 22.8333 74.0356 23.3667 75.0667 24.4333C76.1333 25.4644 76.6667 26.7089 76.6667 28.1667C76.6667 29.6244 76.1333 30.8867 75.0667 31.9533C74.0356 32.9844 72.7911 33.5 71.3333 33.5C69.8756 33.5 68.6133 32.9844 67.5467 31.9533Z" fill="var(--pimeja)"/>
</svg>
