<svg width="100" height="100" viewBox="0 0 100 100" fill="none" xmlns="http://www.w3.org/2000/svg">
<path d="M41.1466 40.7C39.1911 42.6556 36.8088 43.6333 34 43.6333C31.1911 43.6333 28.7911 42.6556 26.8 40.7C24.8444 38.7089 23.8666 36.3089 23.8666 33.5C23.8666 30.6911 24.8444 28.3089 26.8 26.3533C28.7911 24.3622 31.1911 23.3667 34 23.3667C36.8088 23.3667 39.1911 24.3622 41.1466 26.3533C43.1377 28.3089 44.1333 30.6911 44.1333 33.5C44.1333 36.3089 43.1377 38.7089 41.1466 40.7ZM38.16 29.34C37.0222 28.2022 35.6355 27.6333 34 27.6333C32.3644 27.6333 30.9777 28.2022 29.84 29.34C28.7022 30.4778 28.1333 31.8644 28.1333 33.5C28.1333 35.1356 28.7022 36.5222 29.84 37.66C30.9777 38.7978 32.3644 39.3667 34 39.3667C35.6355 39.3667 37.0222 38.7978 38.16 37.66C39.2977 36.5222 39.8666 35.1356 39.8666 33.5C39.8666 31.8644 39.2977 30.4778 38.16 29.34ZM73.1466 40.7C71.1911 42.6556 68.8088 43.6333 66 43.6333C63.1911 43.6333 60.7911 42.6556 58.8 40.7C56.8444 38.7089 55.8666 36.3089 55.8666 33.5C55.8666 30.6911 56.8444 28.3089 58.8 26.3533C60.7911 24.3622 63.1911 23.3667 66 23.3667C68.8088 23.3667 71.1911 24.3622 73.1466 26.3533C75.1377 28.3089 76.1333 30.6911 76.1333 33.5C76.1333 36.3089 75.1377 38.7089 73.1466 40.7ZM70.16 29.34C69.0222 28.2022 67.6355 27.6333 66 27.6333C64.3644 27.6333 62.9777 28.2022 61.84 29.34C60.7022 30.4778 60.1333 31.8644 60.1333 33.5C60.1333 35.1356 60.7022 36.5222 61.84 37.66C62.9777 38.7978 64.3644 39.3667 66 39.3667C67.6355 39.3667 69.0222 38.7978 70.16 37.66C71.2977 36.5222 71.8666 35.1356 71.8666 33.5C71.8666 31.8644 71.2977 30.4778 70.16 29.34ZM57.1466 72.6467C55.1911 74.6378 52.8088 75.6333 50 75.6333C47.1911 75.6333 44.7911 74.6378 42.8 72.6467C40.8444 70.6911 39.8666 68.3089 39.8666 65.5C39.8666 62.6911 40.8444 60.3089 42.8 58.3533C44.7911 56.3622 47.1911 55.3667 50 55.3667C52.8088 55.3667 55.1911 56.3622 57.1466 58.3533C59.1377 60.3089 60.1333 62.6911 60.1333 65.5C60.1333 68.3089 59.1377 70.6911 57.1466 72.6467ZM54.16 61.34C53.0222 60.2022 51.6355 59.6333 50 59.6333C48.3644 59.6333 46.9777 60.2022 45.84 61.34C44.7022 62.4778 44.1333 63.8644 44.1333 65.5C44.1333 67.1356 44.7022 68.5222 45.84 69.66C46.9777 70.7978 48.3644 71.3667 50 71.3667C51.6355 71.3667 53.0222 70.7978 54.16 69.66C55.2977 68.5222 55.8666 67.1356 55.8666 65.5C55.8666 63.8644 55.2977 62.4778 54.16 61.34ZM75.7066 61.02L50 48.1667L24.2933 61.02L22.3733 57.18L50 43.3667L77.6266 57.18L75.7066 61.02Z" fill="var(--pimeja)"/>
</svg>
