<svg width="100" height="100" viewBox="0 0 100 100" fill="none" xmlns="http://www.w3.org/2000/svg">
<path d="M73.4667 52.1667C73.4667 58.6378 71.1733 64.1667 66.5867 68.7533C62 73.34 56.4711 75.6333 50 75.6333C43.5289 75.6333 38 73.34 33.4133 68.7533C28.8267 64.1667 26.5333 58.6378 26.5333 52.1667V49.5H30.8V52.1667C30.8 57.4644 32.6667 61.98 36.4 65.7133C40.1689 69.4822 44.7022 71.3667 50 71.3667C55.2978 71.3667 59.8133 69.4822 63.5467 65.7133C67.3155 61.98 69.2 57.4644 69.2 52.1667V49.5H73.4667V52.1667ZM47.8667 38.8333V22.8333H52.1333V38.8333H47.8667ZM26.8533 32.0067L29.84 29.02L41.1467 40.3267L38.16 43.3133L26.8533 32.0067ZM58.8533 40.3267L70.16 29.02L73.1467 32.0067L61.84 43.3133L58.8533 40.3267Z" fill="var(--pimeja)"/>
</svg>
