<svg width="100" height="100" viewBox="0 0 100 100" fill="none" xmlns="http://www.w3.org/2000/svg">
<path d="M76.6666 50.0333V54.3H60.1333V54.8333C60.1333 58.9933 59.1022 62.8156 57.04 66.3C55.0133 69.7844 52.3822 72.3267 49.1466 73.9267C46.8 75.0644 44.4178 75.6333 42 75.6333C36.88 75.6333 32.56 73.5711 29.04 69.4467C25.5911 65.4644 23.8666 60.5933 23.8666 54.8333C23.8666 50.6733 24.88 46.8511 26.9066 43.3667C28.9689 39.8822 31.6178 37.34 34.8533 35.74C37.2 34.6022 39.5822 34.0333 42 34.0333C47.12 34.0333 51.44 36.0956 54.96 40.22C57.3422 43.0289 58.9066 46.3 59.6533 50.0333H76.6666ZM50.32 41.6067C47.8666 39.4022 45.0933 38.3 42 38.3C38.9066 38.3 36.1333 39.4022 33.68 41.6067C31.2266 43.8111 29.5733 46.62 28.72 50.0333H55.28C54.4266 46.62 52.7733 43.8111 50.32 41.6067ZM55.8666 54.8333V54.3H28.1333V54.8333C28.1333 59.3844 29.4844 63.2778 32.1866 66.5133C34.9244 69.7489 38.1955 71.3667 42 71.3667C45.8044 71.3667 49.0578 69.7489 51.76 66.5133C54.4978 63.2778 55.8666 59.3844 55.8666 54.8333ZM39.8666 28.1667V17.5H44.1333V28.1667H39.8666ZM52.24 30.4067L59.7066 22.94L62.6933 25.9267L55.2266 33.3933L52.24 30.4067ZM21.3066 25.9267L24.2933 22.94L31.76 30.4067L28.7733 33.3933L21.3066 25.9267Z" fill="var(--pimeja)"/>
</svg>
