<svg width="100" height="100" viewBox="0 0 100 100" fill="none" xmlns="http://www.w3.org/2000/svg">
<path d="M66.5867 68.7533C62 73.34 56.4711 75.6333 50 75.6333C43.5289 75.6333 38 73.34 33.4133 68.7533C28.8267 64.1667 26.5333 58.6378 26.5333 52.1667V50.0333H73.4667V52.1667C73.4667 58.6378 71.1733 64.1667 66.5867 68.7533ZM30.9067 54.3C31.44 59.1356 33.52 63.1889 37.1467 66.46C40.8089 69.7311 45.0933 71.3667 50 71.3667C54.9067 71.3667 59.1733 69.7311 62.8 66.46C66.4622 63.1889 68.56 59.1356 69.0933 54.3H30.9067ZM43.76 44.4333L39.3333 33.7667L34.9067 44.4333L30.96 42.8333L39.3333 22.5667L47.7067 42.8333L43.76 44.4333ZM65.0933 44.4333L60.6667 33.7667L56.24 44.4333L52.2933 42.8333L60.6667 22.5667L69.04 42.8333L65.0933 44.4333Z" fill="var(--pimeja)"/>
</svg>
