<svg width="100" height="100" viewBox="0 0 100 100" fill="none" xmlns="http://www.w3.org/2000/svg">
<path d="M70.8001 46.8333C70.8001 51.7756 69.2534 56.1489 66.1601 59.9533L77.0934 70.94L74.1067 73.9267L63.1201 62.9933C59.3156 66.0867 54.9423 67.6333 50.0001 67.6333C45.0579 67.6333 40.6845 66.0867 36.8801 62.9933L25.8934 73.9267L22.9067 70.94L33.8401 59.9533C30.7467 56.1489 29.2001 51.7756 29.2001 46.8333C29.2001 41.0733 31.2267 36.1667 35.2801 32.1133C39.3334 28.06 44.2401 26.0333 50.0001 26.0333C55.7601 26.0333 60.6667 28.06 64.7201 32.1133C68.7734 36.1667 70.8001 41.0733 70.8001 46.8333ZM38.3201 58.5133C41.5556 61.7489 45.449 63.3667 50.0001 63.3667C54.5512 63.3667 58.4445 61.7489 61.6801 58.5133C64.9156 55.2778 66.5334 51.3844 66.5334 46.8333C66.5334 42.2822 64.9156 38.3889 61.6801 35.1533C58.4445 31.9178 54.5512 30.3 50.0001 30.3C45.449 30.3 41.5556 31.9178 38.3201 35.1533C35.0845 38.3889 33.4667 42.2822 33.4667 46.8333C33.4667 51.3844 35.0845 55.2778 38.3201 58.5133Z" fill="var(--pimeja)"/>
<path fill-rule="evenodd" clip-rule="evenodd" d="M42.0001 44.8792C42.0001 45.6258 42.249 46.2658 42.7467 46.7992C43.2801 47.2969 43.9201 47.5458 44.6667 47.5458C45.4134 47.5458 46.0356 47.2969 46.5334 46.7992C47.0667 46.2658 47.3334 45.6258 47.3334 44.8792C47.3334 44.1325 47.0667 43.5103 46.5334 43.0125C46.0356 42.4792 45.4134 42.2125 44.6667 42.2125C43.9201 42.2125 43.2801 42.4792 42.7467 43.0125C42.249 43.5103 42.0001 44.1325 42.0001 44.8792ZM52.6667 44.8792C52.6667 45.6258 52.9156 46.2658 53.4134 46.7992C53.9467 47.2969 54.5867 47.5458 55.3334 47.5458C56.0801 47.5458 56.7023 47.2969 57.2001 46.7992C57.7334 46.2658 58.0001 45.6258 58.0001 44.8792C58.0001 44.1325 57.7334 43.5103 57.2001 43.0125C56.7023 42.4792 56.0801 42.2125 55.3334 42.2125C54.5867 42.2125 53.9467 42.4792 53.4134 43.0125C52.9156 43.5103 52.6667 44.1325 52.6667 44.8792Z" fill="var(--pimeja)"/>
</svg>
