<svg width="100" height="100" viewBox="0 0 100 100" fill="none" xmlns="http://www.w3.org/2000/svg">
<path d="M70.8001 46.8333C70.8001 51.7756 69.2534 56.1489 66.1601 59.9533L77.0934 70.94L74.1067 73.9267L63.1201 62.9933C59.3156 66.0867 54.9423 67.6333 50.0001 67.6333C45.0579 67.6333 40.6845 66.0867 36.8801 62.9933L25.8934 73.9267L22.9067 70.94L33.8401 59.9533C30.7467 56.1489 29.2001 51.7756 29.2001 46.8333C29.2001 41.0733 31.2267 36.1667 35.2801 32.1133C39.3334 28.06 44.2401 26.0333 50.0001 26.0333C55.7601 26.0333 60.6667 28.06 64.7201 32.1133C68.7734 36.1667 70.8001 41.0733 70.8001 46.8333ZM38.3201 58.5133C41.5556 61.7489 45.449 63.3667 50.0001 63.3667C54.5512 63.3667 58.4445 61.7489 61.6801 58.5133C64.9156 55.2778 66.5334 51.3844 66.5334 46.8333C66.5334 42.2822 64.9156 38.3889 61.6801 35.1533C58.4445 31.9178 54.5512 30.3 50.0001 30.3C45.449 30.3 41.5556 31.9178 38.3201 35.1533C35.0845 38.3889 33.4667 42.2822 33.4667 46.8333C33.4667 51.3844 35.0845 55.2778 38.3201 58.5133Z" fill="var(--pimeja)"/>
</svg>
