<svg width="100" height="100" viewBox="0 0 100 100" fill="none" xmlns="http://www.w3.org/2000/svg">
<path d="M59.6001 64.9667C51.9201 64.9667 44.1512 60.8778 36.2934 52.7C34.6934 54.62 33.129 56.6644 31.6001 58.8333C30.1068 61.0022 29.0579 62.5844 28.4534 63.58C27.849 64.5756 27.4757 65.1978 27.3334 65.4467L23.6001 63.42C26.9423 57.8733 30.2134 53.2333 33.4134 49.5C30.2134 45.7667 26.9423 41.1267 23.6001 35.58L27.3334 33.5533L27.5468 33.9267C27.689 34.1756 27.9023 34.5311 28.1868 34.9933C28.4712 35.42 28.7912 35.9356 29.1468 36.54C29.5379 37.1444 29.9823 37.8378 30.4801 38.62C31.0134 39.3667 31.5645 40.1489 32.1334 40.9667C32.7023 41.7489 33.3423 42.62 34.0534 43.58C34.8001 44.5044 35.5468 45.4111 36.2934 46.3C44.2579 38.1222 52.0268 34.0333 59.6001 34.0333C64.4001 34.0333 68.3468 35.4911 71.4401 38.4067C74.569 41.2867 76.1334 44.9844 76.1334 49.5C76.1334 54.0156 74.569 57.7311 71.4401 60.6467C68.3468 63.5267 64.4001 64.9667 59.6001 64.9667ZM39.1734 49.5C46.2845 56.9667 53.0934 60.7 59.6001 60.7C63.1912 60.7 66.1245 59.6689 68.4001 57.6067C70.7112 55.5089 71.8668 52.8067 71.8668 49.5C71.8668 46.1933 70.7112 43.5089 68.4001 41.4467C66.1245 39.3489 63.1912 38.3 59.6001 38.3C53.129 38.3 46.3201 42.0333 39.1734 49.5ZM50.7468 48.7533C50.249 48.22 50.0001 47.58 50.0001 46.8333C50.0001 46.0867 50.249 45.4644 50.7468 44.9667C51.2801 44.4333 51.9201 44.1667 52.6668 44.1667C53.4134 44.1667 54.0357 44.4333 54.5334 44.9667C55.0668 45.4644 55.3334 46.0867 55.3334 46.8333C55.3334 47.58 55.0668 48.22 54.5334 48.7533C54.0357 49.2511 53.4134 49.5 52.6668 49.5C51.9201 49.5 51.2801 49.2511 50.7468 48.7533ZM61.4134 48.7533C60.9157 48.22 60.6668 47.58 60.6668 46.8333C60.6668 46.0867 60.9157 45.4644 61.4134 44.9667C61.9468 44.4333 62.5868 44.1667 63.3334 44.1667C64.0801 44.1667 64.7023 44.4333 65.2001 44.9667C65.7334 45.4644 66.0001 46.0867 66.0001 46.8333C66.0001 47.58 65.7334 48.22 65.2001 48.7533C64.7023 49.2511 64.0801 49.5 63.3334 49.5C62.5868 49.5 61.9468 49.2511 61.4134 48.7533Z" fill="var(--pimeja)"/>
</svg>
