<svg width="100" height="100" viewBox="0 0 100 100" fill="none" xmlns="http://www.w3.org/2000/svg">
<path d="M35.9734 71.5267C32.2756 69.18 29.3778 66.14 27.2801 62.4067L20.2934 64.86L18.9067 60.8067L25.4667 58.5133C24.4001 55.6333 23.8667 52.6289 23.8667 49.5C23.8667 42.3178 26.4267 36.1667 31.5467 31.0467C35.4934 27.1 40.1512 24.6644 45.5201 23.74L46.4801 18.8333L48.6667 23.42C48.809 23.42 49.0223 23.42 49.3067 23.42C49.6267 23.3844 49.8579 23.3667 50.0001 23.3667C57.1823 23.3667 63.3334 25.9267 68.4534 31.0467C71.4756 34.0689 73.609 37.5 74.8534 41.34L80.2401 39.4733L81.6267 43.5267L75.8134 45.5533C76.0267 46.8333 76.1334 48.1489 76.1334 49.5C76.1334 56.0067 73.9645 61.7489 69.6267 66.7267L73.2534 74.1933L69.4134 76.0067L66.4267 69.82C64.2934 71.5267 61.8045 72.9133 58.9601 73.98C56.1156 75.0822 53.129 75.6333 50.0001 75.6333C46.4801 75.6333 43.1023 74.9578 39.8667 73.6067L38.7467 79.26L34.5867 78.4067L35.9734 71.5267ZM70.8001 42.78C69.4134 38.4778 66.8712 34.9222 63.1734 32.1133C59.5112 29.2689 55.369 27.7756 50.7467 27.6333L59.9201 46.5667L70.8001 42.78ZM55.8134 47.9533L48.1867 32.1667L44.1867 52.0067L55.8134 47.9533ZM28.1334 49.5C28.1334 52.1311 28.5956 54.6733 29.5201 57.1267L39.5467 53.66L44.6134 28.3267C39.849 29.5356 35.9023 32.1133 32.7734 36.06C29.6801 39.9711 28.1334 44.4511 28.1334 49.5ZM31.3867 60.9667C32.8801 63.3489 34.7112 65.3578 36.8801 66.9933L38.5334 58.5133L31.3867 60.9667ZM50.0001 71.3667C55.5467 71.3667 60.3823 69.5356 64.5067 65.8733L57.7334 51.8467L43.2267 56.86L40.7734 69.2867C43.7245 70.6733 46.8001 71.3667 50.0001 71.3667ZM71.8667 49.5C71.8667 48.6467 71.8134 47.7933 71.7067 46.94L61.7867 50.4067L67.6001 62.46C70.4445 58.5844 71.8667 54.2644 71.8667 49.5Z" fill="var(--pimeja)"/>
</svg>
