<svg width="100" height="100" viewBox="0 0 100 100" fill="none" xmlns="http://www.w3.org/2000/svg">
<path d="M70.2667 75.6333H29.7333L49.36 49.5C45.9111 49.3222 42.9778 48.0244 40.56 45.6067C37.9644 43.0111 36.6667 39.8644 36.6667 36.1667C36.6667 32.4689 37.9644 29.3222 40.56 26.7267C43.1556 24.1311 46.3022 22.8333 50 22.8333C53.6978 22.8333 56.8444 24.1311 59.44 26.7267C62.0356 29.3222 63.3333 32.4689 63.3333 36.1667C63.3333 39.8644 62.0356 43.0111 59.44 45.6067C57.0222 48.0244 54.0889 49.3222 50.64 49.5L70.2667 75.6333ZM38.2667 71.3667H61.7333L50 55.74L38.2667 71.3667ZM52.1333 44.9667C53.7689 44.5756 55.1911 43.7756 56.4 42.5667C57.6089 41.3578 58.4089 39.9356 58.8 38.3H52.1333V44.9667ZM58.8 34.0333C58.4089 32.3978 57.6089 30.9756 56.4 29.7667C55.1911 28.5578 53.7689 27.7578 52.1333 27.3667V34.0333H58.8ZM47.8667 27.3667C46.2311 27.7578 44.8089 28.5578 43.6 29.7667C42.3911 30.9756 41.5911 32.3978 41.2 34.0333H47.8667V27.3667ZM41.2 38.3C41.5911 39.9356 42.3911 41.3578 43.6 42.5667C44.8089 43.7756 46.2311 44.5756 47.8667 44.9667V38.3H41.2Z" fill="var(--pimeja)"/>
</svg>
