<svg width="100" height="100" viewBox="0 0 100 100" fill="none" xmlns="http://www.w3.org/2000/svg">
<path d="M36.8024 23.4923C39.23 23.6035 41.0787 24.5294 42.7147 25.7266C43.5973 26.3727 44.407 27.0915 45.2259 27.8129C45.9228 28.4267 46.6359 29.0496 47.3744 29.5936L47.3785 29.5956L47.6993 29.8245L47.7085 29.8327L47.7197 29.8408L47.732 29.85L47.7412 29.8572L47.968 30.0145L47.9803 30.0217L48.0109 30.04L48.015 30.0441C48.6715 30.4627 49.4147 30.5026 50.1114 30.4048C50.8106 30.3063 51.5173 30.0614 52.0873 29.8786C53.1461 29.5391 54.3013 29.0876 55.4383 28.6138L55.4393 28.6128C58.1633 27.4725 62.134 25.8023 65.9368 25.7992H65.9449L66.4231 25.8074H66.4333L66.8746 25.8329C69.046 25.999 70.7189 26.7519 71.9839 27.8752C73.3399 29.0799 74.2824 30.7624 74.8353 32.7444L74.8363 32.7464L74.9405 33.1418L74.9467 33.1673C74.9486 33.1748 74.9504 33.1824 74.9528 33.1898L74.9538 33.1929L75.0284 33.5157L75.0304 33.5218L75.0325 33.531L75.149 34.1277C75.2232 34.5633 75.2695 34.9823 75.2879 35.3822L75.2971 35.7766C75.297 37.3286 74.9377 38.6789 74.4624 39.9919C74.2223 40.6551 73.9587 41.2962 73.6931 41.9586C73.4336 42.6058 73.1749 43.2734 72.9616 43.959L72.9545 43.9845L72.9524 43.9907L72.9504 43.9988L72.9412 44.0234C72.7363 44.7797 72.7276 45.1676 72.7276 45.3638V45.4046C72.7276 45.4221 72.7288 45.4395 72.7317 45.4567L72.7399 45.5047C72.8414 46.1113 73.1979 46.6508 73.5726 47.1087C73.763 47.3414 73.9824 47.5799 74.2172 47.8249L74.2213 47.83L74.2233 47.831L74.962 48.5809L74.963 48.583C74.9668 48.5878 74.9712 48.5927 74.9753 48.5973L75.3645 49.0315L75.3655 49.0325C75.5541 49.2477 75.7491 49.4785 75.9397 49.7293L76.1287 49.9877L76.3739 50.3566L76.376 50.3606L76.38 50.3678L76.5527 50.661L76.5568 50.6682L76.5609 50.6743L76.5639 50.6794L76.7499 51.0431L76.7509 51.0451L76.757 51.0584C77.008 51.5976 77.1678 52.1666 77.2454 52.7503L77.275 53.0159V53.019L77.2934 53.2918L77.2944 53.3101L77.3016 53.6228V53.6555L77.2924 53.9957V54.0038L77.2914 54.0079C77.1886 55.8656 76.3319 57.5362 75.2154 58.5584L75.1868 58.5829C75.1807 58.5881 75.176 58.5946 75.1704 58.6002L75.1561 58.6135C73.4718 60.1662 71.8051 60.4198 69.2602 61.2667L68.7228 61.4445C68.7121 61.4481 68.7014 61.4521 68.6911 61.4568L68.4449 61.5692L68.1118 61.7204C67.7408 61.8884 67.4216 62.0659 67.1372 62.269C65.9412 63.1234 65.4166 63.6965 65.2216 64.2336C65.2124 64.252 65.2045 64.271 65.1991 64.2908L65.1715 64.393C65.1703 64.3976 65.1695 64.4026 65.1685 64.4073L65.1174 64.6198L65.1164 64.6259C65.0635 64.8688 65.0211 65.1596 65.0203 65.5904L65.0214 65.6169L65.0326 65.9643C65.0327 65.9704 65.0332 65.9766 65.0336 65.9827L65.0827 66.6641V66.6672C65.1031 66.9159 65.1262 67.1796 65.1491 67.4395C65.2127 68.1633 65.2706 68.8754 65.2706 69.3623L65.2655 69.725C65.2159 71.5194 64.789 73.0489 63.779 74.2611C62.5185 75.7729 60.6587 76.4348 58.54 76.5118H58.5308L58.1222 76.5189H58.1048L57.6195 76.5097H57.6113C55.1063 76.4137 52.529 75.6222 50.6815 74.7362L50.6488 74.7198L50.6457 74.7178L50.3147 74.5533C50.3055 74.5487 50.2957 74.5447 50.2861 74.541L50.282 74.539L50.2708 74.5339L50.0522 74.4215L50.047 74.4184C50.0411 74.4149 50.0348 74.4114 50.0287 74.4082L49.999 74.3929L49.9868 74.3847L49.5189 74.1222L49.5148 74.1191L49.5107 74.117L49.5097 74.116C47.4526 72.8977 46.4913 71.4717 45.4517 70.0631L45.4506 70.0601L44.9735 69.4277L44.9449 69.395L44.6803 69.064L44.6783 69.0609L44.384 68.7003L44.382 68.6972L44.3605 68.6717C44.2686 68.5622 44.116 68.5309 43.9907 68.5889L43.9396 68.6185L43.9202 68.6328L43.531 68.8985C42.6952 69.467 41.8986 70.1662 41.126 70.8559C40.3399 71.5578 39.5701 72.2557 38.7384 72.888C37.1982 74.0586 35.5011 74.9546 33.3196 75.0651L33.3114 75.0662H33.3063L32.8629 75.0764H32.8517C31.2534 75.0737 29.6251 74.5233 28.1204 73.3784L27.8211 73.1414L27.8109 73.1342L27.7935 73.1189L27.5667 72.9227C27.5578 72.915 27.5468 72.91 27.5371 72.9033L27.5023 72.8696L27.4788 72.8482L27.4768 72.8451L27.4666 72.8359L27.1836 72.5774L27.1682 72.5641L27.1529 72.5519L26.8464 72.3057C26.8322 72.2581 26.8082 72.2126 26.7708 72.1749C24.2175 69.5981 22.9449 66.528 22.7302 63.3315L22.7016 62.6909V62.6879L22.6975 62.3456V62.3436C22.6976 59.5687 23.4621 56.7141 25.0156 53.9568C25.0167 53.955 25.0167 53.9526 25.0177 53.9507L25.0187 53.9517L25.0412 53.9078L25.0463 53.9007C26.0204 52.1367 27.1914 50.1814 27.9079 48.1661C27.9096 48.1615 27.9106 48.1566 27.912 48.1518L27.913 48.1488L27.9212 48.1263L27.9222 48.1243L27.9284 48.1069L27.9304 48.1008C28.2117 47.2489 28.4079 46.4059 28.4525 45.5865L28.4617 45.2371C28.4616 44.339 28.3223 43.4581 27.8854 42.5685L27.8752 42.5481V42.5461L27.7363 42.2355C27.1076 40.768 26.7453 39.0591 26.6625 37.306L26.6492 36.93V36.928L26.6441 36.5336L26.6584 35.8543C26.7223 34.2786 27.004 32.6797 27.4226 31.265L27.4523 31.1649L27.4533 31.1628C28.6225 27.3682 31.2374 23.4813 36.3089 23.4811L36.8024 23.4923ZM36.1199 28.0202C34.2355 28.0208 32.6476 29.5546 31.7279 32.5625C31.7267 32.5663 31.7248 32.5699 31.7238 32.5737L31.7207 32.584L31.7166 32.5972L31.7136 32.6075C31.711 32.6142 31.7106 32.622 31.7085 32.6289C31.3122 33.9113 31.1844 35.2376 31.1843 36.4652V36.4724L31.1966 37.024V37.0363L31.2262 37.5195L31.2273 37.5257C31.3199 38.6621 31.5638 39.7413 31.9608 40.5395L32.1856 41.0187C32.541 41.8281 32.7722 42.636 32.9079 43.4288L32.961 43.769L33.0131 44.2164L33.0141 44.2287L33.0499 44.715L33.0509 44.7354V44.7395L33.0642 45.2892V45.3076L33.0591 45.6335V45.6406C32.9631 48.7106 31.5908 51.4936 30.2168 53.9558L29.6345 54.9867L29.5344 55.1614L29.5323 55.1655L29.4261 55.3575L29.3341 55.5189C29.333 55.5209 29.3322 55.5231 29.3311 55.5251L28.9858 56.1381C28.9832 56.1425 28.9809 56.1478 28.9786 56.1524L28.9725 56.1636C27.8715 58.0648 27.1999 60.0171 27.1202 61.9564L27.1121 62.3436V62.3528L27.1223 62.7951C27.1223 62.7975 27.1232 62.7999 27.1233 62.8023V62.8237C27.2322 64.923 28.0617 66.9054 29.7397 68.6778L29.7448 68.6829L30.0932 69.0343L30.1034 69.0435L30.4896 69.4001L30.5131 69.4246C30.5189 69.4304 30.5253 69.4356 30.5315 69.441L30.837 69.7015L30.8462 69.7086C31.5866 70.2946 32.288 70.5345 32.8537 70.5372H32.866L33.0999 70.529L33.1122 70.528C34.3412 70.4359 35.5291 69.6905 36.4683 68.9659C37.4707 68.1923 38.4949 67.185 39.0643 66.6968C39.7193 66.1354 40.5294 65.4598 41.4499 64.9232C42.3119 64.421 43.2206 64.0703 44.1358 64.0262L44.3187 64.0211H44.333L44.6006 64.0283H44.6119L44.6139 64.0293C45.0285 64.0535 45.4346 64.1338 45.8379 64.2959L46.0023 64.3664L46.0156 64.3726L46.2026 64.4645L46.2056 64.4665L46.2108 64.4686L46.2118 64.4696L46.224 64.4768L46.4703 64.6208L46.4774 64.6259L46.4958 64.6361L46.506 64.6433L46.5142 64.6494C46.5211 64.6546 46.5284 64.6592 46.5356 64.6637C46.7961 64.8272 47.0272 65.0007 47.2365 65.1807L47.4388 65.3625L47.7003 65.6241L48.0048 65.9653L48.0129 65.9735L48.016 65.9776L48.4134 66.4782C48.4163 66.4817 48.4196 66.485 48.4226 66.4884L48.8834 67.0963L48.8895 67.1055L48.8946 67.1126L48.8957 67.1147L48.9212 67.1494C49.8255 68.3937 50.6472 69.5629 52.0995 70.3553L52.1098 70.3604L52.123 70.3666L52.3805 70.4994L52.3938 70.5055L52.405 70.5106L52.4142 70.5147L52.4275 70.5219L52.4367 70.5259L52.97 70.7681L53.5155 70.9928L53.5196 70.9949C54.8615 71.5236 56.614 72.0389 58.1058 72.0411H58.113L58.2979 72.037H58.3071C58.7199 72.0152 59.0971 71.9275 59.3829 71.8377C59.5497 71.7853 59.6987 71.7284 59.815 71.6763L59.8263 71.6712L59.9693 71.5997C59.9764 71.5962 59.984 71.5925 59.9908 71.5885L60.002 71.5823C60.0135 71.5766 60.025 71.57 60.0357 71.5629L60.051 71.5527L60.05 71.5517L60.0684 71.5415C60.0778 71.5355 60.0873 71.529 60.096 71.5221L60.2033 71.4362C60.2201 71.4227 60.2355 71.407 60.2492 71.3903L60.3422 71.2769C60.3481 71.2696 60.3543 71.2621 60.3596 71.2544C60.473 71.087 60.5489 70.8836 60.6027 70.669L60.6426 70.4851C60.6799 70.289 60.7086 70.0555 60.7223 69.7781V69.7577L60.7314 69.3694V69.3623C60.7314 68.7156 60.6643 68.0581 60.6027 67.4498C60.5794 67.2196 60.5558 66.9939 60.5363 66.7714L60.4914 66.1124L60.4903 66.0981L60.4811 65.6741V65.6598L60.4934 65.1725V65.1674C60.6134 62.714 61.6233 60.9581 63.0935 59.6331C64.69 58.1951 66.8611 57.2385 69.1274 56.5324L69.1509 56.5253C69.1563 56.5239 69.1618 56.5228 69.1672 56.5212L70.0315 56.2545C70.036 56.2533 70.0404 56.2518 70.0448 56.2504L70.0642 56.2443C70.0671 56.2434 70.0695 56.2412 70.0724 56.2402C70.4087 56.1356 70.7736 56.0143 71.0961 55.8724C71.7186 55.5984 72.5595 55.0967 72.743 54.1172L72.7471 54.0958L72.7481 54.0886L72.7491 54.0825L72.7522 54.0611L72.7511 54.06L72.7563 54.0396C72.7572 54.0348 72.7586 54.0301 72.7593 54.0253C72.8128 53.6576 72.7986 53.2782 72.5959 52.9628L72.5867 52.9464L72.5846 52.9444L72.5775 52.9332L72.5754 52.9291L72.5693 52.9178L72.5652 52.9107L72.5356 52.8576C72.5319 52.8511 72.5275 52.8444 72.5233 52.8381L72.3915 52.6399L72.3844 52.6297L72.0799 52.2384C71.8475 51.9563 71.5625 51.6363 71.3198 51.3935L71.2963 51.37C70.1836 50.1941 68.3108 48.1515 68.1946 45.326L68.1885 45.0501C68.1885 43.5227 68.7426 42.1221 69.3766 40.5845C69.9871 39.1041 70.6943 37.4509 70.6946 35.6509V35.6489L70.6925 35.3812V35.371L70.6833 35.1279L70.6823 35.1166L70.667 34.9123C70.6665 34.9062 70.6658 34.9 70.6649 34.8939L70.6241 34.5925L70.622 34.5782C70.6021 34.4693 70.5761 34.3615 70.5444 34.2564L70.5372 34.2339L70.4422 33.8518L70.4392 33.8396L70.3533 33.5474L70.3513 33.5423L70.2685 33.293C70.0702 32.7296 69.8343 32.2834 69.5697 31.926C69.34 31.616 69.101 31.3882 68.876 31.2149L68.6564 31.0586L68.6451 31.0525L68.3581 30.8798C68.3511 30.8757 68.3438 30.8712 68.3366 30.8676L68.3346 30.8666L68.3172 30.8584L68.2906 30.8472C68.2873 30.8457 68.2838 30.8444 68.2804 30.8431L68.2753 30.841L68.1006 30.7705L68.0894 30.7664L68.0751 30.7613L68.071 30.7593L68.0342 30.744L67.8983 30.697L67.885 30.6929L67.5428 30.5907L67.5326 30.5877L67.3344 30.5396C67.1303 30.495 66.9083 30.4586 66.6683 30.4344H66.6601L66.3393 30.4099L66.3229 30.4089L66.0185 30.4017H65.9899L65.9797 30.4007C65.3045 30.4027 64.3818 30.4712 63.3959 30.6684C61.1016 31.1274 58.8201 32.108 56.5917 33.0365C54.4517 33.9282 52.0887 34.9067 49.6445 35.0257L49.1541 35.038C47.5645 35.0378 46.1944 34.3061 45.1094 33.5882C45.1077 33.587 45.106 33.5853 45.1043 33.5841L45.0532 33.5504L45.044 33.5423L44.6221 33.2266C44.189 32.89 43.7221 32.4945 43.2204 32.0629C42.5482 31.4847 41.817 30.8472 41.0688 30.2638C39.7061 29.2015 38.0999 28.1585 36.4499 28.0325L36.1199 28.0202Z" fill="var(--pimeja)"/>
</svg>
