<svg width="100" height="100" viewBox="0 0 100 100" fill="none" xmlns="http://www.w3.org/2000/svg">
<path d="M50 70.78C48.9689 72.2378 47.6178 73.4111 45.9466 74.3C44.3111 75.1889 42.5333 75.6333 40.6133 75.6333C37.8755 75.6333 35.4578 74.7622 33.36 73.02C31.2978 71.2778 29.9822 69.18 29.4133 66.7267C29.2 65.8378 29.0933 64.9311 29.0933 64.0067C29.0933 61.4467 29.8578 59.1533 31.3866 57.1267C27.9733 56.0244 25.5733 53.82 24.1866 50.5133C23.6178 49.1622 23.3333 47.6867 23.3333 46.0867C23.3333 41.7489 25.1644 38.4422 28.8266 36.1667C30.6755 35.0289 32.6844 34.46 34.8533 34.46C36.0266 34.46 37.2355 34.6556 38.48 35.0467C38.4444 31.8111 39.5466 29.0556 41.7866 26.78C44.0622 24.5044 46.8 23.3667 50 23.3667C53.2 23.3667 55.92 24.5044 58.16 26.78C60.4355 29.0556 61.5555 31.8111 61.52 35.0467C62.7644 34.6556 63.9733 34.46 65.1466 34.46C67.7778 34.46 70.0711 35.2422 72.0266 36.8067C73.9822 38.3356 75.3333 40.2378 76.08 42.5133C76.4711 43.7578 76.6666 44.9489 76.6666 46.0867C76.6666 48.8244 75.9022 51.1711 74.3733 53.1267C72.88 55.0467 70.96 56.38 68.6133 57.1267C70.1422 59.1533 70.9067 61.4467 70.9067 64.0067C70.9067 67.74 69.4311 70.78 66.48 73.1267C64.3466 74.7978 61.9822 75.6333 59.3867 75.6333C57.4666 75.6333 55.6711 75.1889 54 74.3C52.3644 73.4111 51.0311 72.2378 50 70.78ZM34.8533 53.3933C35.1022 53.3933 35.4755 53.3578 35.9733 53.2867C36.4711 53.2156 36.8266 53.18 37.04 53.18C37.6089 53.18 38.1066 53.3933 38.5333 53.82C38.96 54.2111 39.1733 54.7089 39.1733 55.3133C39.1733 56.2378 38.7289 56.8778 37.84 57.2333C36.4533 57.8022 35.3511 58.7089 34.5333 59.9533C33.7511 61.1978 33.36 62.5489 33.36 64.0067C33.36 66.14 34.0711 67.9 35.4933 69.2867C36.9511 70.6733 38.6578 71.3667 40.6133 71.3667C42.5689 71.3667 44.2222 70.7089 45.5733 69.3933C46.9244 68.1133 47.6889 66.5311 47.8666 64.6467C47.9378 64.0778 48.1689 63.6156 48.56 63.26C48.9511 62.8689 49.4311 62.6733 50 62.6733C50.5689 62.6733 51.0489 62.8689 51.44 63.26C51.8311 63.6156 52.0622 64.0778 52.1333 64.6467C52.3111 66.5311 53.0755 68.1133 54.4266 69.3933C55.7778 70.7089 57.4311 71.3667 59.3867 71.3667C61.3422 71.3667 63.0311 70.6733 64.4533 69.2867C65.9111 67.9 66.64 66.14 66.64 64.0067C66.64 62.5489 66.2311 61.1978 65.4133 59.9533C64.6311 58.7089 63.5466 57.8022 62.16 57.2333C61.2711 56.8778 60.8266 56.2378 60.8266 55.3133C60.8266 54.7089 61.04 54.2111 61.4666 53.82C61.8933 53.3933 62.3911 53.18 62.96 53.18C63.1733 53.18 63.5289 53.2156 64.0266 53.2867C64.5244 53.3578 64.8978 53.3933 65.1466 53.3933C67.0666 53.3933 68.7555 52.7 70.2133 51.3133C71.6711 49.9267 72.4 48.1667 72.4 46.0333C72.4 44.1133 71.7066 42.4244 70.32 40.9667C68.9333 39.4733 67.2089 38.7267 65.1466 38.7267C62.9778 38.7267 61.1466 39.58 59.6533 41.2867C59.2267 41.7844 58.6755 42.0333 58 42.0333C57.3955 42.0333 56.88 41.82 56.4533 41.3933C56.0622 40.9667 55.8666 40.4689 55.8666 39.9C55.8666 39.4733 55.9733 39.1 56.1866 38.78C56.8978 37.6778 57.2533 36.3978 57.2533 34.94C57.2533 32.9844 56.5422 31.2778 55.12 29.82C53.6978 28.3622 51.9911 27.6333 50 27.6333C48.0089 27.6333 46.3022 28.3622 44.88 29.82C43.4578 31.2778 42.7466 32.9844 42.7466 34.94C42.7466 36.3978 43.1022 37.6778 43.8133 38.78C44.0266 39.1 44.1333 39.4733 44.1333 39.9C44.1333 40.4689 43.92 40.9667 43.4933 41.3933C43.1022 41.82 42.6044 42.0333 42 42.0333C41.3244 42.0333 40.7733 41.7844 40.3466 41.2867C38.8533 39.58 37.0222 38.7267 34.8533 38.7267C32.7911 38.7267 31.0666 39.4733 29.68 40.9667C28.2933 42.4244 27.6 44.1133 27.6 46.0333C27.6 48.1667 28.3289 49.9267 29.7866 51.3133C31.2444 52.7 32.9333 53.3933 34.8533 53.3933Z" fill="var(--pimeja)"/>
</svg>
