<svg width="100" height="100" viewBox="0 0 100 100" fill="none" xmlns="http://www.w3.org/2000/svg">
<path d="M26.1067 31.26L29.0934 28.2733L36.56 35.74L33.5734 38.7267L26.1067 31.26ZM63.44 35.74L70.9067 28.2733L73.8934 31.26L66.4267 38.7267L63.44 35.74ZM47.8667 33.5V22.8333H52.1334V33.5H47.8667ZM50 43.6333C46.1956 43.6333 42.9245 45.0022 40.1867 47.74C37.4845 50.4422 36.1334 53.6956 36.1334 57.5C36.1334 58.9222 36.3111 60.22 36.6667 61.3933L61.52 49.82C60.24 47.9 58.5867 46.3889 56.56 45.2867C54.5334 44.1844 52.3467 43.6333 50 43.6333ZM50 39.3667C53.4134 39.3667 56.4356 40.1844 59.0667 41.82C61.6978 43.42 63.8134 45.4822 65.4134 48.0067L71.6534 45.0733L73.4667 48.9133L67.2267 51.7933C67.8311 53.5356 68.1334 55.4378 68.1334 57.5C68.1334 62.4778 66.3556 66.7444 62.8 70.3C59.2445 73.8556 54.9778 75.6333 50 75.6333C46.5867 75.6333 43.5645 74.8156 40.9334 73.18C38.3022 71.58 36.1867 69.5178 34.5867 66.9933L28.3467 69.9267L26.5334 66.0867L32.7734 63.2067C32.1689 61.4644 31.8667 59.5622 31.8667 57.5C31.8667 52.5222 33.6445 48.2556 37.2 44.7C40.7556 41.1444 45.0222 39.3667 50 39.3667ZM38.48 65.18C39.76 67.1 41.4134 68.6111 43.44 69.7133C45.4667 70.8156 47.6534 71.3667 50 71.3667C53.8045 71.3667 57.0578 69.9978 59.76 67.26C62.4978 64.5578 63.8667 61.3044 63.8667 57.5C63.8667 56.0778 63.6889 54.78 63.3334 53.6067L38.48 65.18Z" fill="var(--pimeja)"/>
</svg>
