<svg width="100" height="100" viewBox="0 0 100 100" fill="none" xmlns="http://www.w3.org/2000/svg">
<path d="M74 55.3667V59.6333H54.1067L64.0267 73.8733L60.5067 76.3267L50 61.2333L39.4933 76.3267L35.9733 73.8733L45.8933 59.6333H26V55.3667H45.8933L35.9733 41.1267L39.4933 38.6733L50 53.7667L60.5067 38.6733L64.0267 41.1267L54.1067 55.3667H74ZM47.8667 31.3667V20.7H52.1333V31.3667H47.8667ZM57.5733 32.0067L65.04 24.54L68.0267 27.5267L60.56 34.9933L57.5733 32.0067ZM31.9733 27.5267L34.96 24.54L42.4267 32.0067L39.44 34.9933L31.9733 27.5267Z" fill="var(--pimeja)"/>
</svg>
