<svg width="100" height="100" viewBox="0 0 100 100" fill="none" xmlns="http://www.w3.org/2000/svg">
<path d="M52.6667 48.9667C50.1778 48.9667 47.8845 48.2911 45.7867 46.94C43.7245 45.5533 42.1778 43.8111 41.1467 41.7133C39.1911 42.6022 37.3245 43.8111 35.5467 45.34C30.6045 49.5356 28.1334 54.8333 28.1334 61.2333C28.1334 64.86 29.1467 67.5444 31.1734 69.2867C33.2 71.0289 35.5645 71.9 38.2667 71.9C39.6534 71.9 40.9689 71.6333 42.2134 71.1C43.4934 70.5667 44.4534 70.0333 45.0934 69.5C45.7334 68.9667 46.6934 68.0956 47.9734 66.8867C49.0045 65.8911 49.8223 65.1444 50.4267 64.6467C51.0667 64.1133 51.9378 63.4911 53.04 62.78C54.1423 62.0689 55.3156 61.5533 56.56 61.2333C57.84 60.8778 59.2089 60.7 60.6667 60.7C64.72 60.7 68.3111 62.1222 71.44 64.9667C74.5689 67.8111 76.1334 71.5444 76.1334 76.1667H71.8667C71.8667 72.8244 70.7289 70.1222 68.4534 68.06C66.1778 65.9978 63.5823 64.9667 60.6667 64.9667C59.28 64.9667 57.9467 65.2333 56.6667 65.7667C55.4223 66.3 54.48 66.8333 53.84 67.3667C53.2 67.9 52.24 68.7711 50.96 69.98C49.9289 70.9756 49.0934 71.7222 48.4534 72.22C47.8489 72.7533 46.9956 73.3756 45.8934 74.0867C44.7911 74.7978 43.6 75.3133 42.32 75.6333C41.0756 75.9889 39.7245 76.1667 38.2667 76.1667C34 76.1667 30.5334 74.7622 27.8667 71.9533C25.2 69.1444 23.8667 65.5711 23.8667 61.2333C23.8667 55.6511 25.3956 50.8333 28.4534 46.78C31.5111 42.6911 35.3334 39.6156 39.92 37.5533C39.8845 37.2333 39.8667 36.7711 39.8667 36.1667C39.8667 32.6111 41.1111 29.5889 43.6 27.1C46.0889 24.6111 49.1111 23.3667 52.6667 23.3667C56.2223 23.3667 59.2445 24.6111 61.7334 27.1C64.2223 29.5889 65.4667 32.6111 65.4667 36.1667C65.4667 39.7222 64.2223 42.7444 61.7334 45.2333C59.2445 47.7222 56.2223 48.9667 52.6667 48.9667ZM58.6934 30.14C57.0223 28.4689 55.0134 27.6333 52.6667 27.6333C50.32 27.6333 48.3111 28.4689 46.64 30.14C44.9689 31.8111 44.1334 33.82 44.1334 36.1667C44.1334 38.5133 44.9689 40.5222 46.64 42.1933C48.3111 43.8644 50.32 44.7 52.6667 44.7C55.0134 44.7 57.0223 43.8644 58.6934 42.1933C60.3645 40.5222 61.2 38.5133 61.2 36.1667C61.2 33.82 60.3645 31.8111 58.6934 30.14ZM58 75.0467C57.2889 74.3356 56.9334 73.4644 56.9334 72.4333C56.9334 71.4022 57.2889 70.5133 58 69.7667C58.7467 69.0556 59.6356 68.7 60.6667 68.7C61.6978 68.7 62.5689 69.0556 63.28 69.7667C64.0267 70.5133 64.4 71.4022 64.4 72.4333C64.4 73.4644 64.0267 74.3356 63.28 75.0467C62.5689 75.7933 61.6978 76.1667 60.6667 76.1667C59.6356 76.1667 58.7467 75.7933 58 75.0467Z" fill="var(--pimeja)"/>
</svg>
