<svg width="100" height="100" viewBox="0 0 100 100" fill="none" xmlns="http://www.w3.org/2000/svg">
<path d="M29.2 23.9H33.4667V36.1667C33.4667 39.9711 34.8178 43.2422 37.52 45.98C40.2578 48.6822 43.5289 50.0333 47.3334 50.0333C51.1378 50.0333 54.3911 48.6822 57.0934 45.98C59.8311 43.2422 61.2 39.9711 61.2 36.1667V23.9H64.7734L77.0934 36.2733L74.1067 39.26L65.4667 30.6733V36.1667C65.4667 41.1444 63.6889 45.4111 60.1334 48.9667C56.5778 52.5222 52.3111 54.3 47.3334 54.3C42.3556 54.3 38.0889 52.5222 34.5334 48.9667C30.9778 45.4111 29.2 41.1444 29.2 36.1667V23.9ZM49.4667 60.1667V76.1667H45.2V60.1667H49.4667ZM37.6267 60.06L29.0934 68.5933L26.1067 65.6067L34.64 57.0733L37.6267 60.06ZM68.56 65.6067L65.5734 68.5933L57.04 60.06L60.0267 57.0733L68.56 65.6067Z" fill="var(--pimeja)"/>
</svg>
