<svg width="100" height="100" viewBox="0 0 100 100" fill="none" xmlns="http://www.w3.org/2000/svg">
<path d="M50.6934 47.3667C51.1912 44.4156 52.6312 41.9089 55.0134 39.8467C57.4312 37.7489 60.2045 36.7 63.3334 36.7C66.8889 36.7 69.9112 37.9444 72.4 40.4333C74.8889 42.9222 76.1334 45.9444 76.1334 49.5C76.1334 53.0556 74.8889 56.0778 72.4 58.5667C69.9112 61.0556 66.8889 62.3 63.3334 62.3C60.2045 62.3 57.4312 61.2689 55.0134 59.2067C52.6312 57.1089 51.1912 54.5844 50.6934 51.6333H23.3334V47.3667H50.6934ZM57.3067 55.5267C58.9778 57.1978 60.9867 58.0333 63.3334 58.0333C65.68 58.0333 67.6889 57.1978 69.36 55.5267C71.0312 53.8556 71.8667 51.8467 71.8667 49.5C71.8667 47.1533 71.0312 45.1444 69.36 43.4733C67.6889 41.8022 65.68 40.9667 63.3334 40.9667C60.9867 40.9667 58.9778 41.8022 57.3067 43.4733C55.6356 45.1444 54.8 47.1533 54.8 49.5C54.8 51.8467 55.6356 53.8556 57.3067 55.5267Z" fill="var(--pimeja)"/>
</svg>
