<svg width="100" height="100" viewBox="0 0 100 100" fill="none" xmlns="http://www.w3.org/2000/svg">
<path d="M46.2133 66.6965C45.1822 65.6654 44.6666 64.4209 44.6666 62.9632C44.6666 61.5054 45.1822 60.2609 46.2133 59.2298C47.2799 58.1632 48.5421 57.6298 49.9999 57.6298C51.4577 57.6298 52.7022 58.1632 53.7333 59.2298C54.7999 60.2609 55.3333 61.5054 55.3333 62.9632C55.3333 64.4209 54.7999 65.6654 53.7333 66.6965C52.7022 67.7632 51.4577 68.2965 49.9999 68.2965C48.5421 68.2965 47.2799 67.7632 46.2133 66.6965Z" fill="var(--pimeja)"/>
<path fill-rule="evenodd" clip-rule="evenodd" d="M23.6362 43.6502C21.4673 41.4457 20.3829 38.7968 20.3829 35.7035H16.1162C16.1162 39.9702 17.6273 43.6146 20.6495 46.6368C23.6718 49.659 27.3162 51.1702 31.5829 51.1702C35.8495 51.1702 39.494 49.659 42.5162 46.6368C45.5384 43.6146 47.0495 39.9702 47.0495 35.7035H42.7829C42.7829 38.7968 41.6807 41.4457 39.4762 43.6502C37.3073 45.819 34.6762 46.9035 31.5829 46.9035C28.4895 46.9035 25.8407 45.819 23.6362 43.6502Z" fill="var(--pimeja)"/>
<path fill-rule="evenodd" clip-rule="evenodd" d="M60.4703 43.6502C58.3014 41.4457 57.217 38.7968 57.217 35.7035H52.9503C52.9503 39.9702 54.4614 43.6146 57.4837 46.6368C60.5059 49.659 64.1503 51.1702 68.417 51.1702C72.6837 51.1702 76.3281 49.659 79.3503 46.6368C82.3725 43.6146 83.8837 39.9702 83.8837 35.7035H79.617C79.617 38.7968 78.5148 41.4457 76.3103 43.6502C74.1414 45.819 71.5103 46.9035 68.417 46.9035C65.3237 46.9035 62.6748 45.819 60.4703 43.6502Z" fill="var(--pimeja)"/>
</svg>
