<svg width="100" height="100" viewBox="0 0 100 100" fill="none" xmlns="http://www.w3.org/2000/svg">
<path d="M64.9333 52.1667C67.7422 52.1667 70.1245 53.1622 72.08 55.1533C74.0711 57.1089 75.0667 59.4911 75.0667 62.3C75.0667 65.1089 74.0711 67.4911 72.08 69.4467C70.1245 71.4378 67.7422 72.4333 64.9333 72.4333C62.5156 72.4333 60.3822 71.6689 58.5333 70.14C56.6845 68.6467 55.5111 66.7444 55.0133 64.4333H44.9867C44.4889 66.7444 43.3156 68.6467 41.4667 70.14C39.6178 71.6689 37.4845 72.4333 35.0667 72.4333C32.2578 72.4333 29.8578 71.4378 27.8667 69.4467C25.9111 67.4911 24.9333 65.1089 24.9333 62.3C24.9333 59.4911 25.9111 57.1089 27.8667 55.1533C29.8578 53.1622 32.2578 52.1667 35.0667 52.1667C36.1334 52.1667 37.1822 52.3267 38.2133 52.6467L43.1734 44.1667C40.9689 42.14 39.8667 39.6511 39.8667 36.7C39.8667 33.8911 40.8445 31.5089 42.8 29.5533C44.7911 27.5622 47.1911 26.5667 50 26.5667C52.8089 26.5667 55.1911 27.5622 57.1467 29.5533C59.1378 31.5089 60.1334 33.8911 60.1334 36.7C60.1334 39.6511 59.0311 42.14 56.8267 44.1667L61.7867 52.6467C62.8178 52.3267 63.8667 52.1667 64.9333 52.1667ZM54.16 32.54C53.0222 31.4022 51.6356 30.8333 50 30.8333C48.3645 30.8333 46.9778 31.4022 45.84 32.54C44.7022 33.6778 44.1334 35.0644 44.1334 36.7C44.1334 38.3356 44.7022 39.7222 45.84 40.86C46.9778 41.9978 48.3645 42.5667 50 42.5667C51.6356 42.5667 53.0222 41.9978 54.16 40.86C55.2978 39.7222 55.8667 38.3356 55.8667 36.7C55.8667 35.0644 55.2978 33.6778 54.16 32.54ZM30.9067 66.46C32.0445 67.5978 33.4311 68.1667 35.0667 68.1667C36.7022 68.1667 38.0889 67.5978 39.2267 66.46C40.3645 65.3222 40.9333 63.9356 40.9333 62.3C40.9333 60.6644 40.3645 59.2778 39.2267 58.14C38.0889 57.0022 36.7022 56.4333 35.0667 56.4333C33.4311 56.4333 32.0445 57.0022 30.9067 58.14C29.7689 59.2778 29.2 60.6644 29.2 62.3C29.2 63.9356 29.7689 65.3222 30.9067 66.46ZM55.0133 60.1667C55.44 58.0689 56.4711 56.2911 58.1067 54.8333L53.1467 46.3533C52.1156 46.6733 51.0667 46.8333 50 46.8333C48.9333 46.8333 47.8845 46.6733 46.8534 46.3533L41.8933 54.8333C43.5289 56.2911 44.56 58.0689 44.9867 60.1667H55.0133ZM60.7733 66.46C61.9111 67.5978 63.2978 68.1667 64.9333 68.1667C66.5689 68.1667 67.9556 67.5978 69.0933 66.46C70.2311 65.3222 70.8 63.9356 70.8 62.3C70.8 60.6644 70.2311 59.2778 69.0933 58.14C67.9556 57.0022 66.5689 56.4333 64.9333 56.4333C63.2978 56.4333 61.9111 57.0022 60.7733 58.14C59.6356 59.2778 59.0667 60.6644 59.0667 62.3C59.0667 63.9356 59.6356 65.3222 60.7733 66.46Z" fill="var(--pimeja)"/>
</svg>
