<svg width="100" height="100" viewBox="0 0 100 100" fill="none" xmlns="http://www.w3.org/2000/svg">
<path d="M26.5334 23.3667H73.4668V76.1667H69.2001V55.6333C66.3912 58.3 63.369 59.6333 60.1334 59.6333C57.3601 59.6333 54.6934 58.7089 52.1334 56.86V76.1667H47.8668V53.0733C46.4446 51.7222 45.129 50.7089 43.9201 50.0333C42.7468 49.3222 41.3957 48.9667 39.8668 48.9667C38.4446 48.9667 37.0223 49.4467 35.6001 50.4067C34.1779 51.3311 33.1468 52.2022 32.5068 53.02C31.8668 53.8378 31.2979 54.6378 30.8001 55.42V76.1667H26.5334V23.3667ZM60.1334 55.3667C61.5557 55.3667 62.9779 54.9044 64.4001 53.98C65.8223 53.02 66.8534 52.1311 67.4935 51.3133C68.1334 50.4956 68.7023 49.6956 69.2001 48.9133V27.6333H30.8001V48.7C33.609 46.0333 36.6312 44.7 39.8668 44.7C41.1468 44.7 42.3379 44.86 43.4401 45.18C44.5779 45.5 45.6623 46.0156 46.6934 46.7267C47.7246 47.4022 48.5246 47.9889 49.0934 48.4867C49.6979 48.9489 50.4979 49.66 51.4935 50.62C52.6312 51.7222 53.5201 52.54 54.1601 53.0733C54.8001 53.6067 55.6712 54.1222 56.7734 54.62C57.8757 55.1178 58.9957 55.3667 60.1334 55.3667ZM37.0401 38.46C36.4357 37.82 36.1334 37.0556 36.1334 36.1667C36.1334 35.2778 36.4357 34.5311 37.0401 33.9267C37.6801 33.2867 38.4446 32.9667 39.3334 32.9667C40.2223 32.9667 40.969 33.2867 41.5734 33.9267C42.2134 34.5311 42.5334 35.2778 42.5334 36.1667C42.5334 37.0556 42.2134 37.82 41.5734 38.46C40.969 39.0644 40.2223 39.3667 39.3334 39.3667C38.4446 39.3667 37.6801 39.0644 37.0401 38.46ZM47.7068 38.46C47.1023 37.82 46.8001 37.0556 46.8001 36.1667C46.8001 35.2778 47.1023 34.5311 47.7068 33.9267C48.3468 33.2867 49.1112 32.9667 50.0001 32.9667C50.889 32.9667 51.6357 33.2867 52.2401 33.9267C52.8801 34.5311 53.2001 35.2778 53.2001 36.1667C53.2001 37.0556 52.8801 37.82 52.2401 38.46C51.6357 39.0644 50.889 39.3667 50.0001 39.3667C49.1112 39.3667 48.3468 39.0644 47.7068 38.46ZM58.3734 38.46C57.769 37.82 57.4668 37.0556 57.4668 36.1667C57.4668 35.2778 57.769 34.5311 58.3734 33.9267C59.0134 33.2867 59.7779 32.9667 60.6668 32.9667C61.5557 32.9667 62.3023 33.2867 62.9068 33.9267C63.5468 34.5311 63.8668 35.2778 63.8668 36.1667C63.8668 37.0556 63.5468 37.82 62.9068 38.46C62.3023 39.0644 61.5557 39.3667 60.6668 39.3667C59.7779 39.3667 59.0134 39.0644 58.3734 38.46Z" fill="var(--pimeja)"/>
</svg>
