<svg width="100" height="100" viewBox="0 0 100 100" fill="none" xmlns="http://www.w3.org/2000/svg">
<path d="M69.2001 62.5133C68.0623 61.6956 66.6579 61.02 64.9868 60.4867C63.3157 59.9178 61.6979 59.6333 60.1334 59.6333C57.5379 59.6333 54.8712 60.2556 52.1334 61.5V70.8333H47.8668V63.4733C45.3779 64.4689 42.7112 64.9667 39.8668 64.9667C36.6668 64.9667 33.6446 64.2378 30.8001 62.78V76.1667H26.5334V39.3667H73.4668V76.1667H69.2001V62.5133ZM30.8001 57.82C31.9379 58.6378 33.3423 59.3311 35.0134 59.9C36.6846 60.4333 38.3023 60.7 39.8668 60.7C42.4623 60.7 45.129 60.0778 47.8668 58.8333V49.5H52.1334V56.86C54.6223 55.8644 57.289 55.3667 60.1334 55.3667C63.3334 55.3667 66.3557 56.0956 69.2001 57.5533V43.6333H30.8001V57.82ZM47.8668 31.3667V20.7H52.1334V31.3667H47.8668ZM59.7068 32.0067L67.1735 24.54L70.1601 27.5267L62.6934 34.9933L59.7068 32.0067ZM29.8401 27.5267L32.8268 24.54L40.2934 32.0067L37.3068 34.9933L29.8401 27.5267Z" fill="var(--pimeja)"/>
</svg>
