<svg width="100" height="100" viewBox="0 0 100 100" fill="none" xmlns="http://www.w3.org/2000/svg">
<path d="M43.0758 22.9695L41.86 25.8787C36.5458 38.6009 33.9791 50.3202 35.1324 58.6932C35.7032 62.8363 37.16 65.9906 39.4664 68.1131C41.7559 70.2199 45.1297 71.5369 49.9996 71.5369C54.8698 71.5369 58.2442 70.22 60.5338 68.1131C62.8402 65.9906 64.2961 62.8363 64.8668 58.6932C66.0202 50.3201 63.4535 38.601 58.1393 25.8787L56.9244 22.9695H74.691V27.1688H63.1891C67.8361 39.0783 70.2375 50.4859 69.0279 59.2664C68.3681 64.0564 66.609 68.231 63.3785 71.2039C60.1312 74.1923 55.6461 75.7371 49.9996 75.7371C44.3533 75.7371 39.8689 74.1922 36.6217 71.2039C33.3912 68.231 31.6321 64.0564 30.9723 59.2664C29.7627 50.4859 32.164 39.0783 36.8111 27.1688H25.3092V22.9695H43.0758Z" fill="var(--pimeja)"/>
</svg>
