<svg width="100" height="100" viewBox="0 0 100 100" fill="none" xmlns="http://www.w3.org/2000/svg">
<path d="M68.4534 67.9533C63.3334 73.0733 57.1823 75.6333 50 75.6333C42.8178 75.6333 36.6667 73.0733 31.5467 67.9533C26.4267 62.8333 23.8667 56.6822 23.8667 49.5V22.8333H28.1334V49.5C28.1334 53.4467 29.1111 57.1089 31.0667 60.4867C33.0223 63.8289 35.6711 66.4778 39.0134 68.4333C42.3911 70.3889 46.0534 71.3667 50 71.3667C53.9467 71.3667 57.5911 70.3889 60.9334 68.4333C64.3111 66.4778 66.9778 63.8289 68.9334 60.4867C70.8889 57.1089 71.8667 53.4467 71.8667 49.5V22.8333H76.1334V49.5C76.1334 56.6822 73.5734 62.8333 68.4534 67.9533Z" fill="var(--pimeja)"/>
</svg>
