<svg width="100" height="100" viewBox="0 0 100 100" fill="none" xmlns="http://www.w3.org/2000/svg">
<path d="M68.1333 41.5C68.1333 46.1222 66.6044 50.1578 63.5466 53.6067C60.4889 57.02 56.6844 58.9933 52.1333 59.5267V65.5H63.3333V69.7667H52.1333V76.1667H47.8666V69.7667H36.6666V65.5H47.8666V59.5267C43.3155 58.9933 39.5111 57.02 36.4533 53.6067C33.3955 50.1578 31.8666 46.1222 31.8666 41.5C31.8666 36.4867 33.6266 32.22 37.1466 28.7C40.7022 25.1444 44.9866 23.3667 50 23.3667C55.0133 23.3667 59.28 25.1444 62.8 28.7C66.3555 32.22 68.1333 36.4867 68.1333 41.5ZM40.1866 31.74C37.4844 34.4422 36.1333 37.6956 36.1333 41.5C36.1333 45.3044 37.4844 48.5756 40.1866 51.3133C42.9244 54.0156 46.1955 55.3667 50 55.3667C53.8044 55.3667 57.0578 54.0156 59.76 51.3133C62.4978 48.5756 63.8666 45.3044 63.8666 41.5C63.8666 37.6956 62.4978 34.4422 59.76 31.74C57.0578 29.0022 53.8044 27.6333 50 27.6333C46.1955 27.6333 42.9244 29.0022 40.1866 31.74Z" fill="var(--pimeja)"/>
</svg>
