<svg width="100" height="100" viewBox="0 0 100 100" fill="none" xmlns="http://www.w3.org/2000/svg">
<path d="M76.1333 68.7H71.8666V52.7C71.8666 48.7533 70.8889 45.1089 68.9333 41.7667C66.9777 38.3889 64.3111 35.7222 60.9333 33.7667C57.5911 31.8111 53.9466 30.8333 50 30.8333C46.0533 30.8333 42.3911 31.8111 39.0133 33.7667C35.6711 35.7222 33.0222 38.3889 31.0666 41.7667C29.1111 45.1089 28.1333 48.7533 28.1333 52.7V68.7H23.8666V52.7C23.8666 45.5178 26.4266 39.3667 31.5466 34.2467C36.6666 29.1267 42.8177 26.5667 50 26.5667C57.1822 26.5667 63.3333 29.1267 68.4533 34.2467C73.5733 39.3667 76.1333 45.5178 76.1333 52.7V68.7ZM62.8 65.5C59.2444 69.0555 54.9777 70.8333 50 70.8333C45.0222 70.8333 40.7555 69.0555 37.2 65.5C33.6444 61.9444 31.8666 57.6778 31.8666 52.7C31.8666 47.7222 33.6444 43.4555 37.2 39.9C40.7555 36.3444 45.0222 34.5667 50 34.5667C54.9777 34.5667 59.2444 36.3444 62.8 39.9C66.3555 43.4555 68.1333 47.7222 68.1333 52.7C68.1333 57.6778 66.3555 61.9444 62.8 65.5ZM59.76 42.94C57.0577 40.2022 53.8044 38.8333 50 38.8333C46.1955 38.8333 42.9244 40.2022 40.1866 42.94C37.4844 45.6422 36.1333 48.8955 36.1333 52.7C36.1333 56.5044 37.4844 59.7755 40.1866 62.5133C42.9244 65.2155 46.1955 66.5667 50 66.5667C53.8044 66.5667 57.0577 65.2155 59.76 62.5133C62.4977 59.7755 63.8666 56.5044 63.8666 52.7C63.8666 48.8955 62.4977 45.6422 59.76 42.94Z" fill="var(--pimeja)"/>
</svg>
