<svg width="100" height="100" viewBox="0 0 100 100" fill="none" xmlns="http://www.w3.org/2000/svg">
<path d="M50 23.3667C57.1822 23.3667 63.3333 25.9267 68.4533 31.0467C73.5733 36.1667 76.1333 42.3178 76.1333 49.5V76.1667H71.8666V49.5C71.8666 43.4556 69.7333 38.3 65.4666 34.0333C61.2 29.7667 56.0444 27.6333 50 27.6333C46.0533 27.6333 42.3911 28.6111 39.0133 30.5667C35.6711 32.5222 33.0222 35.1889 31.0666 38.5667C29.1111 41.9089 28.1333 45.5533 28.1333 49.5V76.1667H23.8666V49.5C23.8666 42.3178 26.4266 36.1667 31.5466 31.0467C36.6666 25.9267 42.8177 23.3667 50 23.3667ZM62.0533 54.14C64.3289 55.5267 65.4666 57.5178 65.4666 60.1133C65.4666 63.7044 62.96 67.3667 57.9466 71.1C56.9155 71.8467 55.8133 72.5756 54.64 73.2867C53.5022 74.0333 52.6133 74.5667 51.9733 74.8867C51.3689 75.2067 51.0133 75.3844 50.9066 75.42L50 75.8467L49.0933 75.42C48.9866 75.3844 48.6133 75.2067 47.9733 74.8867C47.3689 74.5667 46.48 74.0333 45.3066 73.2867C44.1689 72.5756 43.0844 71.8467 42.0533 71.1C37.04 67.3667 34.5333 63.7044 34.5333 60.1133C34.5333 57.5178 35.6711 55.5267 37.9466 54.14C35.6711 51.6511 34.5333 49.1978 34.5333 46.78C34.5333 44.6111 35.3866 42.8333 37.0933 41.4467C38.8355 40.06 40.9155 39.3667 43.3333 39.3667C46.0711 39.3667 48.2933 40.1844 50 41.82C51.7066 40.1844 53.9289 39.3667 56.6666 39.3667C59.0844 39.3667 61.1466 40.06 62.8533 41.4467C64.5955 42.8333 65.4666 44.6111 65.4666 46.78C65.4666 49.1978 64.3289 51.6511 62.0533 54.14ZM46.48 57.82C45.5911 57.2511 44.5422 56.9667 43.3333 56.9667C42.1244 56.9667 41.0577 57.2511 40.1333 57.82C39.2444 58.3533 38.8 59.1178 38.8 60.1133C38.8 62.2822 40.7378 64.8067 44.6133 67.6867C46.2133 68.86 48.0089 69.9978 50 71.1C52.1689 69.9267 53.9822 68.7889 55.44 67.6867C59.28 64.8422 61.2 62.3178 61.2 60.1133C61.2 59.1178 60.7378 58.3533 59.8133 57.82C58.9244 57.2511 57.8755 56.9667 56.6666 56.9667C55.4578 56.9667 54.3911 57.2511 53.4666 57.82C52.5778 58.3533 52.1333 59.1178 52.1333 60.1133H47.8666C47.8666 59.1178 47.4044 58.3533 46.48 57.82ZM46.48 44.4867C45.5911 43.9178 44.5422 43.6333 43.3333 43.6333C42.1244 43.6333 41.0577 43.9178 40.1333 44.4867C39.2444 45.02 38.8 45.7844 38.8 46.78C38.8 48.4867 40.0622 50.46 42.5866 52.7H43.3333C46.0711 52.7 48.2933 53.5178 50 55.1533C51.7066 53.5178 53.9289 52.7 56.6666 52.7H57.4133C59.9378 50.46 61.2 48.4867 61.2 46.78C61.2 45.7844 60.7378 45.02 59.8133 44.4867C58.9244 43.9178 57.8755 43.6333 56.6666 43.6333C55.4578 43.6333 54.3911 43.9178 53.4666 44.4867C52.5778 45.02 52.1333 45.7844 52.1333 46.78H47.8666C47.8666 45.7844 47.4044 45.02 46.48 44.4867Z" fill="var(--pimeja)"/>
</svg>
