<svg width="100" height="100" viewBox="0 0 100 100" fill="none" xmlns="http://www.w3.org/2000/svg">
<path d="M46.2134 53.2867C45.1823 52.22 44.6667 50.9578 44.6667 49.5C44.6667 48.0422 45.1823 46.7978 46.2134 45.7667C47.28 44.7 48.5423 44.1667 50 44.1667C51.4578 44.1667 52.7023 44.7 53.7334 45.7667C54.8 46.7978 55.3334 48.0422 55.3334 49.5C55.3334 50.9578 54.8 52.22 53.7334 53.2867C52.7023 54.3178 51.4578 54.8333 50 54.8333C48.5423 54.8333 47.28 54.3178 46.2134 53.2867ZM31.8667 76.1667V22.8333H36.1334V76.1667H31.8667ZM63.8667 76.1667V22.8333H68.1334V76.1667H63.8667Z" fill="var(--pimeja)"/>
</svg>
