<svg width="100" height="100" viewBox="0 0 100 100" fill="none" xmlns="http://www.w3.org/2000/svg">
<path d="M68.1334 44.1667C68.1334 49.82 65.9823 54.4422 61.68 58.0333H76.1334V72.9667H71.8667V62.3H28.1334V72.9667H23.8667V58.0333H38.32C34.0178 54.4422 31.8667 49.82 31.8667 44.1667C31.8667 39.1889 33.6445 34.9222 37.2 31.3667C40.7556 27.8111 45.0223 26.0333 50 26.0333C54.9778 26.0333 59.2445 27.8111 62.8 31.3667C66.3556 34.9222 68.1334 39.1889 68.1334 44.1667ZM40.1867 34.4067C37.4845 37.1089 36.1334 40.3622 36.1334 44.1667C36.1334 47.9711 37.4845 51.2422 40.1867 53.98C42.9245 56.6822 46.1956 58.0333 50 58.0333C53.8045 58.0333 57.0578 56.6822 59.76 53.98C62.4978 51.2422 63.8667 47.9711 63.8667 44.1667C63.8667 40.3622 62.4978 37.1089 59.76 34.4067C57.0578 31.6689 53.8045 30.3 50 30.3C46.1956 30.3 42.9245 31.6689 40.1867 34.4067Z" fill="var(--pimeja)"/>
</svg>
