<svg width="100" height="100" viewBox="0 0 100 100" fill="none" xmlns="http://www.w3.org/2000/svg">
<path d="M42 39.3667C46.1956 39.3667 49.9289 40.6644 53.2 43.26L68.8267 27.6333H50V23.3667H76.1334V49.5H71.8667V30.6733L56.24 46.3C58.8356 49.5711 60.1334 53.3044 60.1334 57.5C60.1334 62.5133 58.3556 66.78 54.8 70.3C51.28 73.8556 47.0134 75.6333 42 75.6333C36.9867 75.6333 32.7023 73.8556 29.1467 70.3C25.6267 66.78 23.8667 62.5133 23.8667 57.5C23.8667 52.4867 25.6267 48.22 29.1467 44.7C32.7023 41.1444 36.9867 39.3667 42 39.3667ZM32.1867 67.26C34.9245 69.9978 38.1956 71.3667 42 71.3667C45.8045 71.3667 49.0578 69.9978 51.76 67.26C54.4978 64.5578 55.8667 61.3044 55.8667 57.5C55.8667 53.6956 54.4978 50.4422 51.76 47.74C49.0578 45.0022 45.8045 43.6333 42 43.6333C38.1956 43.6333 34.9245 45.0022 32.1867 47.74C29.4845 50.4422 28.1334 53.6956 28.1334 57.5C28.1334 61.3044 29.4845 64.5578 32.1867 67.26Z" fill="var(--pimeja)"/>
</svg>
