<svg width="100" height="100" viewBox="0 0 100 100" fill="none" xmlns="http://www.w3.org/2000/svg">
<path d="M60.7734 42.9933C62.16 43.7044 63.28 44.7711 64.1334 46.1933C65.0223 47.6156 65.4667 49.2156 65.4667 50.9933C65.4667 55.8644 62.4445 60.8778 56.4 66.0333H76.1334V76.1667H71.8667V70.3H28.1334V76.1667H23.8667V66.0333H43.6C40.72 63.58 38.4978 61.0733 36.9334 58.5133C35.3334 55.9533 34.5334 53.4467 34.5334 50.9933C34.5334 49.2156 34.96 47.6156 35.8134 46.1933C36.7023 44.7711 37.84 43.7044 39.2267 42.9933C36.0978 39.26 34.5334 35.7044 34.5334 32.3267C34.5334 29.8022 35.3689 27.6867 37.04 25.98C38.7467 24.2378 40.8445 23.3667 43.3334 23.3667C46.1067 23.3667 48.3289 24.3444 50 26.3C51.6711 24.3444 53.8934 23.3667 56.6667 23.3667C59.1556 23.3667 61.2356 24.2378 62.9067 25.98C64.6134 27.6867 65.4667 29.8022 65.4667 32.3267C65.4667 35.7044 63.9023 39.26 60.7734 42.9933ZM46.5867 28.9133C45.7689 28.06 44.6845 27.6333 43.3334 27.6333C41.9823 27.6333 40.88 28.06 40.0267 28.9133C39.2089 29.7667 38.8 30.9044 38.8 32.3267C38.8 35.2422 40.5956 38.4956 44.1867 42.0867C46.64 42.3 48.5778 43.26 50 44.9667C51.4223 43.26 53.36 42.3 55.8134 42.0867C59.4045 38.4956 61.2 35.2422 61.2 32.3267C61.2 30.9044 60.7734 29.7667 59.92 28.9133C59.1023 28.06 58.0178 27.6333 56.6667 27.6333C55.3156 27.6333 54.2134 28.06 53.36 28.9133C52.5423 29.7667 52.1334 30.9044 52.1334 32.3267H47.8667C47.8667 30.9044 47.44 29.7667 46.5867 28.9133ZM50 65.6067C51.1734 64.7889 52.2934 63.9178 53.36 62.9933C54.4623 62.0689 55.6534 60.9489 56.9334 59.6333C58.2134 58.3178 59.2445 56.9133 60.0267 55.42C60.8089 53.8911 61.2 52.4156 61.2 50.9933C61.2 49.5711 60.7734 48.4333 59.92 47.58C59.1023 46.7267 58.0178 46.3 56.6667 46.3C55.3156 46.3 54.2134 46.7267 53.36 47.58C52.5423 48.4333 52.1334 49.5711 52.1334 50.9933H47.8667C47.8667 49.5711 47.44 48.4333 46.5867 47.58C45.7689 46.7267 44.6845 46.3 43.3334 46.3C41.9823 46.3 40.88 46.7267 40.0267 47.58C39.2089 48.4333 38.8 49.5711 38.8 50.9933C38.8 52.4156 39.1911 53.8911 39.9734 55.42C40.7556 56.9133 41.7689 58.3178 43.0134 59.6333C44.2934 60.9489 45.4845 62.0689 46.5867 62.9933C47.6889 63.9178 48.8267 64.7889 50 65.6067Z" fill="var(--pimeja)"/>
</svg>
