<svg width="184.001" height="76.907" viewBox="0 0 184.001 76.907" xmlns="http://www.w3.org/2000/svg"><g id="svgGroup" stroke-linecap="round" fill-rule="nonzero" font-size="9pt" stroke="var(--pimeja)" stroke-width="0.5" fill="var(--pimeja)" style="stroke:var(--pimeja);stroke-width:0.5;fill:var(--pimeja)"><path d="M 71.271 18.493 A 1.516 1.516 0 0 1 72 18.2 A 3.742 3.742 0 0 0 73.873 16.96 A 24.656 24.656 0 0 0 75 15.8 A 12.382 12.382 0 0 1 77.402 13.612 A 1.265 1.265 0 0 1 78 13.4 A 3.331 3.331 0 0 0 79.453 12.257 A 19.653 19.653 0 0 0 79.6 12.1 Q 80.8 10.8 83.6 9.8 Q 86.2 9 88 7.7 Q 89.8 6.4 91.6 6.2 A 9.824 9.824 0 0 0 93.558 5.695 Q 95.129 5.193 97.888 4.195 A 299.625 299.625 0 0 0 98.7 3.9 A 40.682 40.682 0 0 1 104.648 2.33 Q 110.625 1.15 120 0.4 Q 126.8 0 128.2 0 Q 135 0 148.1 2.6 A 122.365 122.365 0 0 1 156.561 4.55 Q 162.475 6.175 164.6 7.8 Q 165.8 8.6 171.7 10.3 A 15.573 15.573 0 0 1 177.049 12.777 A 5.471 5.471 0 0 1 178.8 15 A 106.048 106.048 0 0 1 182.167 23.661 Q 184 29.194 184 32.4 Q 184 34.6 182.7 36.2 Q 181.4 37.8 181.4 39.2 A 6.648 6.648 0 0 1 180.111 42.348 A 31.421 31.421 0 0 1 178.1 45.1 A 22.842 22.842 0 0 1 175.024 48.387 A 2.918 2.918 0 0 1 173.4 49.2 A 4.398 4.398 0 0 0 171.099 50.514 A 16.589 16.589 0 0 0 171 50.6 Q 169.4 52 167.8 52 Q 166.2 52 163.5 53.8 A 16.792 16.792 0 0 1 160.6 55.458 A 1.807 1.807 0 0 1 160 55.6 Q 159.2 55.6 156.4 57.6 A 57.867 57.867 0 0 1 151.806 60.491 A 139.222 139.222 0 0 1 148 62.6 Q 142.4 65.6 135.8 67.6 Q 135.4 67.8 132.6 68.9 Q 129.8 70 126.7 71.2 Q 123.6 72.4 119.4 73.5 Q 115.2 74.6 111.8 74.8 Q 109.6 75 106.6 76.1 A 12.426 12.426 0 0 1 102.308 76.907 A 10.647 10.647 0 0 1 100.8 76.8 A 141.769 141.769 0 0 1 93.838 75.613 Q 90.89 75.019 89.295 74.466 A 10.53 10.53 0 0 1 88.6 74.2 Q 84.8 72.6 82 71.2 A 56.342 56.342 0 0 1 78.724 69.465 A 9.927 9.927 0 0 1 78.3 69.2 Q 77.4 68.6 76.7 68.2 Q 76 67.8 75.2 67.8 Q 73.4 67.8 73.4 66.6 Q 73.4 65.8 70.4 62.8 A 49.807 49.807 0 0 1 64.624 55.63 A 77.796 77.796 0 0 1 64.2 55 Q 61 50.2 60.6 45.2 A 17.171 17.171 0 0 0 59.689 40.727 A 4.461 4.461 0 0 0 59.2 39.8 Q 58.2 38.4 52.4 34.6 Q 47 31 45.8 29.8 Q 45.456 29.456 40.238 27.857 A 324.643 324.643 0 0 0 38.4 27.3 A 1002.536 1002.536 0 0 0 34.106 26.02 Q 32.194 25.456 31.538 25.28 A 2.83 2.83 0 0 0 31.2 25.2 A 14.991 14.991 0 0 0 24.276 27.249 A 31.893 31.893 0 0 0 21.4 29 Q 17.4 31.6 15.2 32.4 A 6.263 6.263 0 0 0 11.843 35.098 A 2.622 2.622 0 0 0 11.6 36.2 A 17.65 17.65 0 0 0 16.146 47.574 A 33.591 33.591 0 0 0 20.4 51.8 L 21.4 52.8 L 22.7 54.1 L 23.6 55 Q 24.8 56.6 26.8 56.6 Q 28.2 56.6 29.5 58.3 Q 30.8 60 30.8 62 Q 30.8 63.4 29.6 65.1 Q 28.4 66.8 25.8 66.8 A 13.279 13.279 0 0 1 21.245 65.706 A 42.019 42.019 0 0 1 17.5 64 Q 12 61.2 11.4 61.2 Q 10.6 61.2 7.8 58.6 A 18.518 18.518 0 0 1 5.362 56.007 A 1.628 1.628 0 0 1 5 55.2 Q 5 55 3.1 52.6 A 7.599 7.599 0 0 1 1.381 47.766 A 8.507 8.507 0 0 1 1.4 47.2 Q 1.6 45 0.8 42.6 A 20.654 20.654 0 0 1 0.028 39.888 A 1.898 1.898 0 0 1 0 39.6 A 15.295 15.295 0 0 1 0.506 36.566 A 86.279 86.279 0 0 1 1.6 32.5 A 81.605 81.605 0 0 0 2.871 27.711 A 11.218 11.218 0 0 0 3.2 25.6 Q 3.2 23.8 4.2 23.8 Q 5.2 23.8 9.1 21.4 A 52.253 52.253 0 0 1 16.356 17.8 A 93.354 93.354 0 0 1 19.4 16.6 Q 25.8 14.2 33 14.2 A 47.061 47.061 0 0 1 44.224 15.405 A 24.663 24.663 0 0 1 52.2 18.8 A 66.37 66.37 0 0 0 58.687 22.814 Q 62.825 25 65.2 25 Q 65.8 25 65.8 24.8 A 8.808 8.808 0 0 1 67.707 21.88 A 30.635 30.635 0 0 1 68.7 20.8 A 16.336 16.336 0 0 1 71.271 18.493 Z M 171.6 31.8 Q 171.6 30.6 170.4 28.5 A 7.878 7.878 0 0 1 169.203 25.496 A 1.801 1.801 0 0 1 169.2 25.4 A 3.759 3.759 0 0 0 167.638 23.139 A 25.095 25.095 0 0 0 165.1 21.2 A 23.095 23.095 0 0 0 159.887 18.382 A 8.558 8.558 0 0 0 158.4 18 Q 150 16.6 145 15.2 A 102.834 102.834 0 0 1 140.577 13.878 A 15.006 15.006 0 0 1 138.8 13.2 Q 137.6 12.6 135.1 12.2 A 39.599 39.599 0 0 0 130.08 11.828 A 101.61 101.61 0 0 0 127.6 11.8 Q 117.6 11.8 107 14.2 Q 96.4 16.6 94.6 18.4 Q 93 20 91.6 20 A 4.077 4.077 0 0 0 89.805 20.886 Q 87.688 22.363 83.5 26.3 A 41.947 41.947 0 0 0 78.92 31.219 Q 77.131 33.565 76.852 35.214 A 3.509 3.509 0 0 0 76.8 35.8 Q 76.8 36.6 77.9 38.2 A 3.75 3.75 0 0 1 78.612 40.354 A 3.925 3.925 0 0 1 78.4 41.6 Q 78 43.2 78 44.2 A 14.304 14.304 0 0 0 85.37 56.605 A 27.236 27.236 0 0 0 87.8 58 A 44.069 44.069 0 0 0 103.038 62.794 A 34.714 34.714 0 0 0 106.8 63 Q 111.8 63 116.9 60.8 A 47.821 47.821 0 0 1 125.496 57.905 A 29.668 29.668 0 0 1 126 57.8 A 47.441 47.441 0 0 0 133.941 55.214 A 96.108 96.108 0 0 0 139.9 52.5 A 322.988 322.988 0 0 0 151.056 46.744 A 205.269 205.269 0 0 0 154.2 45 A 95.492 95.492 0 0 1 158.726 42.56 Q 160.669 41.6 161.2 41.6 Q 162.6 41.6 162.6 40.2 Q 162.6 39.2 167.1 36.8 A 10.528 10.528 0 0 0 170.967 33.722 A 3.427 3.427 0 0 0 171.6 31.8 Z M 120.2 27.8 Q 123 27.8 125.5 31 Q 128 34.2 128 37.2 Q 128 39.2 127.6 40.4 A 5.34 5.34 0 0 1 126.119 42.931 A 1.104 1.104 0 0 1 126 43 Q 125.2 43.4 120.6 43.4 Q 116.2 43.4 115.3 43 Q 114.4 42.6 113.6 40.6 A 5.784 5.784 0 0 0 112.123 37.992 A 0.882 0.882 0 0 0 111.6 37.8 A 0.374 0.374 0 0 1 111.273 37.493 A 0.622 0.622 0 0 1 111.5 37.1 Q 112 36.6 112.5 35.7 A 1.903 1.903 0 0 0 112.778 34.793 A 1.045 1.045 0 0 0 112.6 34.2 Q 112.2 33.6 113.3 32.1 Q 114.4 30.6 116.4 29.2 Q 118.4 27.8 120.2 27.8 Z M 136.4 34.4 Q 136.4 30.4 138.2 27.7 Q 140 25 142.8 25 Q 146.6 25 148.9 28.7 A 13.778 13.778 0 0 1 151.172 34.577 A 7.207 7.207 0 0 1 151.2 35.2 A 6.232 6.232 0 0 1 148.9 39.434 A 15.751 15.751 0 0 1 148.4 39.9 A 8.457 8.457 0 0 1 143.464 42.393 A 4.678 4.678 0 0 1 143.2 42.4 Q 142.4 42.4 141.2 42.1 A 6.609 6.609 0 0 1 138.423 40.043 A 19.756 19.756 0 0 1 138.2 39.8 Q 136.4 37.8 136.4 34.4 Z"/></g></svg>