<svg width="100" height="100" viewBox="0 0 100 100" fill="none" xmlns="http://www.w3.org/2000/svg">
<path d="M50 22.8333C53.5555 22.8333 56.5777 24.0778 59.0666 26.5667C61.5555 29.0556 62.7999 32.0778 62.7999 35.6333V63.3667C62.7999 66.9222 61.5555 69.9445 59.0666 72.4333C56.5777 74.9222 53.5555 76.1667 50 76.1667C46.4444 76.1667 43.4222 74.9222 40.9333 72.4333C38.4444 69.9445 37.2 66.9222 37.2 63.3667V35.6333C37.2 32.0778 38.4444 29.0556 40.9333 26.5667C43.4222 24.0778 46.4444 22.8333 50 22.8333ZM56.0266 29.6067C54.3555 27.9356 52.3466 27.1 50 27.1C47.6533 27.1 45.6444 27.9356 43.9733 29.6067C42.3022 31.2778 41.4666 33.2867 41.4666 35.6333V47.3667H58.5333V35.6333C58.5333 33.2867 57.6977 31.2778 56.0266 29.6067ZM43.9733 69.3933C45.6444 71.0645 47.6533 71.9 50 71.9C52.3466 71.9 54.3555 71.0645 56.0266 69.3933C57.6977 67.7222 58.5333 65.7133 58.5333 63.3667V51.6333H41.4666V63.3667C41.4666 65.7133 42.3022 67.7222 43.9733 69.3933Z" fill="var(--pimeja)"/>
</svg>
