<svg width="100" height="100" viewBox="0 0 100 100" fill="none" xmlns="http://www.w3.org/2000/svg">
<path d="M39.6668 68.9267V64.66H60.3335V68.9267H39.6668ZM38.8535 31.0734L42.4801 33.3134L37.3068 41.7934L42.4801 50.2734L38.8535 52.5134L34.8001 45.9L30.7468 52.5134L27.1201 50.2734L32.2935 41.7934L27.1201 33.3134L30.7468 31.0734L34.8001 37.6867L38.8535 31.0734ZM69.2535 31.0734L72.8801 33.3134L67.7068 41.7934L72.8801 50.2734L69.2535 52.5134L65.2001 45.9L61.1468 52.5134L57.5201 50.2734L62.6935 41.7934L57.5201 33.3134L61.1468 31.0734L65.2001 37.6867L69.2535 31.0734Z" fill="var(--pimeja)"/>
</svg>
