<svg width="100" height="100" viewBox="0 0 100 100" fill="none" xmlns="http://www.w3.org/2000/svg">
<path d="M71.3334 75.6333H45.2001V23.3667H71.3334V27.6333H49.4667V71.3667H71.3334V75.6333ZM30.2134 53.2867C29.1823 52.22 28.6667 50.9578 28.6667 49.5C28.6667 48.0422 29.1823 46.7978 30.2134 45.7667C31.2801 44.7 32.5423 44.1667 34.0001 44.1667C35.4579 44.1667 36.7023 44.7 37.7334 45.7667C38.8001 46.7978 39.3334 48.0422 39.3334 49.5C39.3334 50.9578 38.8001 52.22 37.7334 53.2867C36.7023 54.3178 35.4579 54.8333 34.0001 54.8333C32.5423 54.8333 31.2801 54.3178 30.2134 53.2867Z" fill="var(--pimeja)"/>
</svg>
