<svg width="100" height="100" viewBox="0 0 100 100" fill="none" xmlns="http://www.w3.org/2000/svg">
<path d="M26.5333 47.0467C26.6755 48.0422 27.031 49.2333 27.5999 50.62C28.2044 52.0067 28.9155 52.7 29.7333 52.7C30.4444 52.7 31.031 52.3978 31.4933 51.7933C31.991 51.1533 32.631 50.0156 33.4133 48.38C34.231 46.6378 34.9955 45.3222 35.7066 44.4333C36.9866 42.8333 38.551 42.0333 40.3999 42.0333C41.8577 42.0333 43.4577 42.7089 45.1999 44.06V23.3667H71.3333V27.6333H49.4666V71.3667H71.3333V75.6333H45.1999V50.1933C44.8444 49.6956 44.2755 49.0733 43.4933 48.3267C42.1422 46.9756 41.111 46.3 40.3999 46.3C40.0088 46.3 39.6355 46.4778 39.2799 46.8333C38.9599 47.1889 38.6577 47.5978 38.3733 48.06C38.1244 48.5222 37.7688 49.2511 37.3066 50.2467C36.4177 52.1667 35.5822 53.5711 34.7999 54.46C33.4133 56.1311 31.7244 56.9667 29.7333 56.9667C26.9599 56.9667 24.8799 55.2956 23.4933 51.9533C22.6755 50.0689 22.2666 48.6467 22.2666 47.6867C22.7288 47.6156 23.4399 47.5089 24.3999 47.3667C25.3599 47.2244 26.071 47.1178 26.5333 47.0467Z" fill="var(--pimeja)"/>
</svg>
