<svg width="100" height="100" viewBox="0 0 100 100" fill="none" xmlns="http://www.w3.org/2000/svg">
<path d="M28.6667 54.3C28.6667 50.8155 29.4844 47.4911 31.12 44.3266C28.8444 43.7222 26.9778 42.46 25.52 40.54C24.0622 38.62 23.3333 36.4511 23.3333 34.0333C23.3333 31.1178 24.3822 28.6111 26.48 26.5133C28.5778 24.4155 31.0844 23.3666 34 23.3666C36.88 23.3666 39.3511 24.38 41.4133 26.4066C43.4756 28.3978 44.56 30.8155 44.6667 33.66C46.5867 33.1978 48.3644 32.9666 50 32.9666C51.6356 32.9666 53.4133 33.1978 55.3333 33.66C55.44 30.8155 56.5244 28.3978 58.5867 26.4066C60.6489 24.38 63.12 23.3666 66 23.3666C68.9156 23.3666 71.4222 24.4155 73.52 26.5133C75.6178 28.6111 76.6667 31.1178 76.6667 34.0333C76.6667 36.4511 75.9378 38.62 74.48 40.54C73.0222 42.46 71.1556 43.7222 68.88 44.3266C70.5156 47.4911 71.3333 50.8155 71.3333 54.3C71.3333 60.2022 69.2533 65.2333 65.0933 69.3933C60.9333 73.5533 55.9022 75.6333 50 75.6333C44.0978 75.6333 39.0667 73.5533 34.9067 69.3933C30.7467 65.2333 28.6667 60.2022 28.6667 54.3ZM29.4667 29.5C28.2222 30.7444 27.6 32.2555 27.6 34.0333C27.6 35.8111 28.2222 37.3222 29.4667 38.5666C30.7111 39.8111 32.2222 40.4333 34 40.4333C35.7778 40.4333 37.2889 39.8111 38.5333 38.5666C39.7778 37.3222 40.4 35.8111 40.4 34.0333C40.4 32.2555 39.7778 30.7444 38.5333 29.5C37.2889 28.2555 35.7778 27.6333 34 27.6333C32.2222 27.6333 30.7111 28.2555 29.4667 29.5ZM37.9467 66.3533C41.2889 69.6955 45.3067 71.3666 50 71.3666C54.6933 71.3666 58.7111 69.6955 62.0533 66.3533C65.3956 63.0111 67.0667 58.9933 67.0667 54.3C67.0667 50.6733 66.0356 47.4022 63.9733 44.4866C62.2667 44.1666 60.7378 43.4733 59.3867 42.4066C58.0356 41.3044 57.0044 39.9711 56.2933 38.4066C54.2667 37.6244 52.1689 37.2333 50 37.2333C47.8311 37.2333 45.7333 37.6244 43.7067 38.4066C42.9956 39.9711 41.9644 41.3044 40.6133 42.4066C39.2622 43.4733 37.7333 44.1666 36.0267 44.4866C33.9644 47.4022 32.9333 50.6733 32.9333 54.3C32.9333 58.9933 34.6044 63.0111 37.9467 66.3533ZM61.4667 38.5666C62.7111 39.8111 64.2222 40.4333 66 40.4333C67.7778 40.4333 69.2889 39.8111 70.5333 38.5666C71.7778 37.3222 72.4 35.8111 72.4 34.0333C72.4 32.2555 71.7778 30.7444 70.5333 29.5C69.2889 28.2555 67.7778 27.6333 66 27.6333C64.2222 27.6333 62.7111 28.2555 61.4667 29.5C60.2222 30.7444 59.6 32.2555 59.6 34.0333C59.6 35.8111 60.2222 37.3222 61.4667 38.5666ZM46.2133 63.9533C45.1822 62.8866 44.6667 61.6244 44.6667 60.1666C44.6667 58.7089 45.1822 57.4644 46.2133 56.4333C47.28 55.3666 48.5422 54.8333 50 54.8333C51.4578 54.8333 52.7022 55.3666 53.7333 56.4333C54.8 57.4644 55.3333 58.7089 55.3333 60.1666C55.3333 61.6244 54.8 62.8866 53.7333 63.9533C52.7022 64.9844 51.4578 65.5 50 65.5C48.5422 65.5 47.28 64.9844 46.2133 63.9533Z" fill="var(--pimeja)"/>
</svg>
