<svg width="100" height="100" viewBox="0 0 100 100" fill="none" xmlns="http://www.w3.org/2000/svg">
<path d="M25.6267 26.78C27.9022 24.5044 30.6044 23.3666 33.7333 23.3666C36.8622 23.3666 39.5467 24.5044 41.7867 26.78C44.0622 29.02 45.2 31.7044 45.2 34.8333V41.1266L46.9067 39.4733L49.8933 42.46L45.04 47.3666H40.9333V34.8333C40.9333 32.8777 40.2222 31.1889 38.8 29.7666C37.3778 28.3444 35.6889 27.6333 33.7333 27.6333C31.7778 27.6333 30.0889 28.3444 28.6667 29.7666C27.2444 31.1889 26.5333 32.8777 26.5333 34.8333V47.3666H22.2667V34.8333C22.2667 31.7044 23.3867 29.02 25.6267 26.78ZM25.6267 55.0466C27.9022 52.7711 30.6044 51.6333 33.7333 51.6333C36.8622 51.6333 39.5467 52.7711 41.7867 55.0466C44.0622 57.2866 45.2 59.9711 45.2 63.1V69.3933L46.9067 67.74L49.8933 70.7266L45.04 75.6333H40.9333V63.1C40.9333 61.1444 40.2222 59.4555 38.8 58.0333C37.3778 56.6111 35.6889 55.9 33.7333 55.9C31.7778 55.9 30.0889 56.6111 28.6667 58.0333C27.2444 59.4555 26.5333 61.1444 26.5333 63.1V75.6333H22.2667V63.1C22.2667 59.9711 23.3867 57.2866 25.6267 55.0466ZM58.16 26.78C60.4356 24.5044 63.1378 23.3666 66.2667 23.3666C69.3956 23.3666 72.08 24.5044 74.32 26.78C76.5956 29.02 77.7333 31.7044 77.7333 34.8333V47.3666H73.4667V34.8333C73.4667 32.8777 72.7556 31.1889 71.3333 29.7666C69.9111 28.3444 68.2222 27.6333 66.2667 27.6333C64.3111 27.6333 62.6222 28.3444 61.2 29.7666C59.7778 31.1889 59.0667 32.8777 59.0667 34.8333V47.3666H54.96L50.1067 42.46L53.0933 39.4733L54.8 41.1266V34.8333C54.8 31.7044 55.92 29.02 58.16 26.78ZM58.16 55.0466C60.4356 52.7711 63.1378 51.6333 66.2667 51.6333C69.3956 51.6333 72.08 52.7711 74.32 55.0466C76.5956 57.2866 77.7333 59.9711 77.7333 63.1V75.6333H73.4667V63.1C73.4667 61.1444 72.7556 59.4555 71.3333 58.0333C69.9111 56.6111 68.2222 55.9 66.2667 55.9C64.3111 55.9 62.6222 56.6111 61.2 58.0333C59.7778 59.4555 59.0667 61.1444 59.0667 63.1V75.6333H54.96L50.1067 70.7266L53.0933 67.74L54.8 69.3933V63.1C54.8 59.9711 55.92 57.2866 58.16 55.0466Z" fill="var(--pimeja)"/>
</svg>
