<svg width="100" height="100" viewBox="0 0 100 100" fill="none" xmlns="http://www.w3.org/2000/svg">
<path d="M36.88 70.7266C41.2889 70.1578 44.9156 69.1978 47.76 67.8466C50.64 66.4955 52.8444 64.6644 54.3733 62.3533C55.9378 60.0422 57.0222 57.4822 57.6267 54.6733C58.2311 51.8289 58.5333 48.3266 58.5333 44.1666H62.8C62.8 47.1533 62.6578 49.82 62.3733 52.1666C62.0889 54.5133 61.5733 56.8066 60.8267 59.0466C60.1156 61.2866 59.1556 63.2422 57.9467 64.9133C56.7378 66.5489 55.1911 68.06 53.3067 69.4466C51.4578 70.8689 49.2533 72.0066 46.6933 72.86C44.1333 73.7489 41.1289 74.4244 37.68 74.8866C34.2311 75.3844 30.3378 75.6333 26 75.6333V71.3666C28.88 71.3666 31.0844 70.6378 32.6133 69.18C34.1422 67.7222 35.28 65.0378 36.0267 61.1266C36.8089 57.2155 37.2 51.5622 37.2 44.1666H41.4667C41.4667 51.3133 41.1111 56.9666 40.4 61.1266C39.7244 65.2511 38.5511 68.4511 36.88 70.7266ZM47.8667 36.5933V22.8333H52.1333V36.5933H47.8667ZM26.96 31.0466L29.7333 27.7933L41.04 37.5533L38.2667 40.7533L26.96 31.0466ZM58.96 37.5533L70.2667 27.7933L73.04 31.0466L61.7333 40.7533L58.96 37.5533Z" fill="var(--pimeja)"/>
</svg>
