<svg width="100" height="100" viewBox="0 0 100 100" fill="none" xmlns="http://www.w3.org/2000/svg">
<path d="M49.9996 22.9695C55.6461 22.9695 60.1312 24.5144 63.3785 27.5027C66.6089 30.4756 68.3681 34.6504 69.028 39.4402C70.2373 48.2205 67.836 59.6278 63.1891 71.5369H74.691V75.7371H56.9244L58.1393 72.8279C63.4534 60.1058 66.0201 48.3865 64.8668 40.0135C64.2961 35.8704 62.8402 32.716 60.5338 30.5936C58.2442 28.4866 54.8699 27.1688 49.9996 27.1688C45.1296 27.1688 41.7559 28.4867 39.4664 30.5936C37.16 32.716 35.7032 35.8704 35.1324 40.0135C33.9792 48.3865 36.5459 60.1059 41.86 72.8279L43.0758 75.7371H25.3092V71.5369H36.8112C32.1643 59.6277 29.7629 48.2206 30.9723 39.4402C31.6321 34.6503 33.3913 30.4756 36.6217 27.5027C39.869 24.5144 44.3533 22.9696 49.9996 22.9695Z" fill="var(--pimeja)"/>
</svg>
