<svg width="100" height="100" viewBox="0 0 100 100" fill="none" xmlns="http://www.w3.org/2000/svg">
<path d="M76.1334 76.1666H71.8667V49.5C71.8667 43.4555 69.7334 38.3 65.4667 34.0333C61.2 29.7666 56.0445 27.6333 50 27.6333C46.0534 27.6333 42.3911 28.6111 39.0134 30.5666C35.6711 32.5222 33.0223 35.1889 31.0667 38.5666C29.1111 41.9089 28.1334 45.5533 28.1334 49.5V76.1666H23.8667V49.5C23.8667 42.3178 26.4267 36.1666 31.5467 31.0466C36.6667 25.9266 42.8178 23.3666 50 23.3666C57.1823 23.3666 63.3334 25.9266 68.4534 31.0466C73.5734 36.1666 76.1334 42.3178 76.1334 49.5V76.1666Z" fill="var(--pimeja)"/>
</svg>
