<svg width="100" height="100" viewBox="0 0 100 100" fill="none" xmlns="http://www.w3.org/2000/svg">
<path d="M64.56 32.4334C67.12 34.2467 69.2356 36.6645 70.9067 39.6867C72.6133 42.6734 73.4667 45.9445 73.4667 49.5C73.4667 52.9134 72.6667 56.1311 71.0667 59.1534C69.5022 62.1756 67.3333 64.6467 64.56 66.5667C66.0533 67.9534 67.5644 69.4111 69.0933 70.94L66.1067 73.9267C63.2622 71.0823 60.3822 68.4511 57.4667 66.0334C54.5867 63.6511 51.3867 61.3223 47.8667 59.0467C44.3467 56.7356 40.7022 54.9223 36.9333 53.6067C33.1644 52.2911 29.52 51.6334 26 51.6334V47.3667C29.52 47.3667 33.1644 46.7089 36.9333 45.3934C40.7022 44.0778 44.3467 42.2823 47.8667 40.0067C51.3867 37.6956 54.5867 35.3489 57.4667 32.9667C60.3822 30.5489 63.2622 27.9178 66.1067 25.0734L69.0933 28.06C67.5644 29.5889 66.0533 31.0467 64.56 32.4334ZM67.3867 57.0734C68.5956 54.7267 69.2 52.2023 69.2 49.5C69.2 46.8689 68.5778 44.3445 67.3333 41.9267C65.9467 42.6378 64.8444 43.6689 64.0267 45.02C63.2089 46.3711 62.8 47.8645 62.8 49.5C62.8 51.1 63.2089 52.5934 64.0267 53.98C64.88 55.3311 66 56.3623 67.3867 57.0734ZM60.3467 56.06C59.1378 54.0334 58.5333 51.8467 58.5333 49.5C58.5333 47.1534 59.1378 44.9845 60.3467 42.9934C61.5556 41.0023 63.0844 39.4734 64.9333 38.4067C63.8667 37.2334 62.64 36.22 61.2533 35.3667C53.1822 42.2289 45.4133 46.94 37.9467 49.5C45.4133 52.06 53.1822 56.7711 61.2533 63.6334C62.64 62.78 63.8667 61.7667 64.9333 60.5934C63.12 59.5623 61.5911 58.0511 60.3467 56.06Z" fill="var(--pimeja)"/>
</svg>
