<svg width="100" height="100" viewBox="0 0 100 100" fill="none" xmlns="http://www.w3.org/2000/svg">
<path d="M60.6667 44.7C64.3289 44.7 67.3689 45.6244 69.7867 47.4733C72.24 49.3222 73.4667 51.6866 73.4667 54.5666C73.4667 56.0955 73.0578 57.66 72.24 59.26C71.4578 60.86 70.48 62.3178 69.3067 63.6333C68.1333 64.9133 66.7111 66.2111 65.04 67.5266C63.3689 68.8422 61.84 69.9266 60.4533 70.78C59.1022 71.6689 57.6089 72.54 55.9733 73.3933C54.3733 74.2822 53.2711 74.8689 52.6667 75.1533C52.0622 75.4733 51.4578 75.7578 50.8533 76.0066L50 76.38L49.1467 76.0066C48.5422 75.7578 47.9378 75.4733 47.3333 75.1533C46.7289 74.8689 45.6089 74.2822 43.9733 73.3933C42.3733 72.54 40.88 71.6689 39.4933 70.78C38.1422 69.9266 36.6311 68.8422 34.96 67.5266C33.2889 66.2111 31.8667 64.9133 30.6933 63.6333C29.52 62.3178 28.5244 60.86 27.7067 59.26C26.9244 57.66 26.5333 56.0955 26.5333 54.5666C26.5333 51.6866 27.7422 49.3222 30.16 47.4733C32.6133 45.6244 35.6711 44.7 39.3333 44.7C44.0267 44.7 47.5822 46.0866 50 48.86C50.4978 48.2911 51.0844 47.74 51.76 47.2066C52.4711 46.6733 53.6444 46.1222 55.28 45.5533C56.9155 44.9844 58.7111 44.7 60.6667 44.7ZM50 71.6866C50.7467 71.3311 51.4755 70.9578 52.1867 70.5666C52.9333 70.1755 54.16 69.5 55.8667 68.54C57.5733 67.6155 59.1022 66.6378 60.4533 65.6066C61.8044 64.6111 63.1911 63.5089 64.6133 62.3C66.0355 61.0555 67.1555 59.7755 67.9733 58.46C68.7911 57.1089 69.2 55.8111 69.2 54.5666C69.2 52.8244 68.3467 51.4555 66.64 50.46C64.9689 49.4644 62.9778 48.9666 60.6667 48.9666C58.3555 48.9666 56.3467 49.4644 54.64 50.46C52.9689 51.4555 52.1333 52.8244 52.1333 54.5666H47.8667C47.8667 52.8244 47.0133 51.4555 45.3067 50.46C43.6355 49.4644 41.6444 48.9666 39.3333 48.9666C37.0222 48.9666 35.0133 49.4644 33.3067 50.46C31.6355 51.4555 30.8 52.8244 30.8 54.5666C30.8 56.4511 31.8489 58.5311 33.9467 60.8066C36.0444 63.0466 38.4622 65.0378 41.2 66.78C43.9378 68.5578 46.8711 70.1933 50 71.6866ZM47.8667 36.5933V22.8333H52.1333V36.5933H47.8667ZM26.96 31.0466L29.7333 27.7933L41.04 37.5533L38.2667 40.7533L26.96 31.0466ZM58.96 37.5533L70.2667 27.7933L73.04 31.0466L61.7333 40.7533L58.96 37.5533Z" fill="var(--pimeja)"/>
</svg>
