<svg width="100" height="100" viewBox="0 0 100 100" fill="none" xmlns="http://www.w3.org/2000/svg">
<path d="M58 50.0333C60.7733 50.0333 63.1556 50.8155 65.1467 52.38C67.1378 53.9089 68.1333 55.9 68.1333 58.3533C68.1333 62.4778 65.1644 66.6911 59.2267 70.9933C58.4444 71.5622 57.6267 72.1133 56.7733 72.6466C55.9556 73.18 55.2089 73.6244 54.5333 73.98C53.8933 74.3711 53.2889 74.7089 52.72 74.9933C52.1867 75.2777 51.7422 75.5089 51.3867 75.6866L50.9067 75.9533L50 76.38L49.0933 75.9533L48.6133 75.6866C48.2578 75.5089 47.7956 75.2777 47.2267 74.9933C46.6933 74.7089 46.0889 74.3711 45.4133 73.98C44.7733 73.6244 44.0267 73.18 43.1733 72.6466C42.3556 72.1133 41.5556 71.5622 40.7733 70.9933C34.8356 66.6911 31.8667 62.4778 31.8667 58.3533C31.8667 55.9 32.8622 53.9089 34.8533 52.38C36.8444 50.8155 39.2267 50.0333 42 50.0333C45.3778 50.0333 48.0444 51.0466 50 53.0733C51.9556 51.0466 54.6222 50.0333 58 50.0333ZM47.8667 58.3533C47.8667 57.0733 47.28 56.0778 46.1067 55.3666C44.9333 54.6555 43.5644 54.3 42 54.3C40.4356 54.3 39.0667 54.6555 37.8933 55.3666C36.72 56.0778 36.1333 57.0733 36.1333 58.3533C36.1333 61.0555 38.4978 64.1133 43.2267 67.5266C45.2178 69.02 47.4756 70.3889 50 71.6333C52.3822 70.46 54.64 69.0733 56.7733 67.4733C61.5022 64.06 63.8667 61.02 63.8667 58.3533C63.8667 57.0733 63.28 56.0778 62.1067 55.3666C60.9333 54.6555 59.5644 54.3 58 54.3C56.4356 54.3 55.0667 54.6555 53.8933 55.3666C52.72 56.0778 52.1333 57.0733 52.1333 58.3533H47.8667ZM58 23.3666C60.7733 23.3666 63.1556 24.1489 65.1467 25.7133C67.1378 27.2422 68.1333 29.2333 68.1333 31.6866C68.1333 35.8111 65.1644 40.0244 59.2267 44.3266C58.4444 44.8955 57.6267 45.4466 56.7733 45.98C55.9556 46.5133 55.2089 46.9755 54.5333 47.3666C53.8933 47.7222 53.2889 48.0422 52.72 48.3266C52.1867 48.6111 51.7422 48.8422 51.3867 49.02L50.9067 49.2866L50 49.7133L49.0933 49.2866L48.6133 49.02C48.2578 48.8422 47.7956 48.6111 47.2267 48.3266C46.6933 48.0422 46.0889 47.7222 45.4133 47.3666C44.7733 46.9755 44.0267 46.5133 43.1733 45.98C42.3556 45.4466 41.5556 44.8955 40.7733 44.3266C34.8356 40.0244 31.8667 35.8111 31.8667 31.6866C31.8667 29.2333 32.8622 27.2422 34.8533 25.7133C36.8444 24.1489 39.2267 23.3666 42 23.3666C45.3778 23.3666 48.0444 24.38 50 26.4066C51.9556 24.38 54.6222 23.3666 58 23.3666ZM47.8667 31.6866C47.8667 30.4066 47.28 29.4111 46.1067 28.7C44.9333 27.9889 43.5644 27.6333 42 27.6333C40.4356 27.6333 39.0667 27.9889 37.8933 28.7C36.72 29.4111 36.1333 30.4066 36.1333 31.6866C36.1333 34.3889 38.4978 37.4466 43.2267 40.86C45.2178 42.3533 47.4756 43.7222 50 44.9666C52.3822 43.7933 54.64 42.4066 56.7733 40.8066C61.5022 37.3933 63.8667 34.3533 63.8667 31.6866C63.8667 30.4066 63.28 29.4111 62.1067 28.7C60.9333 27.9889 59.5644 27.6333 58 27.6333C56.4356 27.6333 55.0667 27.9889 53.8933 28.7C52.72 29.4111 52.1333 30.4066 52.1333 31.6866H47.8667Z" fill="var(--pimeja)"/>
</svg>
