<svg width="100" height="100" viewBox="0 0 100 100" fill="none" xmlns="http://www.w3.org/2000/svg">
<path d="M62 45.4466C63.8133 46.1222 65.2889 47.2778 66.4266 48.9133C67.5644 50.5133 68.1333 52.3444 68.1333 54.4066C68.1333 57.1089 67.1733 59.8822 65.2533 62.7266C63.76 64.9311 61.8222 67.1 59.44 69.2333C59.0133 69.6244 58.5511 70.0155 58.0533 70.4066C57.5911 70.7978 57.1466 71.1533 56.72 71.4733C56.3289 71.7933 55.92 72.0955 55.4933 72.38C55.0666 72.7 54.6577 72.9844 54.2666 73.2333C53.9111 73.4822 53.5733 73.7133 53.2533 73.9266C52.9333 74.1755 52.6311 74.3711 52.3466 74.5133C52.0978 74.6911 51.8844 74.8333 51.7066 74.94C51.5289 75.0822 51.3866 75.1889 51.28 75.26L51.0666 75.3666L50 75.9533L48.9333 75.3666L48.72 75.26C48.6133 75.1889 48.4711 75.0822 48.2933 74.94C48.1155 74.8333 47.8844 74.6911 47.6 74.5133C47.3511 74.3711 47.0666 74.1755 46.7466 73.9266C46.4266 73.7133 46.0711 73.4822 45.68 73.2333C45.3244 72.9844 44.9333 72.7 44.5066 72.38C44.08 72.0955 43.6533 71.7933 43.2266 71.4733C42.8355 71.1533 42.3911 70.7978 41.8933 70.4066C41.4311 70.0155 40.9866 69.6244 40.56 69.2333C38.1778 67.1 36.24 64.9311 34.7466 62.7266C32.8266 59.8822 31.8666 57.1089 31.8666 54.4066C31.8666 52.3444 32.4355 50.5133 33.5733 48.9133C34.7111 47.2778 36.1866 46.1222 38 45.4466C36.8622 44.2733 35.7777 42.9222 34.7466 41.3933C32.8266 38.5489 31.8666 35.7755 31.8666 33.0733C31.8666 30.3 32.8444 27.9889 34.8 26.14C36.7555 24.2911 39.1555 23.3666 42 23.3666C43.6 23.3666 45.1111 23.6866 46.5333 24.3266C47.9555 24.9666 49.1111 25.8378 50 26.94C50.8889 25.8378 52.0444 24.9666 53.4666 24.3266C54.8889 23.6866 56.4 23.3666 58 23.3666C60.8444 23.3666 63.2444 24.2911 65.2 26.14C67.1555 27.9889 68.1333 30.3 68.1333 33.0733C68.1333 35.7755 67.1733 38.5489 65.2533 41.3933C64.2222 42.9222 63.1378 44.2733 62 45.4466ZM50 48.2733C51.6355 46.2822 53.84 45.1266 56.6133 44.8066L56.56 44.7C61.4311 40.3622 63.8666 36.4866 63.8666 33.0733C63.8666 31.3311 63.28 29.9978 62.1066 29.0733C60.9333 28.1133 59.5644 27.6333 58 27.6333C56.4355 27.6333 55.0666 28.1133 53.8933 29.0733C52.72 29.9978 52.1333 31.3311 52.1333 33.0733H47.8666C47.8666 31.3311 47.28 29.9978 46.1066 29.0733C44.9333 28.1133 43.5644 27.6333 42 27.6333C40.4355 27.6333 39.0666 28.1133 37.8933 29.0733C36.72 29.9978 36.1333 31.3311 36.1333 33.0733C36.1333 36.4866 38.5689 40.3622 43.44 44.7L43.3866 44.8066C46.16 45.1266 48.3644 46.2822 50 48.2733ZM50 70.9933C51.3866 70.1044 52.7555 69.1444 54.1066 68.1133C55.4578 67.0822 56.9333 65.82 58.5333 64.3266C60.1333 62.7978 61.4133 61.1622 62.3733 59.42C63.3689 57.6777 63.8666 56.0066 63.8666 54.4066C63.8666 52.6644 63.28 51.3311 62.1066 50.4066C60.9333 49.4466 59.5644 48.9666 58 48.9666C56.4355 48.9666 55.0666 49.4466 53.8933 50.4066C52.72 51.3311 52.1333 52.6644 52.1333 54.4066H47.8666C47.8666 52.6644 47.28 51.3311 46.1066 50.4066C44.9333 49.4466 43.5644 48.9666 42 48.9666C40.4355 48.9666 39.0666 49.4466 37.8933 50.4066C36.72 51.3311 36.1333 52.6644 36.1333 54.4066C36.1333 56.0066 36.6133 57.6777 37.5733 59.42C38.5689 61.1622 39.8666 62.7978 41.4666 64.3266C43.0666 65.82 44.5422 67.0822 45.8933 68.1133C47.2444 69.1444 48.6133 70.1044 50 70.9933Z" fill="var(--pimeja)"/>
</svg>
