<svg width="100" height="100" viewBox="0 0 100 100" fill="none" xmlns="http://www.w3.org/2000/svg">
<path d="M59.6 72.9666C51.92 72.9666 44.1511 68.8778 36.2933 60.7C34.6933 62.62 33.1289 64.6644 31.6 66.8333C30.1066 69.0022 29.0578 70.5844 28.4533 71.58C27.8489 72.5755 27.4755 73.1978 27.3333 73.4466L23.6 71.42C26.9422 65.8733 30.2133 61.2333 33.4133 57.5C30.2133 53.7666 26.9422 49.1266 23.6 43.58L27.3333 41.5533L27.5466 41.9266C27.6889 42.1755 27.9022 42.5311 28.1866 42.9933C28.4711 43.42 28.7911 43.9355 29.1466 44.54C29.5378 45.1444 29.9822 45.8378 30.48 46.62C31.0133 47.3666 31.5644 48.1489 32.1333 48.9666C32.7022 49.7489 33.3422 50.62 34.0533 51.58C34.8 52.5044 35.5466 53.4111 36.2933 54.3C44.2578 46.1222 52.0266 42.0333 59.6 42.0333C64.4 42.0333 68.3466 43.4911 71.44 46.4066C74.5689 49.2866 76.1333 52.9844 76.1333 57.5C76.1333 62.0155 74.5689 65.7133 71.44 68.5933C68.3466 71.5089 64.4 72.9666 59.6 72.9666ZM39.1733 57.5C46.2844 64.9666 53.0933 68.7 59.6 68.7C63.1911 68.7 66.1244 67.6511 68.4 65.5533C70.7111 63.4911 71.8666 60.8066 71.8666 57.5C71.8666 54.1933 70.7111 51.5089 68.4 49.4466C66.1244 47.3489 63.1911 46.3 59.6 46.3C53.1289 46.3 46.32 50.0333 39.1733 57.5ZM57.4666 34.0333V23.3666H61.7333V34.0333H57.4666ZM67.7066 34.6733L75.1733 27.2066L78.16 30.1933L70.6933 37.66L67.7066 34.6733ZM41.04 30.1933L44.0266 27.2066L51.4933 34.6733L48.5066 37.66L41.04 30.1933Z" fill="var(--pimeja)"/>
</svg>
