<svg width="100" height="100" viewBox="0 0 100 100" fill="none" xmlns="http://www.w3.org/2000/svg">
<path d="M50 72.9667C44.9156 72.9667 40.2223 72.1844 35.92 70.62C31.6178 69.0556 28.3823 66.8511 26.2134 64.0067C24.6489 61.9444 23.8667 59.7756 23.8667 57.5C23.8667 52.9844 26.5689 49.2156 31.9734 46.1933C37.0223 43.42 43.0311 42.0333 50 42.0333C55.0845 42.0333 59.7778 42.8156 64.08 44.38C68.3823 45.9444 71.6178 48.1489 73.7867 50.9933C75.3511 53.0556 76.1334 55.2244 76.1334 57.5C76.1334 62.0156 73.4311 65.7844 68.0267 68.8067C62.9778 71.58 56.9689 72.9667 50 72.9667ZM65.9467 49.9267C61.6089 47.5089 56.2934 46.3 50 46.3C43.7067 46.3 38.3911 47.5089 34.0534 49.9267C30.1067 52.1311 28.1334 54.6556 28.1334 57.5C28.1334 60.3444 30.1067 62.8689 34.0534 65.0733C38.3911 67.4911 43.7067 68.7 50 68.7C56.2934 68.7 61.6089 67.4911 65.9467 65.0733C69.8934 62.8689 71.8667 60.3444 71.8667 57.5C71.8667 54.6556 69.8934 52.1311 65.9467 49.9267ZM46.2134 61.2867C45.1823 60.22 44.6667 58.9578 44.6667 57.5C44.6667 56.0422 45.1823 54.7978 46.2134 53.7667C47.28 52.7 48.5423 52.1667 50 52.1667C51.4578 52.1667 52.7023 52.7 53.7334 53.7667C54.8 54.7978 55.3334 56.0422 55.3334 57.5C55.3334 58.9578 54.8 60.22 53.7334 61.2867C52.7023 62.3178 51.4578 62.8333 50 62.8333C48.5423 62.8333 47.28 62.3178 46.2134 61.2867ZM47.8667 36.1667V25.5H52.1334V36.1667H47.8667ZM65.5734 38.4067L73.04 30.94L76.0267 33.9267L68.56 41.3933L65.5734 38.4067ZM23.9734 33.9267L26.96 30.94L34.4267 38.4067L31.44 41.3933L23.9734 33.9267Z" fill="var(--pimeja)"/>
</svg>
