<svg width="100" height="100" viewBox="0 0 100 100" fill="none" xmlns="http://www.w3.org/2000/svg">
<path d="M59.0666 58.5667C56.5777 61.0556 53.5555 62.3 50 62.3C46.4444 62.3 43.4222 61.0556 40.9333 58.5667C38.4444 56.0778 37.2 53.0556 37.2 49.5C37.2 45.9445 38.4444 42.9222 40.9333 40.4334C43.4222 37.9445 46.4444 36.7 50 36.7C53.5555 36.7 56.5777 37.9445 59.0666 40.4334C61.5555 42.9222 62.8 45.9445 62.8 49.5C62.8 53.0556 61.5555 56.0778 59.0666 58.5667ZM56.0266 43.4734C54.3555 41.8022 52.3466 40.9667 50 40.9667C47.6533 40.9667 45.6444 41.8022 43.9733 43.4734C42.3022 45.1445 41.4666 47.1534 41.4666 49.5C41.4666 51.8467 42.3022 53.8556 43.9733 55.5267C45.6444 57.1978 47.6533 58.0334 50 58.0334C52.3466 58.0334 54.3555 57.1978 56.0266 55.5267C57.6977 53.8556 58.5333 51.8467 58.5333 49.5C58.5333 47.1534 57.6977 45.1445 56.0266 43.4734ZM54.16 53.66C53.0222 54.7978 51.6355 55.3667 50 55.3667C48.3644 55.3667 46.9777 54.7978 45.84 53.66C44.7022 52.5222 44.1333 51.1356 44.1333 49.5H48.4C48.4 49.9622 48.5422 50.3534 48.8266 50.6734C49.1466 50.9578 49.5377 51.1 50 51.1C50.4622 51.1 50.8355 50.9578 51.12 50.6734C51.44 50.3534 51.6 49.9622 51.6 49.5H55.8666C55.8666 51.1356 55.2977 52.5222 54.16 53.66ZM47.8666 30.8334V20.1667H52.1333V30.8334H47.8666ZM47.8666 78.8334V68.1667H52.1333V78.8334H47.8666ZM68.6666 51.6334V47.3667H79.3333V51.6334H68.6666ZM20.6666 51.6334V47.3667H31.3333V51.6334H20.6666ZM61.68 34.78L69.2533 27.26L72.24 30.2467L64.72 37.82L61.68 34.78ZM27.76 68.7534L35.28 61.18L38.32 64.22L30.7466 71.74L27.76 68.7534ZM61.68 64.22L64.72 61.18L72.24 68.7534L69.2533 71.74L61.68 64.22ZM27.76 30.2467L30.7466 27.26L38.32 34.78L35.28 37.82L27.76 30.2467Z" fill="var(--pimeja)"/>
</svg>
