<svg width="100" height="100" viewBox="0 0 100 100" fill="none" xmlns="http://www.w3.org/2000/svg">
<path d="M23.8667 57.5C23.8667 54.3 24.9334 51.4911 27.0667 49.0733C29.2356 46.62 31.8667 45.1978 34.96 44.8067C34.6756 43.6689 34.5334 42.5667 34.5334 41.5C34.5334 37.9445 35.7778 34.9222 38.2667 32.4333C40.7556 29.9445 43.7778 28.7 47.3334 28.7C50.8889 28.7 53.9111 29.9445 56.4 32.4333C58.8889 34.9222 60.1334 37.9445 60.1334 41.5C60.1334 42.5667 59.9734 43.6333 59.6534 44.7H63.3334C66.8889 44.7 69.9111 45.9445 72.4 48.4333C74.8889 50.9222 76.1334 53.9445 76.1334 57.5C76.1334 61.0556 74.8889 64.0778 72.4 66.5667C69.9111 69.0556 66.8889 70.3 63.3334 70.3H36.6667C33.1111 70.3 30.0889 69.0556 27.6 66.5667C25.1111 64.0778 23.8667 61.0556 23.8667 57.5ZM36.6667 48.9667C34.32 48.9667 32.3111 49.8022 30.64 51.4733C28.9689 53.1445 28.1334 55.1533 28.1334 57.5C28.1334 59.8467 28.9689 61.8556 30.64 63.5267C32.3111 65.1978 34.32 66.0333 36.6667 66.0333H63.3334C65.68 66.0333 67.6889 65.1978 69.36 63.5267C71.0311 61.8556 71.8667 59.8467 71.8667 57.5C71.8667 55.1533 71.0311 53.1445 69.36 51.4733C67.6889 49.8022 65.68 48.9667 63.3334 48.9667H52.72L54.5334 45.7667C55.4223 44.2022 55.8667 42.78 55.8667 41.5C55.8667 39.1533 55.0311 37.1445 53.36 35.4733C51.6889 33.8022 49.68 32.9667 47.3334 32.9667C44.9867 32.9667 42.9778 33.8022 41.3067 35.4733C39.6356 37.1445 38.8 39.1533 38.8 41.5C38.8 44.3445 39.9378 46.62 42.2134 48.3267L39.6534 51.74C38.48 50.8156 37.5734 49.8911 36.9334 48.9667H36.6667Z" fill="var(--pimeja)"/>
</svg>
