<svg width="100" height="100" viewBox="0 0 100 100" fill="none" xmlns="http://www.w3.org/2000/svg">
<path d="M71.8666 76.1666V22.8333H76.1333V76.1666H71.8666ZM26.5333 66.2466C27.2088 69.66 28.0977 71.3666 29.1999 71.3666C29.8044 71.3666 30.4799 70.5489 31.2266 68.9133C32.0088 67.1 32.6488 64.5222 33.1466 61.18C33.7155 57.34 33.9999 53.4466 33.9999 49.5H38.2666C38.2666 53.1622 38.4799 56.86 38.9066 60.5933C39.5822 66.5311 40.5777 70.0866 41.8933 71.26C43.351 69.3755 44.4177 63.8111 45.0933 54.5666C45.5199 48.7355 45.7333 43.4911 45.7333 38.8333H49.9999C49.9999 43.4911 50.2133 48.7355 50.6399 54.5666C51.2799 63.0644 52.2755 68.5044 53.6266 70.8866C54.231 69.6422 54.8177 67.3311 55.3866 63.9533C55.9555 60.1489 56.4355 55.1355 56.8266 48.9133C57.2533 41.2689 57.4666 34.3533 57.4666 28.1666H61.7333C61.7333 35.8822 61.4844 43.4911 60.9866 50.9933C60.5599 57.7489 59.9733 63.0289 59.2266 66.8333C58.8355 68.86 58.4444 70.4244 58.0533 71.5266C57.6622 72.6289 57.0755 73.6066 56.2933 74.46C55.5466 75.2422 54.6933 75.6333 53.7333 75.6333C52.2044 75.6333 50.9422 74.78 49.9466 73.0733C49.1288 71.6866 48.4355 69.6066 47.8666 66.8333C47.2977 69.6066 46.6044 71.6866 45.7866 73.0733C44.791 74.78 43.5288 75.6333 41.9999 75.6333C40.6133 75.6333 39.4222 75.0466 38.4266 73.8733C37.431 72.7355 36.6133 70.9222 35.9733 68.4333C34.5155 73.2333 32.2577 75.6333 29.1999 75.6333C26.711 75.6333 24.791 74.0511 23.4399 70.8866C22.6577 69.0733 22.2666 67.74 22.2666 66.8866L26.5333 66.2466Z" fill="var(--pimeja)"/>
</svg>
