<svg width="100" height="100" viewBox="0 0 100 100" fill="none" xmlns="http://www.w3.org/2000/svg">
<path d="M23.8667 44.7H76.1334V70.8334H71.8667V48.9667H28.1334V70.8334H23.8667V44.7ZM53.7334 29.7667C54.8 30.7978 55.3334 32.0422 55.3334 33.5C55.3334 34.9578 54.8 36.22 53.7334 37.2867C52.7023 38.3178 51.4578 38.8334 50 38.8334C48.5423 38.8334 47.28 38.3178 46.2134 37.2867C45.1823 36.22 44.6667 34.9578 44.6667 33.5C44.6667 32.0422 45.1823 30.7978 46.2134 29.7667C47.28 28.7 48.5423 28.1667 50 28.1667C51.4578 28.1667 52.7023 28.7 53.7334 29.7667Z" fill="var(--pimeja)"/>
</svg>
