<svg width="100" height="100" viewBox="0 0 100 100" fill="none" xmlns="http://www.w3.org/2000/svg">
<path d="M28.6667 23.3666H54.8V75.6333H28.6667V71.3666H50.5333V27.6333H28.6667V23.3666ZM69.7333 45.7666C70.8 46.7978 71.3333 48.0422 71.3333 49.5C71.3333 50.9578 70.8 52.22 69.7333 53.2866C68.7022 54.3178 67.4578 54.8333 66 54.8333C64.5422 54.8333 63.28 54.3178 62.2133 53.2866C61.1822 52.22 60.6667 50.9578 60.6667 49.5C60.6667 48.0422 61.1822 46.7978 62.2133 45.7666C63.28 44.7 64.5422 44.1666 66 44.1666C67.4578 44.1666 68.7022 44.7 69.7333 45.7666Z" fill="var(--pimeja)"/>
</svg>
