<svg width="100" height="100" viewBox="0 0 100 100" fill="none" xmlns="http://www.w3.org/2000/svg">
<path d="M73.4667 75.6333H26.5333V23.3666H73.4667V75.6333ZM30.8 71.3666H69.2V27.6333H30.8V71.3666ZM47.3333 52.1666C46.6222 51.42 46.2667 50.5311 46.2667 49.5C46.2667 48.4689 46.6222 47.5978 47.3333 46.8866C48.08 46.14 48.9689 45.7666 50 45.7666C51.0311 45.7666 51.9022 46.14 52.6133 46.8866C53.36 47.5978 53.7333 48.4689 53.7333 49.5C53.7333 50.5311 53.36 51.42 52.6133 52.1666C51.9022 52.8777 51.0311 53.2333 50 53.2333C48.9689 53.2333 48.08 52.8777 47.3333 52.1666ZM36.6667 52.1666C35.9555 51.42 35.6 50.5311 35.6 49.5C35.6 48.4689 35.9555 47.5978 36.6667 46.8866C37.4133 46.14 38.3022 45.7666 39.3333 45.7666C40.3644 45.7666 41.2355 46.14 41.9467 46.8866C42.6933 47.5978 43.0667 48.4689 43.0667 49.5C43.0667 50.5311 42.6933 51.42 41.9467 52.1666C41.2355 52.8777 40.3644 53.2333 39.3333 53.2333C38.3022 53.2333 37.4133 52.8777 36.6667 52.1666ZM58 52.1666C57.2889 51.42 56.9333 50.5311 56.9333 49.5C56.9333 48.4689 57.2889 47.5978 58 46.8866C58.7467 46.14 59.6356 45.7666 60.6667 45.7666C61.6978 45.7666 62.5689 46.14 63.28 46.8866C64.0267 47.5978 64.4 48.4689 64.4 49.5C64.4 50.5311 64.0267 51.42 63.28 52.1666C62.5689 52.8777 61.6978 53.2333 60.6667 53.2333C59.6356 53.2333 58.7467 52.8777 58 52.1666Z" fill="var(--pimeja)"/>
</svg>
