<svg width="100" height="100" viewBox="0 0 100 100" fill="none" xmlns="http://www.w3.org/2000/svg">
<path d="M74 44.7C74 51.1 69.1644 54.3 59.4933 54.3H52.1333V76.1666H47.8667V54.3H40.5067C35.6711 54.3 32.0978 53.5355 29.7867 52.0066C27.2622 50.4066 26 47.9711 26 44.7C26 42.9222 26.5156 40.7889 27.5467 38.3C28.6133 35.8111 30.1422 33.4466 32.1333 31.2066C37.0044 25.6244 42.96 22.8333 50 22.8333C57.04 22.8333 62.9956 25.6244 67.8667 31.2066C69.8578 33.4466 71.3689 35.8111 72.4 38.3C73.4667 40.7889 74 42.9222 74 44.7ZM67.92 48.4333C69.1289 47.6866 69.7333 46.4422 69.7333 44.7C69.7333 43.3844 69.2711 41.7311 68.3467 39.74C67.4578 37.7489 66.2311 35.8466 64.6667 34.0333C60.5778 29.4111 55.6889 27.1 50 27.1C44.3111 27.1 39.4222 29.4111 35.3333 34.0333C33.7689 35.8466 32.5244 37.7489 31.6 39.74C30.7111 41.7311 30.2667 43.3844 30.2667 44.7C30.2667 46.4422 30.8711 47.6866 32.08 48.4333C33.7156 49.5 36.5244 50.0333 40.5067 50.0333H59.4933C63.4756 50.0333 66.2844 49.5 67.92 48.4333Z" fill="var(--pimeja)"/>
</svg>
