<svg width="100" height="100" viewBox="0 0 100 100" fill="none" xmlns="http://www.w3.org/2000/svg">
<path d="M45.7333 75.6333C43.5644 75.6333 41.7689 74.9222 40.3466 73.5C38.96 72.1133 38.2666 70.3355 38.2666 68.1666V54.3C33.5378 54.1933 29.9644 53.4466 27.5466 52.06C24.7378 50.4244 23.3333 47.9711 23.3333 44.7C23.3333 42.7444 23.9555 40.5222 25.2 38.0333C26.48 35.5444 28.1511 33.2511 30.2133 31.1533C35.6889 25.6066 42.2844 22.8333 50 22.8333C57.7155 22.8333 64.3111 25.6066 69.7866 31.1533C71.8489 33.2511 73.5022 35.5444 74.7467 38.0333C76.0266 40.5222 76.6666 42.7444 76.6666 44.7C76.6666 47.9711 75.2622 50.4244 72.4533 52.06C70.0355 53.4466 66.4622 54.1933 61.7333 54.3V68.1666C61.7333 70.3355 61.0222 72.1133 59.6 73.5C58.2133 74.9222 56.4355 75.6333 54.2666 75.6333H45.7333ZM54.2666 71.3666C55.2622 71.3666 56.0444 71.0822 56.6133 70.5133C57.1822 69.9444 57.4666 69.1622 57.4666 68.1666V54.3H42.5333V68.1666C42.5333 69.1622 42.8178 69.9444 43.3866 70.5133C43.9555 71.0822 44.7378 71.3666 45.7333 71.3666H54.2666ZM70.32 48.38C71.7066 47.5622 72.4 46.3355 72.4 44.7C72.4 43.5622 71.9378 42.0333 71.0133 40.1133C69.9822 38.0155 68.56 36.0244 66.7466 34.14C62.1244 29.4466 56.5422 27.1 50 27.1C43.4578 27.1 37.8755 29.4466 33.2533 34.14C31.44 36.0244 30.0178 38.0155 28.9866 40.1133C28.0622 42.0333 27.6 43.5622 27.6 44.7C27.6 46.3355 28.2933 47.5622 29.68 48.38C31.5644 49.4822 34.7822 50.0333 39.3333 50.0333H60.6666C65.2178 50.0333 68.4355 49.4822 70.32 48.38Z" fill="var(--pimeja)"/>
</svg>
