<svg width="100" height="100" viewBox="0 0 100 100" fill="none" xmlns="http://www.w3.org/2000/svg">
<path d="M30.2133 45.7666C31.28 44.7 32.5422 44.1666 34 44.1666C35.4577 44.1666 36.7022 44.7 37.7333 45.7666C38.8 46.7978 39.3333 48.0422 39.3333 49.5C39.3333 50.9578 38.8 52.22 37.7333 53.2866C36.7022 54.3178 35.4577 54.8333 34 54.8333C32.5422 54.8333 31.28 54.3178 30.2133 53.2866C29.1822 52.22 28.6666 50.9578 28.6666 49.5C28.6666 48.0422 29.1822 46.7978 30.2133 45.7666ZM45.2 23.3666H70.8V75.6333H45.2V23.3666ZM49.4666 27.6333V71.3666H66.5333V27.6333H49.4666Z" fill="var(--pimeja)"/>
</svg>
