<svg width="100" height="100" viewBox="0 0 100 100" fill="none" xmlns="http://www.w3.org/2000/svg">
<path d="M26.5333 23.3666H73.4667V75.6333H26.5333V23.3666ZM52.6667 34.0333C58.8178 34.0333 64.3289 35.8111 69.2 39.3666V27.6333H30.8V44.8066C33.36 41.9266 36.5778 39.42 40.4533 37.2866C44.3289 35.1178 48.4 34.0333 52.6667 34.0333ZM30.8 48.9666V71.3666H53.1467C52.72 65.0378 50.6044 59.7755 46.8 55.58C42.7822 51.1711 37.8044 48.9666 31.8667 48.9666H30.8ZM57.4133 71.3666H69.2V44.9666C68.2755 43.9711 66.9778 42.94 65.3067 41.8733C61.4667 39.4911 57.2533 38.3 52.6667 38.3C48.08 38.3 43.5289 39.9178 39.0133 43.1533C37.8755 43.9711 37.04 44.6289 36.5067 45.1266C41.8044 46.1578 46.3022 48.7 50 52.7533C54.5511 57.6955 57.0222 63.9 57.4133 71.3666Z" fill="var(--pimeja)"/>
</svg>
