<svg width="100" height="100" viewBox="0 0 100 100" fill="none" xmlns="http://www.w3.org/2000/svg">
<path d="M26.5333 23.3666H73.4667V75.6333H26.5333V23.3666ZM69.2 71.3666V27.6333H30.8V71.3666H69.2ZM32.4 67.2066V56.4333H36.6667V67.2066H32.4ZM37.8933 67.2066V56.4333H42.16V67.2066H37.8933ZM43.3867 67.2066V56.4333H47.6533V67.2066H43.3867ZM64.1867 48.2733C64.1867 51.4378 63.12 54.2111 60.9867 56.5933C58.8533 58.94 56.2578 60.2911 53.2 60.6466V67.2066H48.9333V56.4866H51.76C54.0356 56.4866 55.9555 55.6866 57.52 54.0866C59.12 52.4866 59.92 50.5489 59.92 48.2733C59.92 45.9978 59.12 44.0777 57.52 42.5133C55.9555 40.9133 54.0356 40.1133 51.76 40.1133H36.24V35.8466H51.76C54.4267 35.8466 56.8089 36.5933 58.9067 38.0866L65.04 32.0066L68.0267 34.9933L61.9467 41.1266C63.44 43.2244 64.1867 45.6066 64.1867 48.2733ZM43.6 47.8466C43.28 47.3133 43.12 46.6555 43.12 45.8733C43.12 45.0911 43.28 44.4511 43.6 43.9533C43.9555 43.42 44.3822 43.1533 44.88 43.1533C45.3778 43.1533 45.7867 43.42 46.1067 43.9533C46.4267 44.4511 46.5867 45.0911 46.5867 45.8733C46.5867 46.6555 46.4089 47.3133 46.0533 47.8466C45.7333 48.38 45.3422 48.6466 44.88 48.6466C44.3822 48.6466 43.9555 48.38 43.6 47.8466ZM50.48 47.8466C50.16 47.3133 50 46.6555 50 45.8733C50 45.0911 50.16 44.4511 50.48 43.9533C50.8355 43.42 51.2622 43.1533 51.76 43.1533C52.2578 43.1533 52.6667 43.42 52.9867 43.9533C53.3067 44.4511 53.4667 45.0911 53.4667 45.8733C53.4667 46.6555 53.2889 47.3133 52.9333 47.8466C52.6133 48.38 52.2222 48.6466 51.76 48.6466C51.2622 48.6466 50.8355 48.38 50.48 47.8466Z" fill="var(--pimeja)"/>
</svg>
