<svg width="100" height="100" viewBox="0 0 100 100" fill="none" xmlns="http://www.w3.org/2000/svg">
<path d="M26.5333 23.3666H73.4667V75.6333H26.5333V23.3666ZM52.1333 35.7933C55.0489 36.2555 57.5911 37.5711 59.76 39.74C61.9289 41.8733 63.2444 44.4155 63.7067 47.3666H69.2V27.6333H30.8V47.3666H36.2933C36.7555 44.4511 38.0711 41.9089 40.24 39.74C42.4089 37.5711 44.9511 36.2555 47.8667 35.7933V29.2333H52.1333V35.7933ZM43.2267 56.2733C45.1111 58.1578 47.3689 59.1 50 59.1C52.6311 59.1 54.8889 58.1578 56.7733 56.2733C58.6578 54.3889 59.6 52.1311 59.6 49.5C59.6 46.8689 58.6578 44.6111 56.7733 42.7266C54.8889 40.8422 52.6311 39.9 50 39.9C47.3689 39.9 45.1111 40.8422 43.2267 42.7266C41.3422 44.6111 40.4 46.8689 40.4 49.5C40.4 52.1311 41.3422 54.3889 43.2267 56.2733ZM47.8667 63.2066C44.9511 62.7444 42.4089 61.4289 40.24 59.26C38.0711 57.0911 36.7555 54.5489 36.2933 51.6333H30.8V71.3666H69.2V51.6333H63.7067C63.2444 54.5489 61.9289 57.0911 59.76 59.26C57.5911 61.4289 55.0489 62.7444 52.1333 63.2066V69.2333H47.8667V63.2066ZM44.1333 48.4333V44.1666H55.8667V48.4333H44.1333ZM44.1333 54.8333V50.5666H55.8667V54.8333H44.1333Z" fill="var(--pimeja)"/>
</svg>
