<svg width="100" height="100" viewBox="0 0 100 100" fill="none" xmlns="http://www.w3.org/2000/svg">
<path d="M34.7466 53.6066C34.2488 52.7533 33.9999 51.7399 33.9999 50.5666C33.9999 49.3933 34.2488 48.3977 34.7466 47.58C35.2799 46.7266 35.9199 46.2999 36.6666 46.2999C37.4133 46.2999 38.0355 46.7266 38.5333 47.58C39.0666 48.3977 39.3333 49.3933 39.3333 50.5666C39.3333 51.7399 39.0666 52.7533 38.5333 53.6066C38.0355 54.4244 37.4133 54.8333 36.6666 54.8333C35.9199 54.8333 35.2799 54.4244 34.7466 53.6066ZM45.4133 53.6066C44.9155 52.7533 44.6666 51.7399 44.6666 50.5666C44.6666 49.3933 44.9155 48.3977 45.4133 47.58C45.9466 46.7266 46.5866 46.2999 47.3333 46.2999C48.0799 46.2999 48.7021 46.7266 49.1999 47.58C49.7333 48.3977 49.9999 49.3933 49.9999 50.5666C49.9999 51.7399 49.7333 52.7533 49.1999 53.6066C48.7021 54.4244 48.0799 54.8333 47.3333 54.8333C46.5866 54.8333 45.9466 54.4244 45.4133 53.6066ZM57.9999 70.2999H23.3333V66.0333H57.9999C62.8355 66.0333 66.4444 65.2511 68.8266 63.6866C70.8533 62.3355 71.8666 60.2733 71.8666 57.5C71.8666 54.7266 70.8533 52.6644 68.8266 51.3133C66.4444 49.7488 62.8355 48.9666 57.9999 48.9666H55.8666V46.8333C55.8666 43.3488 54.3199 40.2022 51.2266 37.3933C47.9555 34.4422 43.991 32.9666 39.3333 32.9666H23.3333V28.7H39.3333C45.0577 28.7 49.9821 30.5488 54.1066 34.2466C57.4133 37.2333 59.3688 40.7355 59.9733 44.7533C67.6888 45.1088 72.6666 47.5088 74.9066 51.9533C75.7244 53.5888 76.1333 55.4377 76.1333 57.5C76.1333 61.7311 74.4799 64.9666 71.1733 67.2066C68.151 69.2688 63.7599 70.2999 57.9999 70.2999Z" fill="var(--pimeja)"/>
</svg>
