<svg width="100" height="100" viewBox="0 0 100 100" fill="none" xmlns="http://www.w3.org/2000/svg">
<path d="M54.3733 45.5533C53.4133 43.9178 51.9556 43.1 50 43.1C48.0445 43.1 46.5689 43.9178 45.5733 45.5533C44.6133 47.1889 44.1334 49.2155 44.1334 51.6333C44.1334 53.5177 44.2578 55.3489 44.5067 57.1266C44.7556 58.8689 44.9689 60.0955 45.1467 60.8066C45.36 61.5178 45.5022 61.9444 45.5733 62.0866L46.6934 64.9666H33.0933L32.5067 64.3266C30.5511 62.3711 28.9333 60.1133 27.6533 57.5533C25.84 54.0333 24.9333 50.46 24.9333 46.8333C24.9333 40.22 27.3156 34.6733 32.08 30.1933C36.8445 25.6422 42.8178 23.3666 50 23.3666C57.1822 23.3666 63.1556 25.6422 67.92 30.1933C72.6845 34.6733 75.0667 40.22 75.0667 46.8333C75.0667 50.46 74.16 54.0333 72.3467 57.5533C71.0667 60.1133 69.4489 62.3711 67.4934 64.3266L66.9067 64.9666H53.3067L54.4267 62.0866C54.4978 61.9444 54.6222 61.5178 54.8 60.8066C55.0134 60.0955 55.2445 58.8689 55.4934 57.1266C55.7422 55.3489 55.8667 53.5177 55.8667 51.6333C55.8667 49.2155 55.3689 47.1889 54.3733 45.5533ZM59.1734 60.7H65.0933C68.8978 56.4333 70.8 51.8111 70.8 46.8333C70.8 41.3577 68.8089 36.7889 64.8267 33.1266C60.88 29.4644 55.9378 27.6333 50 27.6333C44.0622 27.6333 39.1022 29.4644 35.12 33.1266C31.1733 36.7889 29.2 41.3577 29.2 46.8333C29.2 51.8111 31.1022 56.4333 34.9067 60.7H40.8267C40.1867 57.9266 39.8667 54.9044 39.8667 51.6333C39.8667 48.9311 40.3467 46.5666 41.3067 44.54C42.3022 42.4778 43.6889 40.9489 45.4667 39.9533C46.7822 39.2066 48.2933 38.8333 50 38.8333C53.2711 38.8333 55.8489 40.1844 57.7333 42.8866C59.3333 45.1978 60.1334 48.1133 60.1334 51.6333C60.1334 54.9044 59.8134 57.9266 59.1734 60.7ZM38.2667 76.1133C37.5556 75.4022 37.2 74.5311 37.2 73.5C37.2 72.4689 37.5556 71.58 38.2667 70.8333C39.0133 70.1222 39.9022 69.7666 40.9333 69.7666C41.9645 69.7666 42.8356 70.1222 43.5467 70.8333C44.2934 71.58 44.6667 72.4689 44.6667 73.5C44.6667 74.5311 44.2934 75.4022 43.5467 76.1133C42.8356 76.86 41.9645 77.2333 40.9333 77.2333C39.9022 77.2333 39.0133 76.86 38.2667 76.1133ZM56.4 76.1133C55.6889 75.4022 55.3334 74.5311 55.3334 73.5C55.3334 72.4689 55.6889 71.58 56.4 70.8333C57.1467 70.1222 58.0356 69.7666 59.0667 69.7666C60.0978 69.7666 60.9689 70.1222 61.68 70.8333C62.4267 71.58 62.8 72.4689 62.8 73.5C62.8 74.5311 62.4267 75.4022 61.68 76.1133C60.9689 76.86 60.0978 77.2333 59.0667 77.2333C58.0356 77.2333 57.1467 76.86 56.4 76.1133Z" fill="var(--pimeja)"/>
</svg>
