<svg width="100" height="100" viewBox="0 0 100 100" fill="none" xmlns="http://www.w3.org/2000/svg">
<path d="M67.12 29.7666C69.8223 32.1133 71.9911 34.9578 73.6267 38.3C75.2978 41.6422 76.1334 45.3755 76.1334 49.5C76.1334 52.2378 75.7067 54.94 74.8534 57.6066C73.5734 61.5533 71.4578 65.0022 68.5067 67.9533C65.5556 70.94 62.0534 73.0733 58 74.3533C55.3689 75.2066 52.7023 75.6333 50 75.6333C43.5289 75.6333 37.8223 73.5 32.88 69.2333C26.8711 64.0066 23.8667 57.4289 23.8667 49.5C23.8667 46.7622 24.2934 44.06 25.1467 41.3933C26.4267 37.4466 28.5423 33.9978 31.4934 31.0466C34.4445 28.06 37.9467 25.9266 42 24.6466C44.6311 23.7933 47.2978 23.3666 50 23.3666C56.4711 23.3666 62.1778 25.5 67.12 29.7666ZM29.2 42.7266C28.4889 44.86 28.1334 47.1178 28.1334 49.5C28.1334 54.1578 29.5023 58.4244 32.24 62.3C35.0134 66.1755 38.6756 68.8422 43.2267 70.3C44.4711 70.6911 45.6445 70.8866 46.7467 70.8866C48.9156 70.8866 50.7467 70.3178 52.24 69.18C53.7334 68.0422 54.7823 66.5666 55.3867 64.7533C55.7067 63.7933 55.8667 62.8155 55.8667 61.82C55.8667 58.1222 53.5023 54.6022 48.7734 51.26C45.3245 48.8422 42.8711 46.1933 41.4134 43.3133C40.3467 41.18 39.8134 39.1355 39.8134 37.18C39.8134 34.1578 40.7734 31.3844 42.6934 28.86C39.5289 29.9978 36.7556 31.7755 34.3734 34.1933C31.9911 36.6111 30.2667 39.4555 29.2 42.7266ZM53.2 28.1133C50.7111 28.1133 48.5778 28.9489 46.8 30.62C45.0223 32.2911 44.1334 34.4778 44.1334 37.18C44.1334 40.8777 46.4978 44.3978 51.2267 47.74C54.6756 50.1578 57.1289 52.8066 58.5867 55.6866C59.6534 57.82 60.1867 59.8644 60.1867 61.82C60.1867 64.8422 59.2267 67.6155 57.3067 70.14C60.4711 69.0022 63.2445 67.2244 65.6267 64.8066C68.0089 62.3889 69.7334 59.5444 70.8 56.2733C71.5111 54.14 71.8667 51.8822 71.8667 49.5C71.8667 44.8422 70.48 40.5755 67.7067 36.7C64.9689 32.8244 61.3245 30.1578 56.7734 28.7C55.4934 28.3089 54.3023 28.1133 53.2 28.1133Z" fill="var(--pimeja)"/>
</svg>
