<svg width="100" height="100" viewBox="0 0 100 100" fill="none" xmlns="http://www.w3.org/2000/svg">
<path d="M69.7333 53.2866C68.7022 54.3178 67.4577 54.8333 66 54.8333C64.5422 54.8333 63.28 54.3178 62.2133 53.2866C61.1822 52.22 60.6666 50.9578 60.6666 49.5C60.6666 48.0422 61.1822 46.7978 62.2133 45.7666C63.28 44.7 64.5422 44.1666 66 44.1666C67.4577 44.1666 68.7022 44.7 69.7333 45.7666C70.8 46.7978 71.3333 48.0422 71.3333 49.5C71.3333 50.9578 70.8 52.22 69.7333 53.2866ZM54.7999 75.6333H29.2V23.3666H54.7999V75.6333ZM50.5333 71.3666V27.6333H33.4666V71.3666H50.5333Z" fill="var(--pimeja)"/>
</svg>
