<svg width="100" height="100" viewBox="0 0 100 100" fill="none" xmlns="http://www.w3.org/2000/svg">
<path d="M68.4534 67.9533C63.3334 73.0733 57.1823 75.6333 50 75.6333C42.8178 75.6333 36.6667 73.0733 31.5467 67.9533C26.4267 62.8333 23.8667 56.6822 23.8667 49.5C23.8667 42.3178 26.4267 36.1666 31.5467 31.0466C36.6667 25.9266 42.8178 23.3666 50 23.3666C57.1823 23.3666 63.3334 25.9266 68.4534 31.0466C73.5734 36.1666 76.1334 42.3178 76.1334 49.5C76.1334 56.6822 73.5734 62.8333 68.4534 67.9533ZM60.9334 30.5666C57.5911 28.6111 53.9467 27.6333 50 27.6333C46.0534 27.6333 42.3911 28.6111 39.0134 30.5666C35.6711 32.5222 33.0223 35.1889 31.0667 38.5666C29.1111 41.9089 28.1334 45.5533 28.1334 49.5C28.1334 53.4466 29.1111 57.1089 31.0667 60.4866C33.0223 63.8289 35.6711 66.4778 39.0134 68.4333C42.3911 70.3889 46.0534 71.3666 50 71.3666C53.9467 71.3666 57.5911 70.3889 60.9334 68.4333C64.3111 66.4778 66.9778 63.8289 68.9334 60.4866C70.8889 57.1089 71.8667 53.4466 71.8667 49.5C71.8667 45.5533 70.8889 41.9089 68.9334 38.5666C66.9778 35.1889 64.3111 32.5222 60.9334 30.5666ZM66 51.6333H47.8667V33.5H52.1334V47.3666H66V51.6333Z" fill="var(--pimeja)"/>
</svg>
