<svg width="100" height="100" viewBox="0 0 100 100" fill="none" xmlns="http://www.w3.org/2000/svg">
<path d="M40.1866 67.26C42.9244 69.9978 46.1955 71.3667 50 71.3667C53.8044 71.3667 57.0578 69.9978 59.76 67.26C62.4978 64.5578 63.8666 61.3045 63.8666 57.5C63.8666 53.6956 62.4978 50.4423 59.76 47.74C57.0578 45.0023 53.8044 43.6334 50 43.6334C46.1955 43.6334 42.9244 45.0023 40.1866 47.74C37.4844 50.4423 36.1333 53.6956 36.1333 57.5C36.1333 61.3045 37.4844 64.5578 40.1866 67.26ZM47.8666 22.8334H52.1333V27.1534L58.16 23.6334L60.2933 27.3667L54.2666 30.8334L60.2933 34.3L58.16 38.0334L52.1333 34.5134V39.4734C55.5466 39.9 58.5155 41.1089 61.04 43.1C63.5644 45.0556 65.4489 47.5089 66.6933 50.46C67.6533 52.7 68.1333 55.0467 68.1333 57.5C68.1333 62.4778 66.3555 66.7445 62.8 70.3C59.2444 73.8556 54.9777 75.6334 50 75.6334C45.0222 75.6334 40.7555 73.8556 37.2 70.3C33.6444 66.7445 31.8666 62.4778 31.8666 57.5C31.8666 52.5223 33.6444 48.2556 37.2 44.7C40.1866 41.7134 43.7422 39.9712 47.8666 39.4734V34.5134L41.84 38.0334L39.7066 34.3L45.7333 30.8334L39.7066 27.3667L41.84 23.6334L47.8666 27.1534V22.8334Z" fill="var(--pimeja)"/>
</svg>
