<svg width="100" height="100" viewBox="0 0 100 100" fill="none" xmlns="http://www.w3.org/2000/svg">
<path d="M41.6267 29.1266C44.08 27.7755 46.8711 27.1 50 27.1C53.1289 27.1 55.92 27.7755 58.3734 29.1266C60.8267 30.4778 62.8711 32.2378 64.5067 34.4066L74.32 28.7L76.4534 32.4333L66.64 38.0866C67.6356 40.3978 68.1334 42.78 68.1334 45.2333C68.1334 50.2111 66.3556 54.4778 62.8 58.0333C59.8134 61.02 56.2578 62.7622 52.1334 63.26V74.5666H47.8667V63.26C44.4534 62.8333 41.4845 61.6422 38.96 59.6866C36.4356 57.6955 34.5511 55.2244 33.3067 52.2733C32.3467 50.0333 31.8667 47.6866 31.8667 45.2333C31.8667 42.78 32.3645 40.3978 33.36 38.0866L23.5467 32.4333L25.68 28.7L35.4934 34.4066C37.1289 32.2378 39.1734 30.4778 41.6267 29.1266ZM40.1867 55.0466C42.9245 57.7489 46.1956 59.1 50 59.1C53.8045 59.1 57.0578 57.7489 59.76 55.0466C62.4978 52.3089 63.8667 49.0378 63.8667 45.2333C63.8667 41.4289 62.4978 38.1755 59.76 35.4733C57.0578 32.7355 53.8045 31.3666 50 31.3666C46.1956 31.3666 42.9245 32.7355 40.1867 35.4733C37.4845 38.1755 36.1334 41.4289 36.1334 45.2333C36.1334 49.0378 37.4845 52.3089 40.1867 55.0466Z" fill="var(--pimeja)"/>
</svg>
