<svg width="100" height="100" viewBox="0 0 100 100" fill="none" xmlns="http://www.w3.org/2000/svg">
<path d="M70.2666 75.6334H29.7333L49.3599 49.5C45.9466 49.3223 42.9955 47.9889 40.5066 45.5C38.0533 43.0112 36.7733 40.0423 36.6666 36.5934L40.5066 35.26C41.1822 36.22 42.1244 36.7 43.3333 36.7C44.2933 36.7 45.1111 36.3623 45.7866 35.6867C46.4622 35.0112 46.7999 34.1934 46.7999 33.2334C46.7999 32.2734 46.4622 31.4556 45.7866 30.78C45.1111 30.1045 44.2933 29.7667 43.3333 29.7667H42.9599L41.3066 26.0334C43.7599 23.9 46.6577 22.8334 49.9999 22.8334C53.6977 22.8334 56.8444 24.1312 59.4399 26.7267C62.0355 29.3223 63.3333 32.4689 63.3333 36.1667C63.3333 39.8645 62.0355 43.0112 59.4399 45.6067C57.0222 48.0245 54.0888 49.3223 50.6399 49.5L70.2666 75.6334ZM38.2666 71.3667H61.7333L49.9999 55.74L38.2666 71.3667ZM42.2666 40.9134C44.0444 43.7934 46.6222 45.2334 49.9999 45.2334C52.4888 45.2334 54.6222 44.3445 56.3999 42.5667C58.1777 40.7889 59.0666 38.6556 59.0666 36.1667C59.0666 33.6778 58.1777 31.5445 56.3999 29.7667C54.6222 27.9889 52.4888 27.1 49.9999 27.1C49.4311 27.1 48.8444 27.1534 48.2399 27.26C50.1244 28.86 51.0666 30.8512 51.0666 33.2334C51.0666 35.3667 50.3022 37.1978 48.7733 38.7267C47.2799 40.22 45.4666 40.9667 43.3333 40.9667C42.8711 40.9667 42.5155 40.9489 42.2666 40.9134Z" fill="var(--pimeja)"/>
</svg>
