<svg width="100" height="100" viewBox="0 0 100 100" fill="none" xmlns="http://www.w3.org/2000/svg">
<path d="M53.2 47.9C57.04 47.9 60.2222 49.2333 62.7467 51.9C65.2711 54.5666 66.5334 57.8555 66.5334 61.7666C66.5334 65.9266 65.0222 69.6955 62 73.0733C58.48 76.9133 53.9467 78.8333 48.4 78.8333C42.7822 78.8333 38 77.2511 34.0534 74.0866C29.3956 70.3533 27.0667 65.18 27.0667 58.5666C27.0667 55.4733 27.7245 52.54 29.04 49.7666C30.3911 46.9933 32.3111 44.54 34.8 42.4066C37.1111 40.4155 39.7245 38.8866 42.64 37.82C45.5911 36.7177 48.5778 36.1666 51.6 36.1666C57.04 36.1666 61.7867 37.5533 65.84 40.3266C69.9289 43.0644 73.2711 46.6555 75.8667 51.1L72.1334 53.2333C67.1556 44.7 60.3111 40.4333 51.6 40.4333C48.2934 40.4333 45.0934 41.18 42 42.6733C38.9422 44.1311 36.4 46.2822 34.3734 49.1266C32.3467 51.9711 31.3334 55.1177 31.3334 58.5666C31.3334 62.0866 32.1867 65.0911 33.8934 67.58C35.6 70.0689 37.6978 71.8466 40.1867 72.9133C42.7111 74.0155 45.4489 74.5666 48.4 74.5666C52.6667 74.5666 56.1334 73.1088 58.8 70.1933C61.1111 67.6333 62.2667 64.8244 62.2667 61.7666C62.2667 58.9577 61.4134 56.6644 59.7067 54.8866C58.0356 53.0733 55.8667 52.1666 53.2 52.1666C51.28 52.1666 49.6445 52.6466 48.2934 53.6066C46.9422 54.5666 46.2667 56.0422 46.2667 58.0333C46.2667 59.9177 47.0845 61.3577 48.72 62.3533C49.1111 62.6022 49.52 62.8155 49.9467 62.9933C50.4089 63.1355 50.7645 63.2244 51.0134 63.26L51.3867 63.3666L50.7467 67.6333C48.9334 67.1711 47.5111 66.62 46.48 65.98C43.4934 64.1311 42 61.4822 42 58.0333C42 54.9044 43.0489 52.4333 45.1467 50.62C47.28 48.8066 49.9645 47.9 53.2 47.9ZM47.8667 30.8333V20.1666H52.1334V30.8333H47.8667ZM63.44 30.94L70.9067 23.4733L73.8934 26.46L66.4267 33.9266L63.44 30.94ZM26.1067 26.46L29.0934 23.4733L36.56 30.94L33.5734 33.9266L26.1067 26.46Z" fill="var(--pimeja)"/>
</svg>
