<svg width="100" height="100" viewBox="0 0 100 100" fill="none" xmlns="http://www.w3.org/2000/svg">
<path d="M68.4534 46.62C63.3334 51.74 57.1823 54.3 50 54.3C42.8178 54.3 36.6667 51.74 31.5467 46.62C26.4267 41.5 23.8667 35.3489 23.8667 28.1667V23.3667H76.1334V28.1667C76.1334 35.3489 73.5734 41.5 68.4534 46.62ZM28.1334 27.6334V28.1667C28.1334 32.1134 29.1111 35.7756 31.0667 39.1534C33.0223 42.4956 35.6711 45.1445 39.0134 47.1C42.3911 49.0556 46.0534 50.0334 50 50.0334C53.9467 50.0334 57.5911 49.0556 60.9334 47.1C64.3111 45.1445 66.9778 42.4956 68.9334 39.1534C70.8889 35.7756 71.8667 32.1134 71.8667 28.1667V27.6334H28.1334ZM46.2134 74.5667C45.1823 73.5356 44.6667 72.2911 44.6667 70.8334C44.6667 69.3756 45.1823 68.1134 46.2134 67.0467C47.28 66.0156 48.5423 65.5 50 65.5C51.4578 65.5 52.7023 66.0156 53.7334 67.0467C54.8 68.1134 55.3334 69.3756 55.3334 70.8334C55.3334 72.2911 54.8 73.5356 53.7334 74.5667C52.7023 75.6334 51.4578 76.1667 50 76.1667C48.5423 76.1667 47.28 75.6334 46.2134 74.5667Z" fill="var(--pimeja)"/>
</svg>
