<svg width="100" height="100" viewBox="0 0 100 100" fill="none" xmlns="http://www.w3.org/2000/svg">
<path d="M68.4534 57.2867C63.3334 62.4067 57.1823 64.9667 50 64.9667C42.8178 64.9667 36.6667 62.4067 31.5467 57.2867C26.4267 52.1667 23.8667 46.0155 23.8667 38.8333V34.0333H76.1334V38.8333C76.1334 46.0155 73.5734 52.1667 68.4534 57.2867ZM28.1334 38.3V38.8333C28.1334 42.78 29.1111 46.4422 31.0667 49.82C33.0223 53.1622 35.6711 55.8111 39.0134 57.7667C42.3911 59.7222 46.0534 60.7 50 60.7C53.9467 60.7 57.5911 59.7222 60.9334 57.7667C64.3111 55.8111 66.9778 53.1622 68.9334 49.82C70.8889 46.4422 71.8667 42.78 71.8667 38.8333V38.3H28.1334Z" fill="var(--pimeja)"/>
</svg>
