<svg width="100" height="100" viewBox="0 0 100 100" fill="none" xmlns="http://www.w3.org/2000/svg">
<path d="M44.6666 75.6334C42.2844 75.6334 40.4355 74.5667 39.12 72.4334C37.84 70.3356 37.2 67.7934 37.2 64.8067C37.2 64.2378 37.2177 63.6512 37.2533 63.0467C37.3244 62.4423 37.3955 61.8734 37.4666 61.34C37.5377 60.7712 37.6266 60.2023 37.7333 59.6334C37.84 59.0645 37.9288 58.5667 38 58.14C38.1066 57.6778 38.2133 57.2334 38.32 56.8067C38.4266 56.38 38.5155 56.0245 38.5866 55.74C38.6933 55.4556 38.7644 55.2245 38.8 55.0467L38.9066 54.7267L42.96 56.0067L42.8533 56.3267C42.8177 56.5045 42.7466 56.7712 42.64 57.1267C42.5688 57.4467 42.48 57.82 42.3733 58.2467C42.2666 58.6734 42.16 59.1712 42.0533 59.74C41.9466 60.2734 41.84 60.8067 41.7333 61.34C41.6622 61.8734 41.5911 62.46 41.52 63.1C41.4844 63.7045 41.4666 64.2734 41.4666 64.8067C41.4666 66.6912 41.7688 68.2556 42.3733 69.5C42.9777 70.7445 43.7422 71.3667 44.6666 71.3667C45.4488 71.3667 46.1244 70.9045 46.6933 69.98C47.4755 68.8067 47.8666 67.3489 47.8666 65.6067V60.1667H52.1333V65.6067C52.1333 67.3489 52.5244 68.8067 53.3066 69.98C53.8755 70.9045 54.5511 71.3667 55.3333 71.3667C56.2577 71.3667 57.0222 70.7445 57.6266 69.5C58.2311 68.2556 58.5333 66.6912 58.5333 64.8067C58.5333 64.2734 58.4977 63.7045 58.4266 63.1C58.3911 62.46 58.32 61.8734 58.2133 61.34C58.1422 60.8067 58.0533 60.2734 57.9466 59.74C57.84 59.1712 57.7333 58.6734 57.6266 58.2467C57.52 57.82 57.4133 57.4467 57.3066 57.1267C57.2355 56.7712 57.1822 56.5045 57.1466 56.3267L57.04 56.0067L61.0933 54.7267L61.2 55.0467C61.2355 55.2245 61.2888 55.4556 61.36 55.74C61.4666 56.0245 61.5733 56.38 61.68 56.8067C61.7866 57.2334 61.8755 57.6778 61.9466 58.14C62.0533 58.5667 62.16 59.0645 62.2666 59.6334C62.3733 60.2023 62.4622 60.7712 62.5333 61.34C62.6044 61.8734 62.6577 62.4423 62.6933 63.0467C62.7644 63.6512 62.7999 64.2378 62.7999 64.8067C62.7999 67.7934 62.1422 70.3356 60.8266 72.4334C59.5466 74.5667 57.7155 75.6334 55.3333 75.6334C53.2355 75.6334 51.4577 74.6556 50 72.7C48.5422 74.6556 46.7644 75.6334 44.6666 75.6334ZM47.8666 49.5V22.8334H52.1333V49.5H47.8666Z" fill="var(--pimeja)"/>
</svg>
