<svg width="100" height="100" viewBox="0 0 100 100" fill="none" xmlns="http://www.w3.org/2000/svg">
<path d="M40.08 48.2734C39.5823 47.42 39.3334 46.4067 39.3334 45.2334C39.3334 44.06 39.5823 43.0645 40.08 42.2467C40.6134 41.3934 41.2534 40.9667 42 40.9667C42.7467 40.9667 43.3689 41.3934 43.8667 42.2467C44.4 43.0645 44.6667 44.06 44.6667 45.2334C44.6667 46.4067 44.4 47.42 43.8667 48.2734C43.3689 49.0911 42.7467 49.5 42 49.5C41.2534 49.5 40.6134 49.0911 40.08 48.2734ZM50.7467 48.2734C50.2489 47.42 50 46.4067 50 45.2334C50 44.06 50.2489 43.0645 50.7467 42.2467C51.28 41.3934 51.92 40.9667 52.6667 40.9667C53.4134 40.9667 54.0356 41.3934 54.5334 42.2467C55.0667 43.0645 55.3334 44.06 55.3334 45.2334C55.3334 46.4067 55.0667 47.42 54.5334 48.2734C54.0356 49.0911 53.4134 49.5 52.6667 49.5C51.92 49.5 51.28 49.0911 50.7467 48.2734ZM54.8 76.1667H50.5334V60.7H70L61.2 47.4734V38.8334C61.2 35.74 60.0978 33.1089 57.8934 30.94C55.7245 28.7356 53.0934 27.6334 50 27.6334H23.3334V23.3667H50C54.2667 23.3667 57.9112 24.8778 60.9334 27.9C63.9556 30.9223 65.4667 34.5667 65.4667 38.8334V46.1934L78 64.9667H54.8V76.1667ZM39.8667 75.6334V60.7H44.1334V75.6334H39.8667Z" fill="var(--pimeja)"/>
</svg>
