<svg width="100" height="100" viewBox="0 0 100 100" fill="none" xmlns="http://www.w3.org/2000/svg">
<path d="M70.8534 31.1C74.3734 38.0689 76.1334 45.0911 76.1334 52.1666C76.1334 59.1 74.8711 64.6822 72.3467 68.9133C69.7156 73.3933 66.2667 75.6333 62 75.6333C57.8045 75.6333 54.3378 72.8955 51.6 67.42C50.9956 66.14 50.4623 64.8422 50 63.5266C48.5423 67.9 46.5511 71.1355 44.0267 73.2333C42.1067 74.8333 40.0978 75.6333 38 75.6333C33.7334 75.6333 30.2845 73.3933 27.6534 68.9133C25.1289 64.6822 23.8667 59.1 23.8667 52.1666C23.8667 45.0911 25.6267 38.0689 29.1467 31.1C29.9289 29.5355 30.7645 28.0422 31.6534 26.62C32.5423 25.1978 33.2 24.2022 33.6267 23.6333C34.0889 23.0289 34.3734 22.6733 34.48 22.5667C34.8356 22.8867 35.3689 23.3489 36.08 23.9533C36.8267 24.5222 37.3956 24.9489 37.7867 25.2333L37.52 25.6067C37.3423 25.82 37.0934 26.1755 36.7734 26.6733C36.4534 27.1355 36.0978 27.6689 35.7067 28.2733C35.3156 28.8422 34.8711 29.5711 34.3734 30.46C33.8756 31.3133 33.3956 32.1844 32.9334 33.0733C29.7334 39.4733 28.1334 45.8378 28.1334 52.1666C28.1334 57.7489 29.0578 62.3355 30.9067 65.9267C32.7911 69.5533 35.1556 71.3667 38 71.3667C40.4178 71.3667 42.6045 69.4111 44.56 65.5C46.7645 61.0911 47.8667 55.7578 47.8667 49.5H52.1334C52.1334 55.7578 53.2356 61.0911 55.44 65.5C57.3956 69.4111 59.5823 71.3667 62 71.3667C64.8445 71.3667 67.1911 69.5533 69.04 65.9267C70.9245 62.3355 71.8667 57.7489 71.8667 52.1666C71.8667 45.8378 70.2667 39.4733 67.0667 33.0733C66.6045 32.1844 66.1245 31.3133 65.6267 30.46C65.1289 29.5711 64.6845 28.8422 64.2934 28.2733C63.9023 27.6689 63.5467 27.1355 63.2267 26.6733C62.9067 26.1755 62.6578 25.82 62.48 25.6067L62.2134 25.2333L65.52 22.5667C65.6267 22.6733 65.8934 23.0289 66.32 23.6333C66.7823 24.2022 67.4578 25.1978 68.3467 26.62C69.2356 28.0422 70.0711 29.5355 70.8534 31.1Z" fill="var(--pimeja)"/>
</svg>
