<svg width="100" height="100" viewBox="0 0 100 100" fill="none" xmlns="http://www.w3.org/2000/svg">
<path d="M38 75.6333C33.84 75.6333 30.4445 74.1222 27.8134 71.0999C25.1823 68.0777 23.8667 64.291 23.8667 59.7399C23.8667 55.1888 25.2 50.4955 27.8667 45.6599C29.9289 41.9266 32.7911 38.0866 36.4534 34.1399C38.2667 32.2199 40.1867 30.3533 42.2134 28.5399C44.2756 26.6911 45.8223 25.3755 46.8534 24.5933C47.8845 23.811 48.5245 23.3488 48.7734 23.2066L50 22.3533L51.2267 23.2066C51.4756 23.3488 52.1156 23.811 53.1467 24.5933C54.1778 25.3755 55.7067 26.6911 57.7334 28.5399C59.7956 30.3533 61.7334 32.2199 63.5467 34.1399C67.2089 38.0866 70.0711 41.9266 72.1334 45.6599C74.8 50.531 76.1334 55.2244 76.1334 59.7399C76.1334 64.291 74.8178 68.0777 72.1867 71.0999C69.5556 74.1222 66.16 75.6333 62 75.6333C57.9467 75.6333 54.5867 74.1577 51.92 71.2066C51.2445 70.4955 50.6045 69.5888 50 68.4866C49.3956 69.5888 48.7556 70.4955 48.08 71.2066C45.4134 74.1577 42.0534 75.6333 38 75.6333ZM54.8534 68.1133C56.7023 70.2822 59.0845 71.3666 62 71.3666C64.9156 71.3666 67.28 70.2822 69.0934 68.1133C70.9423 65.9799 71.8667 63.1888 71.8667 59.7399C71.8667 57.0377 71.2445 54.1933 70 51.2066C68.7556 48.2199 67.28 45.5888 65.5734 43.3133C63.9023 41.0022 61.9289 38.691 59.6534 36.3799C57.4134 34.0333 55.5823 32.2555 54.16 31.0466C52.7378 29.8022 51.3511 28.6644 50 27.6333C46.1245 30.5844 42.6223 33.7488 39.4934 37.1266C31.92 45.3399 28.1334 52.8777 28.1334 59.7399C28.1334 63.1888 29.04 65.9799 30.8534 68.1133C32.7023 70.2822 35.0845 71.3666 38 71.3666C40.9156 71.3666 43.28 70.2822 45.0934 68.1133C46.9423 65.9799 47.8667 63.1888 47.8667 59.7399H52.1334C52.1334 63.1888 53.04 65.9799 54.8534 68.1133Z" fill="var(--pimeja)"/>
</svg>
