<svg width="100" height="100" viewBox="0 0 100 100" fill="none" xmlns="http://www.w3.org/2000/svg">
<path d="M66.5333 46.14C64.6844 48.5578 62.3377 50.5312 59.4933 52.06C56.6844 53.5534 53.52 54.3 50 54.3C44.24 54.3 39.3333 52.2734 35.28 48.22C31.2266 44.1667 29.2 39.26 29.2 33.5V22.8334H33.4666V33.5C33.4666 38.0512 35.0844 41.9445 38.32 45.18C41.5555 48.4156 45.4488 50.0334 50 50.0334C54.5511 50.0334 58.4444 48.4156 61.68 45.18C64.9155 41.9445 66.5333 38.0512 66.5333 33.5V22.8334H70.8V54.8334C70.8 60.5934 68.7733 65.5 64.72 69.5534C60.6666 73.6067 55.76 75.6334 50 75.6334C46.3733 75.6334 43.0666 74.7978 40.08 73.1267C37.1288 71.4556 34.7466 69.3223 32.9333 66.7267L36.4533 64.2734C38.0177 66.4778 39.9911 68.2023 42.3733 69.4467C44.7555 70.7267 47.2977 71.3667 50 71.3667C54.5511 71.3667 58.4444 69.7489 61.68 66.5134C64.9155 63.2778 66.5333 59.3845 66.5333 54.8334V46.14Z" fill="var(--pimeja)"/>
</svg>
